<?xml version="1.0" encoding="utf-8"?>
<!-- Generator: Adobe Illustrator 22.0.1, SVG Export Plug-In . SVG Version: 6.00 Build 0)  -->
<svg version="1.1" id="Layer_1" xmlns="http://www.w3.org/2000/svg" xmlns:xlink="http://www.w3.org/1999/xlink" x="0px" y="0px"
	 viewBox="0 0 512 512" style="enable-background:new 0 0 512 512;" xml:space="preserve">
<style type="text/css">
	.st0{fill:#EDF3FC;}
	.st1{fill:url(#SVGID_1_);}
	.st2{fill:url(#SVGID_2_);}
	.st3{fill:url(#SVGID_3_);}
	.st4{fill:url(#SVGID_4_);}
	.st5{fill:#FFBE1B;}
	.st6{fill:url(#SVGID_5_);}
	.st7{fill:url(#SVGID_6_);}
	.st8{fill:url(#SVGID_7_);}
	.st9{fill:url(#SVGID_8_);}
	.st10{fill:#FFE37B;}
	.st11{fill:#FFFFFF;}
	.st12{fill:#5D8EF9;}
	.st13{fill:#8AC9F9;}
	.st14{fill:#330D84;}
	.st15{fill:#5932AE;}
	.st16{fill:#6857E5;}
	.st17{fill:url(#SVGID_9_);}
	.st18{fill:url(#SVGID_10_);}
	.st19{fill:url(#SVGID_11_);}
	.st20{fill:url(#SVGID_12_);}
	.st21{fill:url(#SVGID_13_);}
	.st22{fill:url(#SVGID_14_);}
	.st23{fill:#8C7BFD;}
	.st24{fill:#D5EBF7;}
	.st25{fill:#CECAFF;}
	.st26{fill:url(#XMLID_3_);}
	.st27{fill:#7C72F7;}
	.st28{fill:#73AAF9;}
	.st29{fill:#EFAB11;}
	.st30{fill:#6DC5F2;}
	.st31{fill:#FFF9CC;}
</style>
<g>
	<g>
		<g>
			<path class="st0" d="M256.007,40.929c-118.781,0-215.07,96.297-215.07,215.075c0,118.778,96.289,215.067,215.07,215.067
				c118.775,0,215.064-96.29,215.064-215.067C471.07,137.226,374.781,40.929,256.007,40.929z"/>
		</g>
	</g>
	<g>
		<g>
			<path class="st0" d="M256.007,1C115.396,1,1,115.394,1,256.003C1,396.609,115.396,511,256.007,511
				C396.61,511,511,396.609,511,256.003C511,115.394,396.61,1,256.007,1z M256.007,502.83C119.9,502.83,9.171,392.104,9.171,256.003
				C9.171,119.899,119.9,9.17,256.007,9.17c136.098,0,246.822,110.729,246.822,246.833
				C502.829,392.104,392.104,502.83,256.007,502.83z"/>
		</g>
	</g>
	<g>
		<g>
			<path class="st14" d="M303.642,121.077c-1.948-0.668-3.94-1.303-5.923-1.888c-2.65-0.783-5.429,0.731-6.211,3.379
				c-0.782,2.648,0.73,5.43,3.379,6.211c1.845,0.545,3.699,1.136,5.511,1.758c0.538,0.184,1.085,0.272,1.622,0.272
				c2.077,0,4.019-1.305,4.729-3.38C307.645,124.817,306.253,121.973,303.642,121.077z"/>
		</g>
	</g>
	<g>
		<g>
			<path class="st14" d="M347.094,144.957c-2.157-1.723-5.304-1.372-7.027,0.786c-1.724,2.157-1.372,5.304,0.785,7.027
				c2.779,2.22,5.502,4.577,8.095,7.005c0.965,0.904,2.191,1.351,3.417,1.351c1.334,0,2.666-0.531,3.65-1.582
				c1.888-2.015,1.784-5.18-0.232-7.067C353,149.87,350.076,147.34,347.094,144.957z M331.381,134.018
				c-3.269-1.971-6.658-3.835-10.073-5.54c-2.47-1.233-5.474-0.23-6.707,2.241c-1.233,2.471-0.23,5.473,2.24,6.707
				c3.18,1.587,6.335,3.322,9.378,5.156c0.808,0.487,1.697,0.719,2.576,0.719c1.695,0,3.349-0.862,4.287-2.419
				C334.508,138.516,333.746,135.443,331.381,134.018z M390.532,202.424c-1.472-3.515-3.106-7.019-4.856-10.413
				c-1.266-2.455-4.282-3.418-6.736-2.152c-2.454,1.266-3.418,4.281-2.152,6.736c1.63,3.16,3.151,6.422,4.522,9.694
				c0.802,1.916,2.658,3.069,4.613,3.069c0.643,0,1.299-0.125,1.93-0.389C390.399,207.901,391.6,204.971,390.532,202.424z
				 M375.797,175.613c-2.179-3.13-4.511-6.213-6.931-9.164c-1.75-2.134-4.902-2.447-7.037-0.695
				c-2.135,1.751-2.446,4.902-0.695,7.037c2.255,2.749,4.427,5.62,6.456,8.535c0.972,1.396,2.527,2.144,4.107,2.144
				c0.986,0,1.982-0.291,2.853-0.897C376.816,180.995,377.375,177.879,375.797,175.613z"/>
		</g>
	</g>
	<g>
		<g>
			<path class="st14" d="M398.241,226.607c-0.453-2.022-0.954-4.053-1.49-6.037c-0.721-2.665-3.468-4.242-6.132-3.522
				c-2.666,0.721-4.242,3.466-3.522,6.132c0.499,1.844,0.965,3.733,1.387,5.614c0.521,2.327,2.585,3.908,4.874,3.908
				c0.362,0,0.73-0.04,1.098-0.122C397.149,231.976,398.845,229.302,398.241,226.607z"/>
		</g>
	</g>
	<g>
		<g>
			<path class="st14" d="M122.266,217.503c-2.664-0.711-5.407,0.876-6.118,3.544c-0.53,1.987-1.024,4.02-1.47,6.042
				c-0.594,2.697,1.11,5.365,3.807,5.959c0.363,0.08,0.725,0.118,1.081,0.118c2.296,0,4.363-1.591,4.878-3.925
				c0.415-1.881,0.874-3.772,1.366-5.619C126.521,220.953,124.935,218.214,122.266,217.503z"/>
		</g>
	</g>
	<g>
		<g>
			<path class="st14" d="M136.871,185.119c-2.405-1.361-5.455-0.517-6.815,1.886c-2.264,3.995-4.359,8.146-6.23,12.336
				c-1.126,2.521,0.005,5.478,2.526,6.604c0.663,0.296,1.354,0.436,2.036,0.436c1.912,0,3.738-1.104,4.568-2.963
				c1.742-3.901,3.693-7.765,5.801-11.485C140.118,189.531,139.273,186.48,136.871,185.119z M152.069,157.565
				c-3.191,3.303-6.26,6.794-9.12,10.376c-1.723,2.158-1.37,5.304,0.787,7.027c0.922,0.736,2.023,1.093,3.117,1.093
				c1.468,0,2.923-0.644,3.91-1.88c2.665-3.337,5.523-6.59,8.497-9.667c1.919-1.986,1.864-5.151-0.121-7.07
				C157.153,155.524,153.988,155.58,152.069,157.565z M187.614,136.212c-1.442-2.354-4.521-3.094-6.875-1.651
				c-3.913,2.398-7.757,5.012-11.424,7.769c-2.208,1.659-2.652,4.794-0.993,7.001c0.983,1.307,2.482,1.996,4.001,1.996
				c1.046,0,2.101-0.327,3.001-1.004c3.416-2.568,6.995-5.002,10.64-7.236C188.318,141.645,189.058,138.566,187.614,136.212z"/>
		</g>
	</g>
	<g>
		<g>
			<path class="st14" d="M213.481,124.883c-0.939-2.597-3.809-3.938-6.402-3c-1.94,0.702-3.892,1.456-5.798,2.241
				c-2.554,1.051-3.772,3.973-2.722,6.527c0.795,1.931,2.659,3.098,4.626,3.098c0.634,0,1.278-0.121,1.9-0.378
				c1.774-0.73,3.59-1.432,5.395-2.085C213.078,130.347,214.422,127.48,213.481,124.883z"/>
		</g>
	</g>
	<g>
		<g>
			<path class="st14" d="M122.266,217.503c-2.664-0.711-5.407,0.876-6.118,3.544c-0.53,1.987-1.024,4.02-1.47,6.042
				c-0.594,2.697,1.11,5.365,3.807,5.959c0.363,0.08,0.725,0.118,1.081,0.118c2.296,0,4.363-1.591,4.878-3.925
				c0.415-1.881,0.874-3.772,1.366-5.619C126.521,220.953,124.935,218.214,122.266,217.503z"/>
		</g>
	</g>
	<g>
		<g>
			<path class="st14" d="M136.871,185.119c-2.405-1.361-5.455-0.517-6.815,1.886c-2.264,3.995-4.359,8.146-6.23,12.336
				c-1.126,2.521,0.005,5.478,2.526,6.604c0.663,0.296,1.354,0.436,2.036,0.436c1.912,0,3.738-1.104,4.568-2.963
				c1.742-3.901,3.693-7.765,5.801-11.485C140.118,189.531,139.273,186.48,136.871,185.119z M152.069,157.565
				c-3.191,3.303-6.26,6.794-9.12,10.376c-1.723,2.158-1.37,5.304,0.787,7.027c0.922,0.736,2.023,1.093,3.117,1.093
				c1.468,0,2.923-0.644,3.91-1.88c2.665-3.337,5.523-6.59,8.497-9.667c1.919-1.986,1.864-5.151-0.121-7.07
				C157.153,155.524,153.988,155.58,152.069,157.565z M187.614,136.212c-1.442-2.354-4.521-3.094-6.875-1.651
				c-3.913,2.398-7.757,5.012-11.424,7.769c-2.208,1.659-2.652,4.794-0.993,7.001c0.983,1.307,2.482,1.996,4.001,1.996
				c1.046,0,2.101-0.327,3.001-1.004c3.416-2.568,6.995-5.002,10.64-7.236C188.318,141.645,189.058,138.566,187.614,136.212z"/>
		</g>
	</g>
	<g>
		<g>
			<path class="st14" d="M213.481,124.883c-0.939-2.597-3.809-3.938-6.402-3c-1.94,0.702-3.892,1.456-5.798,2.241
				c-2.554,1.051-3.772,3.973-2.722,6.527c0.795,1.931,2.659,3.098,4.626,3.098c0.634,0,1.278-0.121,1.9-0.378
				c1.774-0.73,3.59-1.432,5.395-2.085C213.078,130.347,214.422,127.48,213.481,124.883z"/>
		</g>
	</g>
	<g>
		<g>
			<path class="st14" d="M215.276,387.335c-1.825-0.583-3.666-1.216-5.471-1.88c-2.597-0.953-5.467,0.375-6.419,2.967
				c-0.953,2.591,0.375,5.465,2.966,6.419c1.941,0.714,3.918,1.393,5.879,2.02c0.507,0.162,1.02,0.239,1.523,0.239
				c2.117,0,4.083-1.355,4.762-3.479C219.357,390.99,217.906,388.176,215.276,387.335z"/>
		</g>
	</g>
	<g>
		<g>
			<path class="st14" d="M141.4,329.52c-1.452-2.349-4.532-3.077-6.882-1.626c-2.35,1.451-3.077,4.533-1.626,6.882
				c2.104,3.404,4.382,6.769,6.771,10.001c0.981,1.326,2.493,2.027,4.024,2.027c1.033,0,2.075-0.319,2.969-0.98
				c2.221-1.642,2.689-4.773,1.048-6.993C145.479,335.821,143.357,332.688,141.4,329.52z M192.716,377.776
				c-3.29-1.763-6.548-3.688-9.682-5.72c-2.316-1.502-5.412-0.842-6.916,1.475c-1.502,2.317-0.842,5.413,1.475,6.916
				c3.367,2.184,6.866,4.25,10.4,6.145c0.751,0.403,1.56,0.594,2.357,0.594c1.783,0,3.51-0.957,4.411-2.639
				C196.065,382.11,195.15,379.08,192.716,377.776z M159.859,353.093c-1.932-1.974-5.098-2.006-7.07-0.076
				c-1.974,1.932-2.008,5.097-0.076,7.071c2.806,2.867,5.766,5.65,8.796,8.273c0.946,0.818,2.11,1.219,3.27,1.219
				c1.4,0,2.794-0.585,3.782-1.728c1.808-2.088,1.58-5.246-0.508-7.053C165.23,358.356,162.474,355.763,159.859,353.093z"/>
		</g>
	</g>
	<g>
		<g>
			<path class="st14" d="M132.672,312.929c-0.776-1.765-1.523-3.564-2.216-5.345c-1.003-2.573-3.899-3.846-6.475-2.844
				c-2.572,1.002-3.846,3.901-2.844,6.474c0.746,1.913,1.547,3.845,2.38,5.74c0.824,1.873,2.657,2.988,4.58,2.988
				c0.672,0,1.355-0.137,2.01-0.424C132.636,318.408,133.783,315.457,132.672,312.929z"/>
		</g>
	</g>
	<g>
		<g>
			<path class="st14" d="M388.38,306.595c-2.562-1.04-5.475,0.193-6.514,2.751c-0.725,1.785-1.495,3.573-2.291,5.312
				c-1.147,2.512-0.042,5.478,2.469,6.626c0.674,0.308,1.381,0.454,2.076,0.454c1.897,0,3.71-1.085,4.551-2.923
				c0.854-1.869,1.682-3.789,2.461-5.707C392.171,310.551,390.939,307.634,388.38,306.595z"/>
		</g>
	</g>
	<g>
		<g>
			<path class="st14" d="M325.011,375.132c-3.381,1.99-6.891,3.854-10.431,5.54c-2.493,1.188-3.551,4.171-2.363,6.664
				c0.856,1.799,2.648,2.851,4.518,2.851c0.72,0,1.452-0.156,2.146-0.487c3.802-1.811,7.57-3.813,11.202-5.95
				c2.38-1.4,3.174-4.465,1.773-6.845C330.455,374.525,327.394,373.73,325.011,375.132z M377.024,330.434
				c-2.318-1.502-5.413-0.838-6.915,1.479c-2.13,3.289-4.434,6.529-6.848,9.627c-1.697,2.178-1.307,5.32,0.871,7.017
				c0.913,0.711,1.995,1.056,3.069,1.056c1.489,0,2.963-0.662,3.948-1.927c2.592-3.326,5.065-6.804,7.354-10.337
				C380.005,335.03,379.343,331.935,377.024,330.434z M350.075,356.149c-2.834,2.716-5.82,5.339-8.876,7.796
				c-2.152,1.73-2.494,4.878-0.764,7.03c0.987,1.228,2.438,1.867,3.9,1.867c1.1,0,2.207-0.361,3.13-1.104
				c3.281-2.638,6.487-5.454,9.53-8.37c1.993-1.911,2.061-5.076,0.149-7.07C355.234,354.306,352.07,354.238,350.075,356.149z"/>
		</g>
	</g>
	<g>
		<g>
			<path class="st14" d="M302.48,391.124c-0.811-2.641-3.61-4.122-6.247-3.314c-1.831,0.562-3.704,1.093-5.565,1.577
				c-2.673,0.695-4.275,3.426-3.58,6.098c0.586,2.251,2.613,3.742,4.836,3.742c0.416,0,0.84-0.053,1.262-0.162
				c2.001-0.521,4.013-1.09,5.982-1.695C301.807,396.561,303.29,393.764,302.48,391.124z"/>
		</g>
	</g>
	<g>
		<g>
			<rect x="362.8" y="251.316" class="st10" width="49.021" height="49.02"/>
		</g>
	</g>
	<g>
		<g>
			<polygon class="st29" points="423.535,237.72 411.82,251.316 411.82,300.336 423.6,282.327 423.6,237.72 			"/>
		</g>
	</g>
	<g>
		<g>
			<polygon class="st5" points="374.511,237.72 362.8,251.316 411.82,251.316 423.535,237.72 			"/>
		</g>
	</g>
	<g>
		<g>
			<rect x="202.013" y="226.607" class="st13" width="83.757" height="83.756"/>
		</g>
	</g>
	<g>
		<g>
			<polygon class="st12" points="305.771,203.38 285.77,226.607 285.77,310.364 305.889,279.592 305.889,203.38 			"/>
		</g>
	</g>
	<g>
		<g>
			<polygon class="st30" points="222.015,203.38 202.013,226.607 285.77,226.607 305.771,203.38 			"/>
		</g>
	</g>
	<g>
		<g>
			<rect x="146.059" y="260.452" class="st14" width="55.954" height="10"/>
		</g>
	</g>
	<g>
		<g>
			<rect x="248.642" y="152.349" class="st14" width="10" height="51.032"/>
		</g>
	</g>
	<g>
		<g>
			<rect x="248.642" y="310.364" class="st14" width="10" height="51.949"/>
		</g>
	</g>
	<g>
		<g>
			<rect x="305.889" y="260.452" class="st14" width="56.911" height="10"/>
		</g>
	</g>
	<g>
		<g>
			<rect x="223.553" y="103.328" class="st10" width="49.021" height="49.021"/>
		</g>
	</g>
	<g>
		<g>
			<polygon class="st29" points="284.288,89.732 272.573,103.328 272.573,152.349 284.353,134.339 284.353,89.732 			"/>
		</g>
	</g>
	<g>
		<g>
			<polygon class="st5" points="235.264,89.732 223.553,103.328 272.573,103.328 284.288,89.732 			"/>
		</g>
	</g>
	<g>
		<g>
			<rect x="223.553" y="375.908" class="st10" width="49.021" height="49.021"/>
		</g>
	</g>
	<g>
		<g>
			<polygon class="st29" points="284.288,362.313 272.573,375.908 272.573,424.929 284.353,406.92 284.353,362.313 			"/>
		</g>
	</g>
	<g>
		<g>
			<polygon class="st5" points="235.264,362.313 223.553,375.908 272.573,375.908 284.288,362.313 			"/>
		</g>
	</g>
	<g>
		<g>
			<rect x="85.259" y="251.316" class="st10" width="49.02" height="49.02"/>
		</g>
	</g>
	<g>
		<g>
			<polygon class="st29" points="145.994,237.72 134.278,251.316 134.278,300.336 146.059,282.327 146.059,237.72 			"/>
		</g>
	</g>
	<g>
		<g>
			<polygon class="st5" points="96.97,237.72 85.259,251.316 134.278,251.316 145.994,237.72 			"/>
		</g>
	</g>
	<g>
		<g>
			<path class="st14" d="M376.799,123.577c-9.619-2.411-17.128-9.925-19.54-19.544l-0.415-1.646l-0.407,1.646
				c-2.411,9.619-9.93,17.133-19.548,19.544l-1.639,0.411l1.639,0.411c9.618,2.407,17.137,9.925,19.548,19.545l0.407,1.641
				l0.415-1.641c2.412-9.62,9.921-17.138,19.54-19.545l1.646-0.411L376.799,123.577z"/>
		</g>
	</g>
	<g>
		<g>
			<path class="st14" d="M409.041,154.386c-6.109-1.531-10.87-6.295-12.408-12.4l-0.26-1.04l-0.259,1.04
				c-1.53,6.105-6.299,10.869-12.406,12.4l-1.036,0.259l1.036,0.267c6.107,1.527,10.876,6.292,12.406,12.4l0.259,1.04l0.26-1.04
				c1.538-6.108,6.299-10.872,12.408-12.4l1.035-0.267L409.041,154.386z"/>
		</g>
	</g>
	<g>
		<g>
			<path class="st5" d="M197.505,411.532c-8.809-2.205-15.686-9.083-17.889-17.892l-0.384-1.5l-0.378,1.5
				c-2.2,8.809-9.079,15.687-17.895,17.892l-1.501,0.381l1.501,0.377c8.815,2.201,15.694,9.083,17.895,17.891l0.378,1.504
				l0.384-1.504c2.202-8.809,9.08-15.69,17.889-17.891l1.508-0.377L197.505,411.532z"/>
		</g>
	</g>
	<g>
		<g>
			<path class="st12" d="M197.9,203.098c-6.512-1.63-11.597-6.718-13.23-13.23l-0.274-1.108l-0.283,1.108
				c-1.629,6.512-6.713,11.6-13.229,13.23l-1.109,0.278l1.109,0.282c6.516,1.63,11.6,6.714,13.229,13.227l0.283,1.112l0.274-1.112
				c1.633-6.513,6.718-11.597,13.23-13.227l1.112-0.282L197.9,203.098z"/>
		</g>
	</g>
	<g>
		<g>
			<path class="st12" d="M222.928,180.885c-4.181-1.048-7.447-4.315-8.5-8.501l-0.175-0.712l-0.184,0.712
				c-1.047,4.186-4.313,7.453-8.499,8.501l-0.712,0.179l0.712,0.183c4.186,1.047,7.452,4.315,8.499,8.496l0.184,0.716l0.175-0.716
				c1.053-4.182,4.319-7.449,8.5-8.496l0.717-0.183L222.928,180.885z"/>
		</g>
	</g>
</g>
</svg>
