<?xml version="1.0" encoding="utf-8"?>
<!-- Generator: Adobe Illustrator 22.0.1, SVG Export Plug-In . SVG Version: 6.00 Build 0)  -->
<svg version="1.1" id="Layer_1" xmlns="http://www.w3.org/2000/svg" xmlns:xlink="http://www.w3.org/1999/xlink" x="0px" y="0px"
	 viewBox="0 0 512 512" style="enable-background:new 0 0 512 512;" xml:space="preserve">
<style type="text/css">
	.st0{fill:#EDF3FC;}
	.st1{fill:#330D84;}
	.st2{fill:#FFBE1B;}
	.st3{fill:#5D8EF9;}
	.st4{fill:#FFE37B;}
	.st5{fill:#8AC9F9;}
	.st6{fill:#6857E5;}
	.st7{fill:#FFFFFF;}
	.st8{fill:#D5EBF7;}
	.st9{fill:#5932AE;}
	.st10{fill:#CECAFF;}
	.st11{fill:#FFCA45;}
	.st12{fill:#FFD45C;}
	.st13{fill:#8C7BFD;}
	.st14{fill:#6DC5F2;}
	.st15{fill:#3B2296;}
	.st16{fill:#EFAB11;}
</style>
<g>
	<g>
		<g>
			<path class="st0" d="M255.999,40.929c-118.778,0-215.07,96.293-215.07,215.074c0,118.773,96.292,215.067,215.07,215.067
				S471.07,374.776,471.07,256.003C471.07,137.222,374.777,40.929,255.999,40.929z"/>
		</g>
	</g>
	<g>
		<g>
			<path class="st0" d="M255.999,1C115.392,1,1,115.393,1,256.003C1,396.606,115.392,511,255.999,511
				C396.607,511,511,396.606,511,256.003C511,115.393,396.607,1,255.999,1z M255.999,502.828
				c-136.102,0-246.83-110.728-246.83-246.825c0-136.105,110.728-246.834,246.83-246.834s246.832,110.729,246.832,246.834
				C502.831,392.101,392.102,502.828,255.999,502.828z"/>
		</g>
	</g>
	<g>
		<g>
			<path class="st1" d="M442.964,304.054c-11.583-2.901-20.625-11.947-23.527-23.526l-0.496-1.979l-0.496,1.979
				c-2.902,11.579-11.943,20.625-23.527,23.526l-1.977,0.496l1.977,0.493c11.584,2.903,20.625,11.947,23.527,23.529l0.496,1.977
				l0.496-1.977c2.902-11.582,11.944-20.626,23.527-23.529l1.98-0.493L442.964,304.054z"/>
		</g>
	</g>
	<g>
		<g>
			<path class="st3" d="M211.379,113.444c-12.01-3.009-21.386-12.389-24.398-24.398l-0.512-2.05l-0.516,2.05
				c-3.01,12.01-12.389,21.39-24.398,24.398l-2.05,0.521l2.05,0.517c12.01,3.004,21.389,12.384,24.398,24.39l0.516,2.053
				l0.512-2.053c3.013-12.006,12.389-21.386,24.398-24.39l2.051-0.517L211.379,113.444z"/>
		</g>
	</g>
	<g>
		<g>
			<path class="st2" d="M197.84,388.338c-7.76-1.944-13.814-8.003-15.765-15.762l-0.329-1.323l-0.331,1.323
				c-1.94,7.759-8.003,13.817-15.765,15.762l-1.318,0.333l1.318,0.334c7.762,1.941,13.824,7.998,15.765,15.759l0.331,1.323
				l0.329-1.323c1.95-7.761,8.005-13.817,15.765-15.759l1.324-0.334L197.84,388.338z"/>
		</g>
	</g>
	<g>
		<g>
			<circle class="st5" cx="256" cy="116.876" r="19.5"/>
		</g>
	</g>
	<g>
		<g>
			<circle class="st5" cx="256" cy="390.753" r="19.5"/>
		</g>
	</g>
	<g>
		<g>
			<circle class="st5" cx="119.061" cy="253.814" r="19.5"/>
		</g>
	</g>
	<g>
		<g>
			<path class="st1" d="M256,136.376c-1.731,0-3.401-0.248-5-0.671v55.279h10v-55.279C259.401,136.128,257.731,136.376,256,136.376z
				"/>
		</g>
	</g>
	<g>
		<g>
			<path class="st1" d="M170.238,172.452c-1.517,3.088-3.789,5.678-6.556,7.551l24.275,21.151c1.143-3.262,3.362-6.011,6.24-7.824
				L170.238,172.452z"/>
		</g>
	</g>
	<g>
		<g>
			<path class="st1" d="M341.762,172.452l-23.959,20.876c2.878,1.816,5.098,4.564,6.24,7.826l24.275-21.151
				C345.551,178.131,343.279,175.54,341.762,172.452z"/>
		</g>
	</g>
	<g>
		<g>
			<path class="st1" d="M137.889,248.814c0.423,1.599,0.671,3.268,0.671,5c0,1.731-0.248,3.401-0.671,5h49.202v-10H137.889z"/>
		</g>
	</g>
	<g>
		<g>
			<path class="st1" d="M324.043,306.474c-1.143,3.264-3.361,6.012-6.238,7.827l23.957,20.875c1.518-3.088,3.789-5.678,6.557-7.55
				L324.043,306.474z"/>
		</g>
	</g>
	<g>
		<g>
			<path class="st1" d="M374.111,248.814h-49.202v10h49.202c-0.424-1.599-0.672-3.269-0.672-5
				C373.44,252.083,373.688,250.413,374.111,248.814z"/>
		</g>
	</g>
	<g>
		<g>
			<path class="st1" d="M187.957,306.474l-24.275,21.152c2.768,1.872,5.039,4.462,6.557,7.55l23.958-20.876
				C191.319,312.485,189.1,309.736,187.957,306.474z"/>
		</g>
	</g>
	<g>
		<g>
			<path class="st1" d="M251,316.647v55.277c1.599-0.423,3.269-0.671,5-0.671c1.731,0,3.401,0.248,5,0.671v-55.277H251z"/>
		</g>
	</g>
	<g>
		<g>
			<circle class="st5" cx="392.94" cy="253.814" r="19.5"/>
		</g>
	</g>
	<g>
		<g>
			<path class="st2" d="M362.986,324.639c-10.57-2.066-20.813,4.824-22.881,15.393c-2.066,10.569,4.824,20.814,15.395,22.88
				c10.568,2.067,20.814-4.823,22.881-15.393C380.447,336.949,373.557,326.707,362.986,324.639z"/>
		</g>
	</g>
	<g>
		<g>
			<path class="st2" d="M156.5,144.716c-10.568-2.069-20.814,4.824-22.881,15.394c-2.066,10.57,4.824,20.813,15.395,22.88
				c10.57,2.068,20.813-4.823,22.88-15.393C173.961,157.025,167.07,146.783,156.5,144.716z"/>
		</g>
	</g>
	<g>
		<g>
			<path class="st2" d="M171.895,340.032c-2.068-10.569-12.311-17.46-22.881-15.393c-10.57,2.068-17.461,12.31-15.395,22.881
				c2.067,10.569,12.313,17.46,22.881,15.393C167.07,360.846,173.961,350.602,171.895,340.032z"/>
		</g>
	</g>
	<g>
		<g>
			<path class="st2" d="M378.381,160.109c-2.067-10.569-12.313-17.463-22.881-15.394c-10.57,2.067-17.461,12.31-15.394,22.881
				c2.067,10.569,12.31,17.461,22.88,15.393C373.557,180.922,380.447,170.68,378.381,160.109z"/>
		</g>
	</g>
	<g>
		<g>
			<path class="st1" d="M309.722,190.984h-107.44c-8.391,0-15.191,6.8-15.191,15.184v95.287c0,8.39,6.801,15.19,15.191,15.19h107.44
				c8.388,0,15.188-6.801,15.188-15.19v-95.287C324.909,197.784,318.109,190.984,309.722,190.984z"/>
		</g>
	</g>
	<g>
		<g>
			<path class="st7" d="M270.277,199.516c-2.502,0-4.529,2.028-4.529,4.529c0,2.501,2.027,4.528,4.529,4.528
				c2.501,0,4.529-2.027,4.529-4.528C274.807,201.544,272.778,199.516,270.277,199.516z"/>
		</g>
	</g>
	<g>
		<g>
			<path class="st7" d="M288.662,199.516c-2.503,0-4.53,2.028-4.53,4.529c0,2.501,2.027,4.528,4.53,4.528
				c2.501,0,4.529-2.027,4.529-4.528C293.191,201.544,291.163,199.516,288.662,199.516z"/>
		</g>
	</g>
	<g>
		<g>
			<path class="st7" d="M307.046,199.516c-2.502,0-4.529,2.028-4.529,4.529c0,2.501,2.027,4.528,4.529,4.528
				c2.503,0,4.529-2.027,4.529-4.528C311.575,201.544,309.549,199.516,307.046,199.516z"/>
		</g>
	</g>
	<g>
		<g>
			<path class="st6" d="M187.091,217.944v83.512c0,8.39,6.801,15.19,15.191,15.19h107.44c8.388,0,15.188-6.801,15.188-15.19v-83.512
				H187.091z"/>
		</g>
	</g>
	<g>
		<g>
			<path class="st7" d="M289.853,278.255l-4.36-2.519c0.845-2.833,1.3-5.836,1.3-8.942c0-3.107-0.455-6.108-1.3-8.942l4.36-2.519
				c1.081-0.623,1.45-2.004,0.828-3.082l-5.003-8.666c-0.626-1.08-2.006-1.45-3.085-0.826l-4.367,2.52
				c-4.113-4.347-9.462-7.516-15.482-8.945V231.3c0-1.248-1.011-2.26-2.258-2.26H250.48c-1.247,0-2.258,1.012-2.258,2.26v5.034
				c-6.019,1.43-11.366,4.599-15.482,8.945l-4.368-2.52c-1.078-0.624-2.459-0.254-3.084,0.826l-5.002,8.666
				c-0.623,1.078-0.254,2.459,0.826,3.082l4.361,2.519c-0.844,2.834-1.299,5.835-1.299,8.942c0,3.106,0.455,6.109,1.299,8.942
				l-4.359,2.519c-1.081,0.623-1.451,2.003-0.828,3.083l5.002,8.667c0.625,1.078,2.006,1.448,3.084,0.826l4.368-2.522
				c4.115,4.348,9.463,7.516,15.482,8.945v5.035c0,1.248,1.011,2.26,2.258,2.26h10.006c1.247,0,2.258-1.012,2.258-2.26v-5.034
				c6.02-1.431,11.368-4.598,15.482-8.946l4.367,2.522c1.079,0.622,2.459,0.252,3.085-0.826l5.003-8.667
				C291.304,280.258,290.935,278.878,289.853,278.255z M255.483,283.916c-9.455,0-17.122-7.666-17.122-17.122
				c0-9.457,7.667-17.122,17.122-17.122c9.457,0,17.123,7.665,17.123,17.122C272.606,276.25,264.94,283.916,255.483,283.916z"/>
		</g>
	</g>
</g>
</svg>
