<?xml version="1.0" encoding="utf-8"?>
<!-- Generator: Adobe Illustrator 22.0.1, SVG Export Plug-In . SVG Version: 6.00 Build 0)  -->
<svg version="1.1" id="Layer_1" xmlns="http://www.w3.org/2000/svg" xmlns:xlink="http://www.w3.org/1999/xlink" x="0px" y="0px"
	 viewBox="0 0 512 512" style="enable-background:new 0 0 512 512;" xml:space="preserve">
<style type="text/css">
	.st0{fill:#EDF3FC;}
	.st1{fill:#5D8EF9;}
	.st2{fill:#FFBE1B;}
	.st3{fill:#330D84;}
	.st4{fill:#6857E5;}
	.st5{fill:#FFFFFF;}
	.st6{fill:url(#SVGID_1_);}
	.st7{fill:url(#SVGID_2_);}
	.st8{fill:#FFE37B;}
	.st9{fill:#8AC9F9;}
	.st10{fill:#5932AE;}
	.st11{fill:url(#SVGID_3_);}
</style>
<g>
	<g>
		<g>
			<path class="st0" d="M255.998,40.931c-118.773,0-215.068,96.29-215.068,215.068S137.225,471.07,255.998,471.07
				c118.783,0,215.076-96.293,215.076-215.071S374.781,40.931,255.998,40.931z"/>
		</g>
	</g>
	<g>
		<g>
			<path class="st0" d="M255.998,1C115.391,1,1,115.394,1,255.999C1,396.605,115.391,511,255.998,511
				C396.607,511,511,396.605,511,255.999C511,115.394,396.607,1,255.998,1z M255.998,502.827
				c-136.102,0-246.829-110.727-246.829-246.828c0-136.101,110.728-246.83,246.829-246.83c136.104,0,246.833,110.729,246.833,246.83
				C502.831,392.101,392.102,502.827,255.998,502.827z"/>
		</g>
	</g>
	<g>
		<g>
			<path class="st3" d="M365.738,151.955H146.268c-13.893,0-25.156,11.262-25.156,25.148v157.789
				c0,13.892,11.264,25.152,25.156,25.152h219.471c13.891,0,25.15-11.261,25.15-25.152V177.104
				C390.889,163.217,379.629,151.955,365.738,151.955z"/>
		</g>
	</g>
	<g>
		<g>
			<circle class="st5" cx="300.422" cy="173.584" r="7.5"/>
		</g>
	</g>
	<g>
		<g>
			<path class="st5" d="M330.867,166.084c-4.146,0-7.502,3.357-7.502,7.5s3.355,7.5,7.502,7.5c4.141,0,7.5-3.357,7.5-7.5
				S335.008,166.084,330.867,166.084z"/>
		</g>
	</g>
	<g>
		<g>
			<circle class="st5" cx="361.309" cy="173.584" r="7.5"/>
		</g>
	</g>
	<g>
		<g>
			<path class="st4" d="M121.111,196.602v138.291c0,13.892,11.264,25.152,25.156,25.152h219.471c13.891,0,25.15-11.261,25.15-25.152
				V196.602H121.111z"/>
		</g>
	</g>
	<g>
		<g>
			<path class="st3" d="M254.114,110.437c-10.326-2.586-18.395-10.656-20.982-20.98l-0.441-1.763l-0.439,1.763
				c-2.59,10.324-10.658,18.395-20.982,20.98l-1.766,0.441l1.766,0.441c10.324,2.59,18.393,10.656,20.982,20.983l0.439,1.76
				l0.441-1.76c2.588-10.327,10.656-18.394,20.982-20.983l1.766-0.441L254.114,110.437z"/>
		</g>
	</g>
	<g>
		<g>
			<path class="st3" d="M171.884,125.774c-6.763-1.696-12.048-6.979-13.741-13.741l-0.29-1.155l-0.288,1.155
				c-1.695,6.762-6.98,12.045-13.742,13.741l-1.156,0.289l1.156,0.289c6.762,1.696,12.047,6.979,13.742,13.742l0.288,1.152
				l0.29-1.152c1.693-6.764,6.979-12.046,13.741-13.742l1.157-0.289L171.884,125.774z"/>
		</g>
	</g>
	<g>
		<g>
			<path class="st3" d="M339.49,391.829c-7.776-1.946-13.848-8.017-15.793-15.789l-0.332-1.326l-0.334,1.326
				c-1.947,7.772-8.016,13.843-15.792,15.789l-1.323,0.333l1.323,0.331c7.776,1.946,13.845,8.017,15.792,15.794l0.334,1.322
				l0.332-1.322c1.945-7.777,8.017-13.848,15.793-15.794l1.323-0.331L339.49,391.829z"/>
		</g>
	</g>
	<g>
		<g>
			<path class="st3" d="M284.072,404.302c-13.535-3.391-24.103-13.959-27.496-27.491L256,374.502l-0.584,2.308
				c-3.389,13.532-13.953,24.101-27.486,27.491l-2.307,0.58l2.307,0.58c13.533,3.385,24.098,13.951,27.486,27.49L256,435.26
				l0.576-2.308c3.393-13.539,13.961-24.105,27.496-27.49l2.309-0.58L284.072,404.302z"/>
		</g>
	</g>
	<g>
		<g>
			<polygon class="st5" points="195.68,219.33 174.719,229.207 174.719,235.115 195.68,244.992 195.68,238.608 181.836,232.054 
				195.68,225.67 			"/>
		</g>
	</g>
	<g>
		<g>
			<polygon class="st5" points="218.108,214.456 200.036,254.006 206.117,254.006 224.23,214.456 			"/>
		</g>
	</g>
	<g>
		<g>
			<polygon class="st5" points="228.546,219.33 228.546,225.67 242.389,232.054 228.546,238.608 228.546,244.992 249.507,235.115 
				249.507,229.207 			"/>
		</g>
	</g>
	<g>
		<g>
			<path class="st5" d="M251.184,269.41h-78.143c-2.762,0-5,2.238-5,5c0,2.762,2.238,5,5,5h78.143c2.762,0,5-2.238,5-5
				C256.184,271.648,253.945,269.41,251.184,269.41z"/>
		</g>
	</g>
	<g>
		<g>
			<path class="st5" d="M251.184,290.248h-78.143c-2.762,0-5,2.238-5,5c0,2.762,2.238,5,5,5h78.143c2.762,0,5-2.238,5-5
				C256.184,292.486,253.945,290.248,251.184,290.248z"/>
		</g>
	</g>
	<g>
		<g>
			<path class="st5" d="M251.184,311.088h-78.143c-2.762,0-5,2.238-5,5c0,2.762,2.238,5,5,5h78.143c2.762,0,5-2.238,5-5
				C256.184,313.326,253.945,311.088,251.184,311.088z"/>
		</g>
	</g>
	<g>
		<g>
			<polygon class="st5" points="329.191,213.259 294.058,213.259 310.028,242.159 345.162,242.159 			"/>
		</g>
	</g>
	<g>
		<g>
			<polygon class="st5" points="294.058,213.259 277.662,242.159 294.058,270.971 310.028,242.159 			"/>
		</g>
	</g>
	<g>
		<g>
			<polygon class="st5" points="311.2,288.383 276.066,288.383 292.036,317.284 327.17,317.284 			"/>
		</g>
	</g>
	<g>
		<g>
			<polygon class="st5" points="327.17,259.571 311.2,288.383 327.17,317.284 343.566,288.383 			"/>
		</g>
	</g>
</g>
</svg>
