<svg xmlns="http://www.w3.org/2000/svg" viewBox="0 0 580.91 206.45"><defs><style>.cls-1{fill:#fff;}</style></defs><title>资源 1</title><g id="图层_2" data-name="图层 2"><g id="图层_6" data-name="图层 6"><path class="cls-1" d="M365.53,97l-.42-.48a1.89,1.89,0,0,0,.15-1,6.68,6.68,0,0,0-.95-2.44l-.23-.17v-.11c-.11-4.08-4-3.45-6.1-5l-.6-.08-.53-.08c-.06-.15-.13-.29-.19-.44-.14-.36-.28-.72-.45-1.07a17.74,17.74,0,0,1-.66-2.07c-.28-3.44-.55-6.87-.83-10.31a.79.79,0,0,0-.54-.88,1.16,1.16,0,0,0,.26-.24,4.63,4.63,0,0,0,.37-3.48c-.59-1.75-.27-3.58-.47-5.36-.16-1.33.26-3.09-1.72-3.45,0,0,0,0,.05,0,.72-2.57.22-4.42-2.58-4.87a1.83,1.83,0,0,0-1-2.13,3.31,3.31,0,0,0-3.1.7c-2.48,3.51-3.7,7.85-7.17,10.73-.9.74-.68,2.32-.67,3.57.11,3,1,5.84.77,8.83.26,3.3-.49,6.62.12,9.92a5.58,5.58,0,0,0-2.44,0c-1.79.6-3.7.3-5.51.76a13.56,13.56,0,0,1-4.74.51,11.58,11.58,0,0,0-1.76.13,6.82,6.82,0,0,1-3.85.08c-2-.38-4,.4-6-.06a50.37,50.37,0,0,0-6.38-.19h-.83a3.21,3.21,0,0,0-3.91-.1l-.29,0a2.14,2.14,0,0,0-1.19.39c-3.84.08-8.91,3.1-9.72-4.12v0c1.17-7.85-1.69-15-4.17-22.09-1.19-3.39-9.41-2.89-11.49.32a1,1,0,0,0-1.05,0,1.25,1.25,0,0,0-.44.2c-.36,3.54-1.45,7.21-.93,10.61A185.86,185.86,0,0,1,276,95.31l-.06,2.6a1,1,0,0,0,.17,1.62c.77.7.6,1.66.66,2.55v10h0c0,1.39,1.22,2.35,1.6,3.6l.12.68a2.44,2.44,0,0,1-.11.73c.23,1.11-.28,2.4.76,3.33h0l.23-.06h0l0,4.19a1.62,1.62,0,0,1,.51.14h0c.07,1.74.09,3.55,2.66,2.23l-.05.18c1.29,2.67.69,6.11,3.28,8.26h0c.9,1.82,2.62,2.81,4,4.1l2.53.94h0c0,.53,0,1.06.07,1.59,1.42.15,2.67,0,3.23-1.64a2.73,2.73,0,0,1,1.62-2.51c0-1.38,0-2.75,0-4.13a3.31,3.31,0,0,0,.36-2.34c.13-.43.26-.86.4-1.28a8.22,8.22,0,0,0,.1-3.24c-1.06-3.78-1-7.66-.93-11.53-.65-1.75-.28-3.57-.41-5.36s.32-3.59-.52-5.18l0-.1a10.82,10.82,0,0,1,1.78-2,2.81,2.81,0,0,0,.31.1c1.92.11,3.48-1.18,5.3-1.45,5.16-.24,10.33,1,15.49-.09-.21,1.67,1.11,2.2,2.53,2.66a25.26,25.26,0,0,1,5,.72,10,10,0,0,0,2.38.09,48.34,48.34,0,0,1,7.61.27l1,.23c1.53,1.57,1.12,3.63,1.36,5.53a11.12,11.12,0,0,0,.35,2.37c.27,1,.43,2.06.68,3.08l0,.93c-.71,1-.35,2.19-.29,3.31.67,1-.28,3.13,1.59,3.37l-.14.18a3.28,3.28,0,0,0-.16,1.78c1.55,4.61,3.11,9.21,7.53,12,2.94.79,5.76.93,8.09-1.55.69-.87,1.19-1.86,1.8-2.79,1.3-2.1,2.74-4.19-.12-6.21h-.15a1.12,1.12,0,0,0,.32-.27c1.4-4.57.2-9.13-.05-13.69,0-1.76-.37-3.55.36-5.26,1-2,3.07-2.72,4.78-3.85C365.93,102.15,367.41,100.05,365.53,97Zm-80.76,18a4.19,4.19,0,0,0-.3-.44C284.61,114.53,284.78,114.52,284.77,115.05ZM349.18,111c-.09-.26-.16-.5-.23-.75a2.7,2.7,0,0,0,.44.07C349.32,110.53,349.26,110.76,349.18,111Zm9-18s0,0,0,0h0Zm-32.91-.86h0l-.59.31a3.18,3.18,0,0,1-.1-.33Zm-42.71,34.82Z"/><path class="cls-1" d="M263,65c1.11-1.51.79-3.22.67-4.9-.29-1-.6-2.09-1.79-2.52-.65-.43-.81-2.3-2.14-.73l.07.08c-.32-.14-.41-.59-.62-.87-.87-1.68-1.84.73-2.75,0,.07-.86.14-1.67.21-2.48-.74-.65-1.38-.18-2.07.15a51.17,51.17,0,0,1-6.93,2.41l-.11,0c0-.1,0-.21,0-.31l-2.26,1.08-.54.21-.82.94h0a2.35,2.35,0,0,0-.54.06l-.39.52c-2.29,0-2,2.63-3.49,3.41h0c-.88.25-1.94-.06-2.64.8h0a3.18,3.18,0,0,0-2.56.88c-1,.87-1.85.53-2.66-.29a.73.73,0,0,0-.21-.16v0c-.11-1.14,1.57-1.59,1.13-2.87a2.09,2.09,0,0,1-.5,0c-.88-.16-1.19.55-1.64,1.06,0,.08-.09.16-.13.25l-.36.05h0l-.27-.3-1,.22A16.68,16.68,0,0,0,223.31,65a2.28,2.28,0,0,1-2.11.56c-2.67.75-4.12,3.56-6.92,4.09a1.69,1.69,0,0,0-.06.55h0c-1.7,1.5-4.5,1.79-5.1,4.52a.83.83,0,0,0-1,.06c-.09.38-.19.77-.29,1.16C206.34,77.13,204,77.52,204,80h0l-2.8,3.44c-1.06.69-1.08,2-1.8,2.91l-.66-.07L197.06,88a11.91,11.91,0,0,0-1.71,2.87c-1.13,0-1.16.84-1.27,1.62l.12.1h0c0,1-.7,1.57-1.22,2.26a3.81,3.81,0,0,0-.43,1s0,.08,0,.13a.83.83,0,0,0-.55,1.11c.13.25.25.5.37.75a3.7,3.7,0,0,1-.34.73,1.39,1.39,0,0,0,.45,1.43,1.26,1.26,0,0,1,.55,1.14h0a8.56,8.56,0,0,0-.23,4.45,44.52,44.52,0,0,1,.76,6.46l0,.4v0c0,1.54,0,3.08,0,4.61,1,1.54,2.83,1.82,4.33,2.57.13.15.24.3.37.44s.25.25.38.37c0,1.21,0,2.41,0,3.61-.17.44.08.72.39,1l.18.09a.24.24,0,0,1,0,.08c.59.23,1,.77,1.59,1a3.59,3.59,0,0,1,.51.64,1.49,1.49,0,0,0,1.89.2l0,0,0,.12a2.41,2.41,0,0,0,1.3.58.91.91,0,0,0,.45-.22c0,1.57.89,2.25,2.43,2.24l.48,0a2.9,2.9,0,0,1,.27.41c.72.39,1.3.41,1.67-.16l.3.08a2.93,2.93,0,0,0,1.94-.39l.08,0c1.18.95.72,2.64,1.64,3.7a4.28,4.28,0,0,0,.82.93,41.81,41.81,0,0,0,8.2,3.66c3,.88,5.79,2.28,9,2.3,1.78-.2,3.33.93,5.09.83l.58-.08a2.39,2.39,0,0,0,1.65.4c1.8,0,3.54.4,5.32.5a4,4,0,0,0,.91-.16,2.48,2.48,0,0,0,1.72-1.35,2.84,2.84,0,0,1,.49-1,1.45,1.45,0,0,0,.41,1.11c1.71,2,2.7-.35,3.84-.92s.64-1.11,0-1.56a3.83,3.83,0,0,1,1-.12H253c.31,1,.08,2.43,1.92,2.1a.57.57,0,0,0,.71.06,3.76,3.76,0,0,0,.31-.5c.47-.53.8-1.41,1.81-.69a1.7,1.7,0,0,0,.1-.32l.08.05c2.54-.08,3.08-2.34,4.27-3.89.33-1.08-.14-2.1-.26-3.15-.33-1.19-.85-2.11-2.34-1.47l-.36.41a2.45,2.45,0,0,0-.73.3,10.3,10.3,0,0,1-1.74.79c-1.25,0-2.15-.73-2.48-2.65-.45-.57-1-1-1.74-.55a1.67,1.67,0,0,0-.35.54l-.47-.21a1,1,0,0,1,0-.1,1.1,1.1,0,0,0-1.3-.22c-.61.87.68,2.86-1.2,3a2.29,2.29,0,0,0-.07-.34,4.17,4.17,0,0,0-.33-.75c-.89-1.17-1.53-2.85-3.52-1.78l-.16-.2c-1.36-.64-2.67-.85-3.86.29a.72.72,0,0,0-.18-.26c-1.42-.84-2.81-.42-4.19.1-2,.93-3.34-.36-4.78-1.35a3.91,3.91,0,0,0-.75-.26,5.15,5.15,0,0,0-1.24-.09,3.49,3.49,0,0,0-.92.18l-.32-.18c-1.4-.82-3.12-.69-4.54-1.49-.62-.26-1.12-.74-1.73-1a5.93,5.93,0,0,0-3.36.32,2.62,2.62,0,0,0-.1-2.17,6.72,6.72,0,0,0-3-1.89,13.14,13.14,0,0,1-3-1.53c-.84-.56-1.68-1.27-2.76-.88a1,1,0,0,0-.2-.54,2.18,2.18,0,0,0-1-.49,2.34,2.34,0,0,1-1-.28l-.81-.8h-.18c-.07-.07-.14-.13-.2-.2a2.93,2.93,0,0,0-.67-.37l-.06,0c0-.9-.15-1.68-1.27-1.71a4.8,4.8,0,0,0-.12-.64,9.24,9.24,0,0,0-.54-1.44c-.31-.42-.59-.9-1.12-.87-.13-.47-.27-.94-.41-1.4a26.72,26.72,0,0,1-.69-2.91,1,1,0,0,0,0-.17,6,6,0,0,0,.36-2.62c-.29-2.22.72-4.37.36-6.59a1.3,1.3,0,0,0-.37-1h0a1,1,0,0,0-.15-.75l-.09-.89a14.29,14.29,0,0,0,4.9-4.34c.22-.31.44-.62.65-1a7.17,7.17,0,0,1,2.64-2.49,5.59,5.59,0,0,0,.57-.51c2.59-2.22,4.17-5.51,7.41-7.06a4.83,4.83,0,0,0,.5-.77l.45-.18a.86.86,0,0,0,.36.17,17.58,17.58,0,0,0,2.41-1.12c1-.65,2-1.22,2.38-2.41.3-.06.45-.42.66-.65l.34-.34c.15,0,.29.13.44.17a2.24,2.24,0,0,0,1.15,0c.78-.49,1.55-1.09,2.39-.1a1.22,1.22,0,0,0,1-.29,1,1,0,0,0,.14.15.86.86,0,0,0,1,0,.67.67,0,0,0,.09-.61.79.79,0,0,0,.4-.1,2.35,2.35,0,0,1,.19.25,1.77,1.77,0,0,0,1.06.19,2.12,2.12,0,0,0,1.44-1l-.15-.64a2.31,2.31,0,0,0,.78-.57.68.68,0,0,0,0,.28,1.55,1.55,0,0,0,.89.68,2.06,2.06,0,0,0,1.75-.57,3.17,3.17,0,0,0,.86-1.11l.17,0a1.61,1.61,0,0,0,.92-.19.31.31,0,0,0,0,.11.57.57,0,0,0,.24.45,1.08,1.08,0,0,0,1.14-.2,1.82,1.82,0,0,0,.24-.43,3.33,3.33,0,0,0,1.91-.22,2.27,2.27,0,0,0,.42-.33.8.8,0,0,0,.82.58,22.75,22.75,0,0,0,5.25-2.24,2.33,2.33,0,0,0,.24.65,3.4,3.4,0,0,0,3,1.49A3.31,3.31,0,0,0,254.4,70l.24-.18c.68.39,1.33,0,2-.29a14.94,14.94,0,0,0,2.57-2.39l.08-.12a2.36,2.36,0,0,0,.28.12,11.13,11.13,0,0,1,2.79.55,1,1,0,0,0,.63-.33,3.49,3.49,0,0,0-.43-2C262.68,65.23,262.82,65.13,263,65Zm-27.45,5.3h0l-.09-.11h0l.1.11ZM197.66,95.38l0,0-.08,0Zm11.42,29.84c0-.07,0-.13-.05-.2.06.1.12.19.17.29A.94.94,0,0,1,209.08,125.22Zm36.2-67h0Zm-.07,0a1.21,1.21,0,0,1-.27.5,2.67,2.67,0,0,1,.07-.52l.2,0ZM224,71.93h0Zm-19.15,54.49.07-.16v.16h-.07Zm53.55,9.15h0v0l0,0,0,0Z"/><path class="cls-1" d="M432.21,129.92c0-2.63-.72-5.2-.74-7.82-.68-1.56,0-3.35-.85-4.89l-.34-.31c-.58-.82-.37-1.77-.41-2.68-.42-9.12.15-18.22.6-27.32A3.25,3.25,0,0,0,431,84c-1.24-6-2.48-12-2.14-18.27a4.35,4.35,0,0,0-1.51-4c-1.32-2.4-.32-5.36-1.85-7.71a1.63,1.63,0,0,0-.72-.52,5.39,5.39,0,0,0-3.23,0,2.45,2.45,0,0,1-.64-.14,2.84,2.84,0,0,0-1.76,1.21l-1,.57a2.23,2.23,0,0,0-.71.5s0,.06,0,.09a.66.66,0,0,0-.55-.15,13.37,13.37,0,0,0-3,2.67l-.29.36a1.21,1.21,0,0,0-.54.42c-.35.23-.64.48-.59.92l-.19.22c-.86.94-.55,2.22-.92,3.29-1-.22-1.83.38-2.7.76a6.17,6.17,0,0,0-1.38,1.27,5.23,5.23,0,0,0-.41.63c-.27.64-.94,1.22-.63,2l-.22.19c-1.06,1.15-2.37,2.09-3,3.62h0c-.34.11-.7.17-.65-.72a6.45,6.45,0,0,0-.79-3.72h0c0-.1,0-.21-.05-.31,1.09-2.13-.53-4.07-.64-6.11a1.85,1.85,0,0,0-.81-1,1,1,0,0,0-.52,0v0c-.74-1.72-2.35-1.88-3.87-2.18-1.38.06-2.91-.37-3.76,1.26a3.49,3.49,0,0,0-1.34.87l-.16.18c-.81-.1-1.43.52-2.15.78a1.32,1.32,0,0,0-.46.65c.16,1.13-.37,2.16-.47,3.25a5.35,5.35,0,0,1-.11,2.94c-.29.82-.5,1.62.19,2.29h0c-.43.32-.76.69-.49,1.28,1.1,4.11-1.32,7.74-1.61,11.66l-.66,1c-.87,1.24-.07,2.22.43,3.25a8.21,8.21,0,0,1-.23,2,3.52,3.52,0,0,0-.07.79.93.93,0,0,0-.44.25,5.68,5.68,0,0,0-1,2.52c-1.16,4.38-.47,9.11-2.45,13.33a4.18,4.18,0,0,0,0,2.22,3.18,3.18,0,0,0-2.1,1.07,6,6,0,0,0-1.22,2.11c-.36,2.68-1.28,5.33-.35,8.08.24.7-.4,1.16-.66,1.72a3.27,3.27,0,0,0-.26.82c-.09,1.19-.3,2.4.45,3.49.07,0,.13,0,.19.08h0a2,2,0,0,0-1.23,2c0,2.53-.46,5.08.22,7.6a1.22,1.22,0,0,0,.56.58c.38,1.19,1.68,1.57,2.32,2.53.73,1.7,2.19-.13,3.11.65l.59.09c1.5-.69,3.11-1.23,4-2.81a3.13,3.13,0,0,0-.43-3.6l.24-.2a2.86,2.86,0,0,0,.68-1.18c.55-2.08-.17-4.29.6-6.36a30,30,0,0,0,.08-5.76,2.08,2.08,0,0,0-.54-1.16s0-.1,0-.14l.11-.1c1.31-2.35,1.11-5.19,2.3-7.53a21.37,21.37,0,0,0,2.09-8.41,13,13,0,0,1,1-5.61c.11-1.2.82-2.4.41-3.59.68-.41,1.12.12,1.61.47,4.88,4.18,6.87,4.09,10.94-.54,1.3-1.81,1.48-4.19,3-5.88,2-2.1,3.13-4.72,4.35-7.29.63-1.22,1.49-2.29,2.13-3.51a5.71,5.71,0,0,0,.3-.67c.43-1.21,1.77-1.75,2.19-3a1.7,1.7,0,0,1,.38,1.58c-.93,2.76-.49,5.62-.87,8.41h0c-.47,1.94.5,3.76.48,5.67a.49.49,0,0,0,.1.13,1.37,1.37,0,0,0,.48,1.42c.95.71,2.37,1.13,2.33,2.47a5.32,5.32,0,0,0-1,.92c-3.05,4.2-2.08,9-1.86,13.61a.93.93,0,0,0,.91.94,1.52,1.52,0,0,0-.24.77c.07.93-.38,1.9.15,2.78a7.45,7.45,0,0,1-.32.7c-.73,4.34.63,8.61.47,12.94,1,3.52.09,7.15.61,10.71.67,1.55.58,3.48,2.33,4.47.92.24.76,1.11,1.07,1.74.68,1.36,1.21,3.11,3.38,2.56h0c3.35-.79,4.66-3.54,6-6.26a.62.62,0,0,1,.05-.4C432.61,135,432.17,132.43,432.21,129.92Zm-54.72,5.89h-.09l.13-.07h0l-.06.08Zm2.82-23.41h0v0s0,0,0,0h0ZM408,67.33ZM424.77,93h0Zm4.45,30v0s0,0,0,0Zm-1.13-22.27h0ZM419.21,98v0h.06Zm1.49,11.19.12-.06h0a.24.24,0,0,1,0,.08Z"/><path class="cls-1" d="M290.9,184h9.74c2,.06,3-.94,2.95-3v-4.4H290.9Zm2.68-5.49h7.32V181c0,.86-.38,1.28-1.16,1.28h-6.16Zm-7.6,6h2.59v-16.4a16,16,0,0,0,1.61-4.58h-2.77a9.67,9.67,0,0,1-3.57,6.6V172a11.25,11.25,0,0,0,2.14-1Zm4.92-10h12.69v-1.84H290.9Zm-86.59,10.17v-6.14h4.55q3.31.09,3.22-3.67v-7.78h-7.77v-3.76h-3v3.76H193.5v11.45h7.77v6.14Zm0-15.58h5v6c0,1-.45,1.46-1.34,1.46h-3.66Zm-8.05,7.42V169.2h5v7.42Zm94.64-5.68h12.69v-1.83H290.9Zm15.9,12.64h2.51a27.37,27.37,0,0,0,1.51-6H308.5A26.82,26.82,0,0,1,306.8,183.58Zm16.53-2.65h-2.14v.36c0,.74-.42,1.1-1.25,1.1h-3.75c-1.14.13-1.64-.36-1.52-1.46v-3.3H311.9v3.94q-.09,2.84,3,2.75h5.8c1.85.06,2.74-.8,2.68-2.57Zm-5.27-.28h2.59a7.73,7.73,0,0,0-1.16-3H317A9.67,9.67,0,0,1,318.06,180.65Zm-82.83.28V164.35h-19v19.79H232.1C234.24,184.19,235.28,183.13,235.23,180.93Zm-4.38,1.46h-11.8V166.27h13.32v14.57C232.43,181.88,231.92,182.39,230.85,182.39ZM478,164.16H476a14.61,14.61,0,0,1-.8,3.21h2A9.65,9.65,0,0,0,478,164.16Zm-7.51,3.21a14.61,14.61,0,0,1-.8-3.21h-2.06a9.65,9.65,0,0,0,.9,3.21Zm-112.59-.55h2.41a12.91,12.91,0,0,1-2.77,4.58v1.83h2.86v3.3a8.64,8.64,0,0,1-.36,2.66,23.4,23.4,0,0,1-1.07-4.4h-1.88q.54,4.49,1.88,6.41a6.34,6.34,0,0,1-1.88,1.56v1.83a13.48,13.48,0,0,0,3.13-2.1,7.8,7.8,0,0,0,4.92,1.46h7.95V182.3h-7.87a5.45,5.45,0,0,1-3.75-1.19,9.66,9.66,0,0,0,1-5V171.4h-2.68a12.62,12.62,0,0,0,2.95-4.58V165h-4.82Zm160.76-.55a14,14,0,0,0-1.08-2.66H515a13.5,13.5,0,0,1,1,2.66ZM346.12,180.56c.06,1.28-.53,1.89-1.79,1.83h-2.85v1.93h3.84q3.84.09,3.75-3.67v-8.88H335.13c.18-1.16.36-2.42.54-3.76h14.47v-2H335.85a7.4,7.4,0,0,0,.08-1.29,10.14,10.14,0,0,0,.09-1.19h-3a46.43,46.43,0,0,1-.63,8.16v2.1h13.76Zm178.54-14.29a8.93,8.93,0,0,0-1.07-2.66h-2.5a11.1,11.1,0,0,1,.89,2.66ZM516,168.65h14.12v2.11h2.68v-3.94h-3.3a12,12,0,0,0,1.7-3.21h-2.77a18.16,18.16,0,0,1-1.43,3.21H513.31v3.94H516Zm-24,7.42v5.59c0,.67-.33,1-1,.92h-.71v1.83h1.61c1.66.06,2.5-.79,2.5-2.57v-6.5c.54-.18,1.07-.4,1.61-.64v-1.83a16.13,16.13,0,0,1-1.61.45v-4.67h1.7v-1.83h-1.7v-3.21H492v3.21h-2v1.83h2V174l-2.15.27v2.29q.36-.09,1-.18C491.27,176.23,491.66,176.13,492,176.07Zm-125.82-7.88h-3.58v1.65h3.58v1.65h-2.77v1.56h2.77v1.56h-2.95v1.65h2.95V178h-3.4v1.65h3.4v2h2.32v-2h4.29V178h-4.29v-1.74h3.93v-1.65h-3.93v-1.56h1.16c1.73.06,2.56-.83,2.51-2.66v-.55h1.16v-1.65h-1.16V165h-3.67v-1.47h-2.32V165h-2.68v1.55h2.68Zm2.32-1.65h1.7v1.65h-1.7Zm0,3.3h1.7v.55a1,1,0,0,1-1.07,1.1h-.63Zm-141.54,4.68h3.93v-1.84h-3.93v-2.75h4.37V168.1H220v1.83h4v2.75h-3.67v1.84h3.67v4h-4.29v1.83h11.79v-1.83h-4.64Zm39.31-6h4.29v5.31h-7.15v2h7.15v6.05h-9.11v1.74h20.46v-1.74h-8.31v-6.05h6.61v-2h-6.61v-5.31h7.24v-2h-7.24v-3h-3v3h-3.3a.94.94,0,0,1,.17-.45c.18-.8.33-1.44.45-1.93h-2.95a8.18,8.18,0,0,1-3.75,6.32v1.74A9.56,9.56,0,0,0,266.23,168.56Zm78.37,8.34h-15v2h15ZM228.7,178h2.06a8.07,8.07,0,0,0-1-2.84H227.9A15.13,15.13,0,0,1,228.7,178Zm30.12,3.75H248.18V166.82h6.44v7.24a1.28,1.28,0,0,1-1.43,1.46H251.4v2.11h2.77c2.26.06,3.37-1.1,3.31-3.48v-9.44H239.34v2.11h5.72v14.93h-6.8v1.83h20.56Zm66.12,1.83h2.59a25.6,25.6,0,0,0-2-6h-2.32A24.46,24.46,0,0,1,324.94,183.58Zm.36-10.07v-8.43h-7.42a8.15,8.15,0,0,0,.45-1.56h-3c-.06.25-.12.58-.18,1a1.36,1.36,0,0,0-.17.55H309v11.54h13.22C324.35,176.68,325.36,175.65,325.3,173.51Zm-13.4-6.6h10.54v1.56H311.9Zm0,3.12h10.54v1.55H311.9Zm9.29,4.76H311.9v-1.65h10.54v.37C322.5,174.36,322.08,174.79,321.19,174.79ZM290,167.28h14.66v-1.93h-5.81v-1.74h-3.13v1.74H290Zm249.94,5.13h11.8v-1.93H540.12a19.12,19.12,0,0,0,5.81-4.3,19.12,19.12,0,0,0,5.81,4.3,28.2,28.2,0,0,0,4.64,1.84v-1.84a17.81,17.81,0,0,1-8.93-7.14h-3.13a18.35,18.35,0,0,1-8.85,7.14v1.84a22.27,22.27,0,0,0,4.47-1.84Zm-85.43,3.75q2.5,5.51,10.19,8.43v-1.92q-8-3.94-8.58-12.46h8.22V168.1H456v-4.49h-3.21v4.49h-8.31v2.11h8.22q-.36,8.34-8.58,12.46v1.92Q451.92,181.66,454.51,176.16ZM435,163.52h-3.21v1.74h-7.6v3a9.69,9.69,0,0,0-2.86-.55v2.38a9.69,9.69,0,0,1,2.86.55v3.75a18.83,18.83,0,0,1-2.86.55v2.29a7,7,0,0,0,2.86-.55v.55a6.27,6.27,0,0,1-2,5.41v2q5.36-2.48,5-8.88v-8.52h14.65v-2H435Zm-6.7,8.06h8.85a10.42,10.42,0,0,1-3.49,3.12v6.41c.06.92-.41,1.34-1.43,1.28H431v1.93h2.33q3.39.09,3.3-3.12v-5.95a12.88,12.88,0,0,0,4.2-3.67v-1.92H428.33Zm96.78,7.06h8.13v-2h-8.13v-.55a18.06,18.06,0,0,0,5.09-3v-1.92H516v1.92h10.1a18.84,18.84,0,0,1-4.11,2.56v1h-9.11v2H522v2.65c.06,1-.45,1.44-1.52,1.38h-1.52v1.92h2.77q3.49,0,3.4-3.3Zm-145.57,4.85a15.87,15.87,0,0,0,6-2.93v-1.92c-.54.36-1.07.7-1.61,1a8.69,8.69,0,0,1-.71-2.39h-2.33A8.78,8.78,0,0,0,382,180.1h.81a31.51,31.51,0,0,1-3.31,1.29Zm103.21-2.56a22.17,22.17,0,0,0,4.74,3.75v-2.1a12.33,12.33,0,0,1-3.4-3.39q2.32-3.57,2.42-10.81h1.25v-1.93H482.4c.23-.85.44-1.77.62-2.74h-2.59a9.09,9.09,0,0,1-2.32,5.86V168H474v-4.4h-2.33V168h-4.38v1.92h2.06a6.48,6.48,0,0,1-2.15,2.84v1.47a6.5,6.5,0,0,0,4.12-4.31h.35v3.94H474v-3.94h.26a6.49,6.49,0,0,0,4.11,4.4v-1.56a5.68,5.68,0,0,1-2.05-2.84H478v1.56l.89-.46a20.76,20.76,0,0,0,2.5,8.16,14,14,0,0,1-3.39,3.39v2A21.75,21.75,0,0,0,482.75,180.93Zm-1.52-11h-.8a6.75,6.75,0,0,0,1.16-1.55h2.59a22.17,22.17,0,0,1-1.43,8.43A20.64,20.64,0,0,1,481.23,169.93Zm-6.34,12.28a5.93,5.93,0,0,0,2.32-4.76h1.34v-1.84H477.3v-1.46H475v1.46h-4.29v-1.46h-2.32v1.46H467v1.84h1.43a6.12,6.12,0,0,0,2.23,4.67c-1.07.24-2.32.49-3.75.73v1.74a24.28,24.28,0,0,0,5.89-1.46,26.07,26.07,0,0,0,4.83,1.46v-1.74a10.69,10.69,0,0,1-1.25-.36Zm-2.15-1.1a4.5,4.5,0,0,1-2-3.66h4.11A4.55,4.55,0,0,1,472.74,181.11Zm26.54-6.69h4v2.39h-3.75V184h7.24c2,.06,2.92-.85,2.86-2.75v-4.48h-3.84v-2.39h4.73v-1.74h-4.73v-2.2h1.61c1.72.07,2.56-.79,2.5-2.56v-3.39H496.78v10.81c.06,3.11-.53,5.53-1.79,7.24v2.1q4.56-3.1,4.29-10Zm8.05,4.22v2.47c.05.86-.36,1.28-1.25,1.28H502v-3.75Zm-8.05-12.28h8.31v1.38c.06.67-.26,1-1,1h-7.33Zm0,4.12h4v2.2h-4ZM395.8,182.39a18.28,18.28,0,0,1-3.84-2.1h.81a10.39,10.39,0,0,0,1.16-3.12h-2.32a9.68,9.68,0,0,1-.54,2.11.69.69,0,0,0-.09.27,30.49,30.49,0,0,1-2.41-2.56v-.37h3c1.84.06,2.73-.85,2.68-2.75v-.55h1.87v-1.74h-1.87v-3.2h-5.72v-1.19H386v1.19h-5.1v1.74H386v1.46h-6.17v-4.76h16V165h-7.41v-1.47h-3.31V165h-7.95v10.08q.18,5.13-1.52,7.51v2.1a9.82,9.82,0,0,0,3.31-3.93,16.45,16.45,0,0,0,.89-6.23v-1.2H386v1.56H380.7v1.74H386v5c0,.79-.3,1.16-1.08,1.1h-.8v1.74h1.7c1.9.06,2.83-.85,2.77-2.75V180.1q2.06,2.21,7.23,3.94Zm-7.23-12.27h3.3v1.46h-3.3Zm0,3.2h3.3v.28c.06.92-.33,1.34-1.16,1.28h-2.14Zm-32,11.27v-16.4a20.31,20.31,0,0,0,1.34-4.58H355.5q-.71,4.68-3.12,6.6V172a7.79,7.79,0,0,0,1.78-1v13.65Zm45.75-4V166.27h16.26v-1.92H399.47v16.3q-.09,3.3,3.31,3.21h16.08v-1.74H403.94C402.8,182.18,402.27,181.66,402.33,180.56Zm1.34-1v1.65c4.05-1,6.58-2.29,7.59-3.94q1.71,2.67,7.06,3.94v-1.74a8.87,8.87,0,0,1-5.54-4.12h5.37v-1.83h-5.81a4,4,0,0,0,.09-.92v-2h4.82v-1.84H408c.18-.48.36-1,.53-1.64H405.9a4.51,4.51,0,0,1-2.5,3.75v1.47a6.08,6.08,0,0,0,3.4-1.74h2.86v2.93h-6.35v1.83h6C408.7,177.17,406.83,178.58,403.67,179.55Zm148,4.68h2.68a21.78,21.78,0,0,0-2.41-5.68h-2.51a11.88,11.88,0,0,1,1.26,2.65c-2.45.25-5.66.37-9.65.37a16,16,0,0,0,3.84-4.67h10.9v-2H536.1v2h5.45a16.4,16.4,0,0,1-3.48,4.67v2h2a88.72,88.72,0,0,0,11.26-.64A4.06,4.06,0,0,1,551.65,184.23Zm-81.2,11.5q-2.9-.06-3.47,2.48h1.29a2,2,0,0,1,2.13-1.46c1.3-.07,1.92.55,1.86,1.85h-1.81q-3.46,0-3.47,2.68c0,1.49,1.08,2.26,3.14,2.29h3.33V198.4Q473.5,195.73,470.45,195.73Zm1.81,6.82h-2.09c-1.3,0-1.95-.49-1.95-1.37s.71-1.46,2.14-1.46h1.9Zm-7.84-1.17V197H466v-1.12h-1.61v-3h-1.66v3h-1.24V197h1.24v4.53c0,1.4.61,2.08,1.94,2a2.06,2.06,0,0,0,1.48-.54v-.88a1.72,1.72,0,0,1-.91.3C464.67,202.48,464.39,202.12,464.42,201.38ZM351,195.73h-8.31v7.64h1.66v-6.52H346a1.26,1.26,0,0,1,1.43,1.41v5.11h1.61v-6.52h1.43c1.14,0,1.69.53,1.66,1.6v4.92h1.66v-5.11C353.84,196.54,352.9,195.69,351,195.73Zm81.63,3.89q0,3.51,3.94,3.51h1.71c.07,1.53-.74,2.27-2.42,2.24a4,4,0,0,1-2.94-1.36v1.21a4.54,4.54,0,0,0,3.37,1.22c2.5.07,3.72-1.14,3.66-3.6v-7.07h-3.33Q432.72,195.83,432.63,199.62Zm5.65-2.73v5.22H437a2.28,2.28,0,0,1-2.62-2.49,2.44,2.44,0,0,1,2.66-2.73Zm-8.64-2.48h1.66v-1.56h-1.66Zm-232.83-.58a2.63,2.63,0,0,1,2.67,2.24h1.66a4.23,4.23,0,0,0-4.37-3.36q-4.56.28-4.8,5.45.24,5.16,4.8,5.41a4.63,4.63,0,0,0,4.32-2.15v-1.55c-1,1.78-2.34,2.68-3.9,2.68-2.24-.17-3.42-1.61-3.51-4.34C193.77,195.45,194.82,194,196.81,193.83Zm254,1.9h-1.57q-3.84,0-3.89,3.94t3.94,3.85h3.19V192.17h-1.67Zm0,6.77h-1.19c-1.68,0-2.53-.93-2.56-2.78s.85-2.87,2.56-2.87h1.19Zm6.61-6.77c-1.94,0-3.09.79-3.47,2.48h1.28a2,2,0,0,1,2.14-1.46c1.3-.07,1.92.55,1.85,1.85h-1.8c-2.32,0-3.47.89-3.47,2.68,0,1.49,1.07,2.26,3.13,2.29h3.33V198.4C460.41,196.62,459.41,195.73,457.39,195.73Zm1.8,6.82H457.1c-1.3,0-2-.49-2-1.37s.72-1.46,2.14-1.46h1.9Zm49-6.82q-3.66.14-3.8,4c.12,2.43,1.36,3.72,3.7,3.85,2.48-.07,3.74-1.37,3.81-3.9C511.79,197.14,510.56,195.82,508.18,195.73Zm-.05,6.82c-1.33-.1-2-1-2.09-2.83s.73-2.89,2.09-2.92,2,1,2,2.92S509.46,202.48,508.13,202.55Zm29.84.82h1.66v-7.45H538Zm0-9h1.66v-1.56H538Zm-2.8,7V197h1.61v-1.12h-1.61v-3h-1.66v3h-1.24V197h1.24v4.53c0,1.4.61,2.08,1.94,2a2.07,2.07,0,0,0,1.48-.54v-.88a1.72,1.72,0,0,1-.91.3C535.42,202.48,535.14,202.12,535.17,201.38Zm18.34-5.65h-3.76v7.64h1.67v-6.52h1.66c1.2,0,1.81.65,1.81,1.94v4.58h1.61V198.6C556.53,196.65,555.54,195.69,553.51,195.73Zm-8.7,0c-2.44.09-3.7,1.42-3.8,4,.13,2.43,1.36,3.72,3.71,3.85q3.71-.1,3.8-3.9C548.43,197.14,547.19,195.82,544.81,195.73Zm0,6.82c-1.33-.1-2-1-2.09-2.83s.72-2.89,2.09-2.92,2,1,2,2.92S546.1,202.48,544.77,202.55Zm-62.34-9.7-4.09,10.52h1.76l1.09-2.82h4.47l1,2.82h1.81l-4.09-10.52Zm-.86,6.58,1.85-5,1.81,5Zm46.57-3.7c-1.94,0-3.09.79-3.47,2.48H526a2,2,0,0,1,2.14-1.46c1.3-.07,1.91.55,1.85,1.85h-1.8c-2.32,0-3.47.89-3.47,2.68,0,1.49,1.07,2.26,3.13,2.29h3.33V198.4C531.16,196.62,530.16,195.73,528.14,195.73Zm1.8,6.82h-2.09c-1.3,0-2-.49-2-1.37s.72-1.46,2.14-1.46h1.9ZM500.39,199c-1.33-.16-2-.57-1.9-1.22s.47-1,1.42-1,1.44.37,1.57,1.12H503c-.35-1.47-1.41-2.21-3.18-2.24s-2.82.76-2.95,2.09,1.05,2,3.14,2.39c1.17.19,1.72.61,1.66,1.26s-.52,1.08-1.66,1.08a4.29,4.29,0,0,1-3.33-1.76v1.32a4.47,4.47,0,0,0,3.38,1.46c2.21,0,3.3-.72,3.27-2.15C503.27,200.16,502.29,199.36,500.39,199Zm21.28-4.63h1.67v-1.56h-1.67Zm-97.26,1.32h-1.57v-3.56h-1.66v11.35h3.23q3.9,0,3.9-3.85T424.41,195.73Zm-.33,6.77h-1.24v-5.65H424c1.74,0,2.6.92,2.57,2.87S425.76,202.5,424.08,202.5Zm68.7-3.46c-1.33-.16-2-.57-1.9-1.22s.48-1,1.43-1,1.44.37,1.57,1.12h1.52c-.35-1.47-1.41-2.21-3.18-2.24s-2.83.76-3,2.09,1,2,3.14,2.39c1.17.19,1.72.61,1.66,1.26s-.52,1.08-1.66,1.08a4.29,4.29,0,0,1-3.33-1.76v1.32a4.47,4.47,0,0,0,3.37,1.46c2.22,0,3.31-.72,3.28-2.15C495.67,200.16,494.69,199.36,492.78,199Zm24-2.19a1.85,1.85,0,0,1,2,1.46h1.61a3.32,3.32,0,0,0-3.56-2.58q-3.62.14-3.75,4,.18,3.71,3.84,3.85a4.05,4.05,0,0,0,3.47-1.46v-1.37a4,4,0,0,1-3,1.81c-1.68,0-2.53-1-2.56-2.83S515.48,196.94,516.78,196.85Zm4.89,6.52h1.67v-7.45h-1.67Zm-92,0h1.66v-7.45h-1.66Zm-138.13-6.52a1.85,1.85,0,0,1,1.95,1.46h1.62a3.33,3.33,0,0,0-3.57-2.58q-3.61.14-3.75,4c.12,2.47,1.41,3.75,3.85,3.85a4.07,4.07,0,0,0,3.47-1.46v-1.37a4,4,0,0,1-3.05,1.81c-1.68,0-2.53-1-2.56-2.83S290.21,196.94,291.51,196.85Zm76.88,6.52h1.66v-7.45h-1.66Zm-64.1-.05H306v-11.1h-1.67Zm61.3-1.94V197h1.61v-1.12h-1.61v-3h-1.67v3h-1.23V197h1.23v4.53c0,1.4.62,2.08,1.95,2a2,2,0,0,0,1.47-.54v-.88a1.66,1.66,0,0,1-.9.3C365.84,202.48,365.56,202.12,365.59,201.38Zm18.34-5.65h-3.76v7.64h1.67v-6.52h1.66c1.2,0,1.81.65,1.81,1.94v4.58h1.61V198.6C387,196.65,386,195.69,383.93,195.73Zm-84.29,0q-2.89-.06-3.47,2.48h1.28a2,2,0,0,1,2.14-1.46c1.3-.07,1.92.55,1.85,1.85h-1.8c-2.32,0-3.47.89-3.47,2.68,0,1.49,1.07,2.26,3.13,2.29h3.33V198.4C302.66,196.62,301.66,195.73,299.64,195.73Zm1.8,6.82h-2.09c-1.3,0-2-.49-2-1.37s.72-1.46,2.14-1.46h1.9Zm73.79-6.82c-2.44.09-3.7,1.42-3.8,4,.13,2.43,1.36,3.72,3.71,3.85q3.71-.1,3.8-3.9C378.84,197.14,377.61,195.82,375.23,195.73Zm0,6.82c-1.33-.1-2-1-2.09-2.83s.72-2.89,2.09-2.92,2,1,2,2.92S376.52,202.48,375.19,202.55Zm-6.8-8.14h1.66v-1.56h-1.66Zm-56.83,9h1.62V192.85h-1.62Zm25.28-5.06v5.21h1.66v-5.31a1.2,1.2,0,0,1,1.33-1.32h1.86v-1.12h-2.38C337.7,195.77,336.87,196.62,336.84,198.31Zm-13.11-3.71v1.27h-1V197h1v6.33h1.66V197h1.38v-1.12h-1.38v-1.31c0-.88.41-1.3,1.24-1.27h1.14v-1.12h-1.71C324.47,192.14,323.7,193,323.73,194.6Zm8.12,1.13c-2.44.09-3.7,1.42-3.8,4,.13,2.43,1.36,3.72,3.71,3.85,2.47-.07,3.73-1.37,3.8-3.9C335.46,197.14,334.23,195.82,331.85,195.73Zm-.05,6.82c-1.33-.1-2-1-2.09-2.83s.73-2.89,2.09-2.92,2,1,2.05,2.92S333.14,202.48,331.8,202.55Zm26.75-6.82q-2.9-.06-3.46,2.48h1.28a2,2,0,0,1,2.14-1.46c1.3-.07,1.91.55,1.85,1.85h-1.81q-3.46,0-3.46,2.68c0,1.49,1.07,2.26,3.13,2.29h3.33V198.4Q361.6,195.73,358.55,195.73Zm1.81,6.82h-2.09c-1.3,0-1.95-.49-1.95-1.37s.71-1.46,2.14-1.46h1.9Zm-41.86-6.82h-3.75v7.64h1.66v-6.52h1.66c1.21,0,1.81.65,1.81,1.94v4.58h1.61V198.6C321.52,196.65,320.53,195.69,318.5,195.73Zm-107.72,7.64h1.67v-7.45h-1.67ZM242,195.73q-3.66.14-3.75,4,.13,3.64,4,3.8a4.12,4.12,0,0,0,3.42-1.37V201a3.83,3.83,0,0,1-3,1.56,2.42,2.42,0,0,1-2.66-2.39h5.8Q245.76,195.68,242,195.73ZM240,199q.24-2.14,2-2.19a2,2,0,0,1,2.09,2.19Zm-14.3-3.31q-3.66.14-3.76,4,.15,3.64,4,3.8a4.15,4.15,0,0,0,3.43-1.37V201a3.86,3.86,0,0,1-3,1.56,2.42,2.42,0,0,1-2.66-2.39h5.8Q229.46,195.68,225.66,195.73Zm-2,3.31q.24-2.14,2-2.19a2,2,0,0,1,2.09,2.19Zm61-4.63h1.66v-1.56h-1.66ZM234.3,199c-1.33-.16-2-.57-1.9-1.22s.48-1,1.43-1,1.44.37,1.57,1.12h1.52c-.35-1.47-1.41-2.21-3.19-2.24s-2.82.76-2.94,2.09,1,2,3.13,2.39c1.17.19,1.73.61,1.67,1.26s-.53,1.08-1.67,1.08a4.29,4.29,0,0,1-3.32-1.76v1.32a4.47,4.47,0,0,0,3.37,1.46c2.22,0,3.31-.72,3.28-2.15C237.19,200.16,236.2,199.36,234.3,199Zm-28.08-3.31h-2v-3.51h-1.66v11.1h1.66v-6.47h1.42c1.37,0,2,.6,2,1.9v4.57h1.66v-4.87C209.26,196.64,208.25,195.73,206.22,195.73Zm4.56-1.32h1.67v-1.56h-1.67Zm6.94,1.32H214v7.64h1.66v-6.52h1.66c1.21,0,1.81.65,1.81,1.94v4.58h1.61V198.6Q220.77,195.68,217.72,195.73Zm195.86,0H412q-3.86,0-3.9,3.94t3.95,3.85h3.18V192.17h-1.66Zm0,6.77h-1.19c-1.68,0-2.54-.93-2.57-2.78s.86-2.87,2.57-2.87h1.19ZM281.3,195.73h-1.57q-3.86,0-3.9,3.94t3.95,3.85H283V192.17H281.3Zm0,6.77h-1.19c-1.68,0-2.54-.93-2.57-2.78s.86-2.87,2.57-2.87h1.19Zm-20.77-1-3.13-8.62h-2.14v10.52h1.57v-7.84l3,7.79h1.42l3-7.79v7.84h1.57V192.85h-2.09Zm135.09-5.74q-2.89-.06-3.47,2.48h1.28a2,2,0,0,1,2.14-1.46c1.3-.07,1.92.55,1.85,1.85h-1.8c-2.32,0-3.47.89-3.47,2.68,0,1.49,1.07,2.26,3.13,2.29h3.33V198.4C398.64,196.62,397.64,195.73,395.62,195.73Zm1.8,6.82h-2.09c-1.3,0-1.95-.49-1.95-1.37s.72-1.46,2.14-1.46h1.9Zm-112.75.82h1.66v-7.45h-1.66Zm-13.83-7.64q-3.66.14-3.75,4,.14,3.64,4,3.8a4.12,4.12,0,0,0,3.42-1.37V201a3.83,3.83,0,0,1-3,1.56,2.42,2.42,0,0,1-2.66-2.39h5.8Q274.65,195.68,270.84,195.73Zm-2,3.31c.15-1.43.84-2.16,2-2.19A2,2,0,0,1,273,199Zm135-3.31h-3.75v7.64h1.66v-6.52h1.67c1.2,0,1.8.65,1.8,1.94v4.58h1.62V198.6Q406.93,195.68,403.88,195.73Z"/><path class="cls-1" d="M553.51,129l.06,0a1.2,1.2,0,0,0,.14.7c1,.73,1.25,2.31,2.62,2.68l0,.2a4.92,4.92,0,0,0-.27.69,2.3,2.3,0,0,1,.28.54c.84,2.31,6.43-.2,8.06-.61,2.44-.61,3.46-2.46,4.82-4.17a.8.8,0,0,1,0-.31c.28-1.79-.67-3.23-1.17-4.79-.8-.7-.62-2.32-1.89-2.58a10.7,10.7,0,0,1-.58-1.55c-.71-.93.16-2.75-1.69-3,.39-.76-.68-1.39-.24-2.16a12,12,0,0,0-2.28-2.2c-1-.83-2.1-1.7-2.84-2.28a7.67,7.67,0,0,1-1-3.26,38.73,38.73,0,0,1,5.37-1.45c3.27-1.64,7-1.51,10.37-2.73,1.39-1,3.3-1.26,3.92-3.17.06-1,.94-1,1.5-1.4,1.2-.94,2.81-1.8,1.83-3.82h0c-1.45-3.12-4.4-3.85-7.33-4.62a.64.64,0,0,1-.41,0c-2.57-.12-5,.81-7.43,1.28s-4.94,1.74-7.51,2.28c-1.4,1-3.28.71-4.62,1.81-.08.13-.16.26-.23.39a.86.86,0,0,1-.2.14l-.21-.58c-.35-1.11-.39-1.13-.71-2.29a4.57,4.57,0,0,0-1.73-1.82l-.33-2c-.65-.72-.67-1.45-.83-3-.39-3.27-1.56-2.6-2.36-5a3.18,3.18,0,0,0-1.85-.63c-1.18-.38-1.32-.62-1.67-1.61a1.18,1.18,0,0,0-2.13-.19,12,12,0,0,1-3.2,3.93c-.46.32-1.25.55-1.66.86.37-.28-1,1.29-1.11,1.55-.57,1.28-1.11,1.11-1.21,2.71a2.53,2.53,0,0,0,.57,1.69,10.76,10.76,0,0,0,1.36,1.34c1.7.38,2,1.93,2.65,3.18.93,2.22,2.15,4.41,1.18,7-.4.6-.86,1.15-1.31,1.71a3.37,3.37,0,0,1-2.23,1.49,3.26,3.26,0,0,0-.69.22c-.49.26-.88,1.22-1.07,1.21a2.62,2.62,0,0,0-1,.37c-.58.45-1.51-.08-2,.72-.09.13-.46.2-.87.38l-.56.57c-1.08.91-2.45-1-2.75.31l-.16-.09a1.33,1.33,0,0,0-1.08.18c-.46-.65-1.1-.58-1.73-.5-.89.84-.51,3.93-1.33,5.73-.23.5-1.36,1.74-1.37,2.31,0,.73,1,1.11,1.16,1.49a3.73,3.73,0,0,1,.31,1,5.12,5.12,0,0,0,3.62-1.33l0,0h0a3.44,3.44,0,0,0,2.62-.76h.05c.91-1.21,2.86.06,3.74-1.24h.21c2-.93,4.17-.42,6.19-1,3.33-.83,6.63-1.57,9.08,1.87.85,1.43,1.89,2.75,2.69,4.22,1.23,1.91.92,4,.69,6.07a3.74,3.74,0,0,0,1.7,3.45Z"/><path class="cls-1" d="M579.58,174.87l-.59-1.1v0a1.84,1.84,0,0,1-.25-.09H579c.2-.38.35-.73-.24-.9-.43-.26-.44-.69-.46-1.12,0-.78,0-1.56.07-2.34l-.59-.6h0a4.48,4.48,0,0,1,.15-2.78c-.09-1.92.26-3.89-.68-5.71-.22-.16-.39-.42-.64-.51-.6-1.81-2.58-4.48-2.61-5.28v-.72l-.23-.48c-.23-.49-.79-2.33-1-2.87-.32,0,0-.42.07-1.17.45-1.67.92-3.34,0-5a1.15,1.15,0,0,0,.36-.43,8.43,8.43,0,0,0,.2-3.5c-.19-.69-.37-1.4-1-1.61v-.24a12.38,12.38,0,0,0-.22-2.65c-.37-.89-.37-1.8-.89-1.8s-2.31,1.53-4,2.35a28.93,28.93,0,0,1-5.18,2.05c-1.13.31-2.17.23-2.69.66-.33.53-.73.94-.39,1.42a1.52,1.52,0,0,0,.38.38c0,.55,0,1.11,0,1.67a.7.7,0,0,0,.36,1,2,2,0,0,0-.18.91,2.19,2.19,0,0,0,.28.75c.52.3.9,1.75,2.58,3.62,1.44,1.61.72,2.25,1.4,3.77,0,.61,0,1.27.59,1.69H565a.42.42,0,0,1,0,.49c0,.95-.4,2,.41,2.79h0a3.87,3.87,0,0,0,1.15,2.32h0c.42.88.84,1.76,1.25,2.64l.52.78,1.22,2.73h0c0,3,1.31,5.88,1,8.93a.78.78,0,0,1,.12.39c-.19.4.44.87-.09,1.25l.52,1a.55.55,0,0,0,.56.29,2,2,0,0,0,1.11-.76h0c-.27,2,0,4-.58,6a2.56,2.56,0,0,0,2.08,3.52l.29-.28.21.09a3.36,3.36,0,0,0,2.19.12c.81-.28,1.68-.46,2.07-1.36a.86.86,0,0,0,0-.28c1.59-.06,1.6-1.35,1.73-2.47A17.18,17.18,0,0,0,579.58,174.87Z"/><path class="cls-1" d="M517.13,115c.13-1.53,1.15-2.64,1.73-4s.36-3.18.64-4.72c0-.89-.49-1.49-.57-2.5-.37-4.51-.21-8.81,2.73-12.6.62-.8,1.45-1.68,1.17-2.81h0a2.68,2.68,0,0,0,1.61-1.12,1.46,1.46,0,0,1-.05-.2,3.16,3.16,0,0,0,1.13-1,1.6,1.6,0,0,0,.49,0,4.6,4.6,0,0,0,1.85-.71l.18-.12a1.81,1.81,0,0,0,1,.08,9.74,9.74,0,0,0,1.07-.39h.22a27.17,27.17,0,0,0,1.55-2.51c.59-1.22.66-2.36,2-3.1a8.74,8.74,0,0,0,3.62-3.7,25.26,25.26,0,0,1,2.6-3.61c.91-2.31-1.88-7.29-1.83-11.09,0-1.59-.23-2.77-2.25-2.27l-.57,0-1.17-.08c-2.66.12-4.32-1.67-6.11-3.21-.09-.65-.55-.86-1.12-1l-2.75-.25,0,1.09h0l0,0h0q-.83,2.78-1.66,5.55L522,62l-.16.06c-.72.15-2.14-1.07-1.81.49.43,2-.49,3.76-.26,5.63h0a1.31,1.31,0,0,0-.6,1.12l-1.06,0a12.39,12.39,0,0,0-1.73,7.21h0c-1.21.66-1.32,2.35-2.68,2.86l-.09.56c-.65,2.13-1.9,4-2.7,6.05a2.48,2.48,0,0,1-2.78,1.78,2.14,2.14,0,0,0-.73.35,2.56,2.56,0,0,0-.54,1.08c-.15.63-.32,1.25-.5,1.87.18,1.11-1.32,1.66-1.28,2.72a3.42,3.42,0,0,0-.58.49,3.07,3.07,0,0,0-.43.69c-1.12,2.3-2.61,4.43-3.32,6.93v0c-.86.53-.66,1.63-.87,2.51-.5,2.41,1.8,4.78.08,7.21a7.08,7.08,0,0,0-.9,3.43c-1-.09-2.16-1-2.76.61-.45.23-.5.66-.56,1.09,0,.6-.05,1.25.56,1.67h0a1,1,0,0,1-.07.51c.1.72.19,1.43.29,2.15a.72.72,0,0,0-.46.29,2.37,2.37,0,0,0-.27,1.6,2,2,0,0,1-.31-.55c-.24-.72-.21-1.86-1.28-1.78s-1.39,1-1.61,2a2.55,2.55,0,0,0,0,.78,5.24,5.24,0,0,1,.24.56l-1,2.83c-.18.54-.35,1.09-.52,1.63l-.08,0-.15,1.23a3,3,0,0,0-.9,2.12h0l0,.07c-.35.54-.7,1.08-1.06,1.62,0,.19-.07.37-.1.56.73.8.25,2.07,1.11,2.81h0c.08.38.16.75.23,1.12a.77.77,0,0,0-.07.47c0,1.75,1.73,1.92,2.65,2.83l.07,0c1.48.3,2.48,1.94,4.22,1.54a3.78,3.78,0,0,0,1.12-.43l.25,0a5.42,5.42,0,0,0,4.52-1.89,3.45,3.45,0,0,1,.2-.43,1.45,1.45,0,0,0,1.17-.74h.05a1.51,1.51,0,0,0,.59-.4,1.17,1.17,0,0,0,.24-.61c1.42-.84,1.25-2.58,2.11-3.74a7.75,7.75,0,0,0,.76-3.48,2.7,2.7,0,0,0,.76-1,4.1,4.1,0,0,0,.22-.78c.11-.8.32-1.59.41-2.4-.1-.63,0-1.41-1-1.28a.76.76,0,0,0-.11-.74,1.45,1.45,0,0,0-.21-.22.39.39,0,0,0,.08-.14h.79a1.47,1.47,0,0,0,.34-.51,1.2,1.2,0,0,0,1-.56,3.47,3.47,0,0,0,.47-2.27c.64,0,.7-.47.75-1a1.17,1.17,0,0,0-.32-.61h0a15.59,15.59,0,0,1,1.38-1.55c1.37-1.3,1.28,1.41,2.38.86l.62-1.06.6-.11.57-1.12h0S517,116.08,517.13,115Zm-6.21.07h0v.08l-.1-.1a1.58,1.58,0,0,0-.31-.1,1.67,1.67,0,0,1,.23-.23c0,.11,0,.22.08.33l.11,0Z"/><path class="cls-1" d="M559.12,95.26l0,0h0S559.12,95.28,559.12,95.26Z"/><path class="cls-1" d="M491.08,137.59l0,0a1.42,1.42,0,0,1,.3.25Z"/><path class="cls-1" d="M526.07,113.5h0l.11,0Z"/><path class="cls-1" d="M551,94.45h0l-.16-.2.16,0Z"/><path class="cls-1" d="M560,139.11h0c0-.05,0-.08,0-.12l0,.12Z"/><polygon class="cls-1" points="572.87 177.14 572.87 177.14 572.87 177.14 572.87 177.14"/><path class="cls-1" d="M537.54,100.83h0Z"/><path class="cls-1" d="M481.32,65.14a1.68,1.68,0,0,0,.16-.3,1.74,1.74,0,0,0-.06-.72,6.61,6.61,0,0,0-7.91-2.76c-2.24,0-4.47.53-6.71,0-3.16-1.77-6.51-.36-9.77-.55-2.36,1-4.88.49-7.32.72-.72.86-2,.91-2.65,1.93h0c-.59.09-.72.61-1,1,.71.79.21,1.79.46,2.66,0,1-.21,2.15,1.25,2.45h0l.16-.06.13.09c.12,0,.24,0,.35-.06a1.5,1.5,0,0,0,.52-.45c.05-.08.08-.16.12-.23A7.69,7.69,0,0,1,454.83,70h0a1.14,1.14,0,0,1,0,.45c.05.64.74.74,1,1.19,1,1.28-.8,2.25-.48,3.47a1.29,1.29,0,0,0-.4.47,3.68,3.68,0,0,0-.19,1.36h0c-.31.41-.23,1-.45,1.4v1a5.57,5.57,0,0,1-.4.59,3.28,3.28,0,0,0-.19.68,10.78,10.78,0,0,1-.47,3c0,.07,0,.15,0,.23-1.29,1.21-1.09,3-1.23,4.56-.25,2.8.43,5.63-.31,8.42-.28,6.39-.56,12.78.38,19.15a8.45,8.45,0,0,0,1,3.32.41.41,0,0,0,.48.14,2.09,2.09,0,0,0,.27.39,1.17,1.17,0,0,1,.4.5c0,.51.05,1,.07,1.54a.4.4,0,0,1-.26.3l.26-.3c-.85.17-1.79,0-2.54.61a2.76,2.76,0,0,0-.71,1.59c.25,2.25-.54,4.41-.53,6.64.17,1.7.07,3.22-2.2,3.38a.5.5,0,0,0-.28.14H448a2.61,2.61,0,0,0-.71-.3l-.31,0c-.57-.21-1.22,0-1.81,0a.54.54,0,0,0-.39.43.86.86,0,0,0,.17.46.73.73,0,0,0-.19.07,1.77,1.77,0,0,0-.75,1,4.94,4.94,0,0,0-.07,2.26c.57,2.89,3.1,4.42,5.62,3.45l.09,0a.53.53,0,0,0,.15.19,2,2,0,0,0,.78.35c1.27.2,2.56.06,3.83.18a12,12,0,0,0,3.05.12c3.69-.11,7.36-1.08,11-.52a9.41,9.41,0,0,0,5.75-.73,6.88,6.88,0,0,0,2.07-1.42l.21-.34a1.14,1.14,0,0,0,.72-.55c.41-.56-.25-1-.23-1.47.66-.65,1.33-1.3.9-2.37a.66.66,0,0,0-.58-.29h0a1.39,1.39,0,0,0-.75-.81l-.68-.16a1.06,1.06,0,0,0,0-.25,2.92,2.92,0,0,0-1.4-2c0-.4,0-.79,0-1.19-1.41-.08-2.85-.26-4,.8l-.84,0a18.69,18.69,0,0,1-4.66.49,19.26,19.26,0,0,1-2.63-.08l-.24,0c0-.08-.08-.16-.11-.24l.07-.11c.73-5.1.81-10.26,1.32-15.37a9.89,9.89,0,0,0-.41-5.65.87.87,0,0,0,.6-.4,6.63,6.63,0,0,0,.73-3.38,7.08,7.08,0,0,0-.22-1.58,1.82,1.82,0,0,1-.07-.25,7.18,7.18,0,0,0,.38-1.63c.7-2.68.18-5.54,1.32-8.14.44-1.58,0-3.26.58-4.82.15-1.43.46-2.87-.37-4.19v-.14a1.9,1.9,0,0,0,.48-.41,2.18,2.18,0,0,0,.29-.64,13.19,13.19,0,0,1,.52-2.32,5.63,5.63,0,0,0,.14-.69c.13-1.64-.41-3.34.39-4.92.56-4,.71-4.2,4.29-4.32l.08.09c1,.55,2.16.3,3.22.52a2.9,2.9,0,0,0,.72,0,8.13,8.13,0,0,0,1.78-1c.65-.66,1.67-.57,2.35-1.16a.62.62,0,0,0,.11-.32,1.51,1.51,0,0,0,1-1.11,5.1,5.1,0,0,0,.14-1.23C481.26,67.11,481.91,66.09,481.32,65.14Zm-26.61,72.71a.51.51,0,0,0,.13.09l-.13.09Zm20.89-3.48h0l0,0v0ZM464.11,94.81h0a2.73,2.73,0,0,1-.21-.3h.26c0,.1,0,.21-.05.31Z"/><path class="cls-1" d="M73.23,199.69c-2.46-.63-3.86-.55-3.61-.08.45.88,5.9,2.07,6.78,1.48.3-.49-3.13-1.39-3.17-1.4Z"/><path class="cls-1" d="M75.79,197.75c-2.37-.83-3.88-.77-3.59-.17.46,1,5.19,2.35,6.24,1.8.41-.43-1.83-1.34-2.65-1.63Z"/><path class="cls-1" d="M79,195.82c-2.16-1-3.8-1-3.49-.24.43,1.07,4.44,2.57,5.57,2.09.56-.44-1.36-1.51-2.08-1.85Z"/><path class="cls-1" d="M82.76,194c-1.8-1.16-3.45-1.22-3.36-.43.13,1.14,3.61,2.91,4.84,2.47.64-.41-.72-1.55-1.48-2Z"/><path class="cls-1" d="M87,192.18c-1.5-1.37-3.19-1.46-3.16-.49,0,1.19,2.83,3.06,4,2.69.75-.39-.25-1.65-.86-2.2Z"/><path class="cls-1" d="M91.55,190.53c-1.08-1.48-2.71-1.68-2.91-.67-.25,1.24,1.92,3.33,3.15,3,.76-.35.32-1.58-.24-2.35Z"/><path class="cls-1" d="M96.37,189.06c-.67-1.62-2.17-1.9-2.61-.86-.54,1.27,1,3.56,2.23,3.31.81-.32.71-1.65.38-2.45Z"/><path class="cls-1" d="M101.33,187.79c-.22-1.61-1.45-2.06-2.16-1.17-1,1.26,0,3.79,1.06,3.72l.12,0c.86-.29,1.1-1.68,1-2.53Z"/><path class="cls-1" d="M106.34,186.77c.17-1.57-.78-2.16-1.62-1.46-1.35,1.13-1.13,4,0,4h.11c.86-.24,1.45-1.64,1.56-2.56Z"/><path class="cls-1" d="M111.28,186c.48-1.43-.07-2.14-.86-1.79-1.54.67-2.37,4-1.42,4.32a.65.65,0,0,0,.2,0c.86-.19,1.76-1.61,2.08-2.55Z"/><path class="cls-1" d="M115.81,185.65c.67-1.25.61-2.14-.13-2-1.56.38-3.22,4-2.48,4.42a.34.34,0,0,0,.17,0c.79-.13,1.93-1.53,2.44-2.48Z"/><path class="cls-1" d="M119.53,185.38c.88-1.21,1.07-2.16.41-2-1.32.25-3.75,4-3.25,4.39a.2.2,0,0,0,.13,0h0c.69-.07,2.05-1.46,2.71-2.39Z"/><path class="cls-1" d="M123,185.88c1-1.19,1.46-2.16.88-2.09-1,.12-4.42,4-3.84,4.33l.06,0c.55,0,2-1.21,2.9-2.26Z"/><path class="cls-1" d="M125.63,186.46c1.18-1.13,1.78-2.12,1.3-2.09-.86,0-4.71,3.75-4.35,4.18l0,0c.46,0,2-1.09,3-2.12Z"/><path class="cls-1" d="M127.49,187.34c1.36-1.16,2-2.06,1.66-2.08-.7,0-5,3.63-4.67,4,.34.07,1.87-1,3-1.94Z"/><path class="cls-1" d="M128.58,188.48c1.4-1.08,2.19-2,1.95-2-.43-.12-5,3.36-4.88,3.77.22.12,1.76-.84,2.93-1.74Z"/><path class="cls-1" d="M128.85,189.88c1.13-.8,2.27-1.78,2.18-2a21.44,21.44,0,0,0-4.93,3.48c.24.12,1.91-.93,2.75-1.52Z"/><path class="cls-1" d="M128.25,191.5a10.39,10.39,0,0,0,2.34-1.86c-.4-.11-4.65,2.91-4.82,3.15v0a10,10,0,0,0,2.48-1.32Z"/><path class="cls-1" d="M127,193.17a13,13,0,0,0,2.17-1.58v0a41.46,41.46,0,0,0-4.54,2.82l0,0,0,0a6.9,6.9,0,0,0,1.4-.68l1-.58Z"/><path class="cls-1" d="M61.35,195.28c-2.46-1-4.48-1.1-4.08-.14.59,1.43,6,3.33,7.13,2.51.44-.62-1.64-1.78-3.05-2.37Z"/><path class="cls-1" d="M64.93,192.57c-2.57-1.32-4.55-1.21-4.2-.15.49,1.52,5.25,3.49,6.62,2.73.66-.63-1.13-1.91-2.42-2.58Z"/><path class="cls-1" d="M69.42,189.89c-2.37-1.53-4.55-1.41-4.25-.16.4,1.61,4.51,3.61,6,2.93.86-.63-.63-2-1.77-2.77Z"/><path class="cls-1" d="M74.69,187.29c-2-1.69-4.27-1.65-4.25-.35,0,1.67,3.68,3.91,5.34,3.28,1-.59,0-2.07-1.09-2.93Z"/><path class="cls-1" d="M80.58,184.82c-1.73-1.91-4.1-1.87-4.16-.36-.07,1.75,2.89,4,4.59,3.41,1.11-.55.41-2.12-.43-3.05Z"/><path class="cls-1" d="M87,182.53c-1.31-2-3.64-2.11-4-.56-.41,1.79,2,4.19,3.78,3.71,1.21-.52.86-2.16.22-3.15Z"/><path class="cls-1" d="M93.67,180.48c-.88-2.16-3.11-2.34-3.76-.77s1,4.4,2.91,4c1.28-.48,1.27-2.16.85-3.21Z"/><path class="cls-1" d="M100.58,178.72c-.4-2.08-2.37-2.49-3.32-1.18C96,179.3,97.4,182.14,99,182l.18,0c1.31-.41,1.63-2.17,1.43-3.23Z"/><path class="cls-1" d="M107.55,177.31c0-1.88-1.5-2.74-2.75-1.56-1.67,1.59-1,4.85.61,4.79l.18,0c1.33-.36,2-2.13,2-3.21Z"/><path class="cls-1" d="M114.43,176.29c.37-1.95-.86-2.73-2.09-1.9-1.93,1.31-2.1,4.75-.67,5a1.74,1.74,0,0,0,.32,0c1.31-.28,2.24-2,2.44-3.14Z"/><path class="cls-1" d="M120.74,175.75c.61-1.71,0-2.8-1.22-2.19-2,1-3,4.76-1.75,5.17a1.24,1.24,0,0,0,.27,0c1.18-.18,2.31-1.9,2.7-3Z"/><path class="cls-1" d="M126,175.48c.79-1.58.59-2.72-.42-2.4-1.82.59-3.61,4.68-2.67,5.2a.87.87,0,0,0,.22.05c1-.09,2.32-1.76,2.87-2.85Z"/><path class="cls-1" d="M130.79,176.08c1-1.51,1-2.71.15-2.47-1.53.42-4.19,4.68-3.2,5.12a.38.38,0,0,0,.1,0c.86,0,2.27-1.6,2.95-2.68Z"/><path class="cls-1" d="M134.4,176.91c1.09-1.46,1.41-2.69.66-2.52-1.23.27-4.32,4.44-3.67,5l.06,0c.67.07,2.14-1.39,3-2.47Z"/><path class="cls-1" d="M137,178.13c1.18-1.39,1.72-2.62,1.12-2.52-1.07.16-4.48,4.27-4,4.78.49.14,2-1.22,2.85-2.26Z"/><path class="cls-1" d="M138.5,179.73c1.2-1.29,1.95-2.53,1.51-2.51s-4.4,3.86-4.17,4.53c.27.19,1.62-.91,2.66-2Z"/><path class="cls-1" d="M138.86,181.67c1-1,2-2.17,1.89-2.44-.36-.18-4.16,3.57-4.27,4.22,0,0,0,0,0,0,.24.09,1.41-.87,2.37-1.82Z"/><path class="cls-1" d="M138,183.93a11.74,11.74,0,0,0,2.13-2.37,27.83,27.83,0,0,0-4.15,3.9.08.08,0,0,0,0,0l0,0a10.8,10.8,0,0,0,2-1.6Z"/><path class="cls-1" d="M50.12,189c-2.48-1.45-4.77-1.6-4.54-.29.35,2,5.91,4.78,7.35,3.7.68-.89-1.36-2.56-2.81-3.41Z"/><path class="cls-1" d="M54.64,185.65c-2.78-1.91-5.2-1.65-4.8,0,.51,2.1,5.2,4.56,6.87,3.6,1-.89-.75-2.66-2.07-3.58Z"/><path class="cls-1" d="M60.29,182.3c-2.27-1.88-5.1-2-5-.2.08,2.16,4.43,4.83,6.39,3.92,1.18-.83-.08-2.67-1.35-3.72Z"/><path class="cls-1" d="M66.9,179c-2.24-2.27-5.13-2-5.15-.15,0,2.05,3.53,4.87,5.78,4,1.39-.8.47-2.73-.63-3.84Z"/><path class="cls-1" d="M74.29,176c-1.73-2.23-4.77-2.44-5.16-.36s2.7,5.07,5.1,4.28c1.55-.76,1-2.75.06-3.92Z"/><path class="cls-1" d="M82.29,173.09c-1.42-2.43-4.63-2.63-5.13-.32-.45,2.06,2.06,4.93,4.4,4.28,1.68-.71,1.43-2.74.73-4Z"/><path class="cls-1" d="M90.7,170.53c-.94-2.36-3.84-2.85-4.84-.82s1,5.35,3.51,4.78c1.76-.64,1.84-2.7,1.33-4Z"/><path class="cls-1" d="M99.37,168.34c-.56-2.43-3.28-3.07-4.54-1.07s.16,5.43,2.66,5c1.79-.55,2.17-2.62,1.88-3.91Z"/><path class="cls-1" d="M108.1,166.58c-.17-2.34-2.43-3.22-4-1.55-1.75,1.9-.83,5.53,1.37,5.39l.24,0c1.79-.46,2.46-2.51,2.36-3.82Z"/><path class="cls-1" d="M116.72,165.31c.16-2.23-1.61-3.3-3.28-2-2,1.61-2,5.37.06,5.66a2.26,2.26,0,0,0,.45,0c1.74-.35,2.67-2.36,2.77-3.68Z"/><path class="cls-1" d="M124.61,164.64c.45-2.1-.73-3.31-2.28-2.38-2.11,1.28-2.82,5.37-1,5.84a1.58,1.58,0,0,0,.38,0c1.54-.22,2.63-2.17,2.91-3.49Z"/><path class="cls-1" d="M131.24,164.36c.64-1.92,0-3.24-1.34-2.66-2,.89-3.44,5.22-1.94,5.87a1.16,1.16,0,0,0,.31.07c1.32-.11,2.55-2,3-3.28Z"/><path class="cls-1" d="M137.17,165.07c.82-1.87.49-3.25-.67-2.78-1.84.76-3.72,5.3-2.39,5.79a.5.5,0,0,0,.13,0c1.09,0,2.39-1.81,2.93-3Z"/><path class="cls-1" d="M141.69,166.11c.95-1.82.92-3.23-.06-2.86-1.57.59-3.81,5-2.86,5.61l.1,0c.85.11,2.18-1.6,2.82-2.79Z"/><path class="cls-1" d="M144.92,167.64c1-1.61,1.28-3,.63-2.92-.33,0-1.22.65-2.41,2.66,0,0-1.37,2.34-.84,2.81.56.18,1.79-1.18,2.62-2.55Z"/><path class="cls-1" d="M146.81,169.64c1.08-1.61,1.6-3.07,1-2.9-.8.24-3.7,4.4-3.36,5.18.34.28,1.57-1.14,2.34-2.28Z"/><path class="cls-1" d="M147.26,172.08c1.07-1.47,1.83-3,1.48-2.88s-3.36,4-3.46,4.89c.08.33,1.1-.8,2-2Z"/><path class="cls-1" d="M39.77,181.16c-2.59-2-5.19-2.14-4.88-.22.39,2.43,5.49,6.12,7.32,4.69.88-1.09-.9-3.27-2.44-4.47Z"/><path class="cls-1" d="M45.11,177.18c-2.52-2.22-5.54-2.26-5.39-.07.18,2.52,4.74,6,7,4.67,1.25-1.09-.2-3.34-1.62-4.6Z"/><path class="cls-1" d="M51.77,173.24c-2.41-2.45-5.81-2.41-5.77.07s4.13,5.8,6.61,4.63c1.55-1.07.45-3.39-.84-4.7Z"/><path class="cls-1" d="M59.56,169.43c-2.11-2.55-5.66-2.63-6-.13s3.34,6,6.11,4.88c1.8-1,1-3.4-.09-4.75Z"/><path class="cls-1" d="M68.26,165.8c-1.91-2.8-5.73-2.83-6.2,0-.43,2.56,2.73,5.76,5.59,4.81,2-1,1.56-3.37.61-4.77Z"/><path class="cls-1" d="M77.65,162.45c-1.53-2.87-5.35-3-6.18-.28-.76,2.54,2,5.86,4.94,5,2.13-.89,2-3.3,1.24-4.74Z"/><path class="cls-1" d="M87.54,159.46c-1.13-2.86-4.91-3.21-6-.56-1.06,2.49,1.21,5.92,4.23,5.22,2.21-.79,2.39-3.2,1.81-4.66Z"/><path class="cls-1" d="M97.72,156.89a3.1,3.1,0,0,0-5.78-.85c-1.31,2.43.48,6,3.47,5.4h0a3.7,3.7,0,0,0,2.3-4.55Z"/><path class="cls-1" d="M108,154.83a2.84,2.84,0,0,0-5.22-1.42c-1.83,2.32-.44,6,2.19,5.85l.3,0a4,4,0,0,0,2.73-4.39Z"/><path class="cls-1" d="M118.09,153.35c0-2.82-2.84-3.83-4.73-1.72s-1.08,6,1.4,5.92l.28,0c2.15-.42,3.08-2.7,3-4.18Z"/><path class="cls-1" d="M127.35,152.57c.24-2.62-1.8-3.89-3.64-2.26-2.17,1.92-2,6,.33,6.18h.25c1.88-.25,2.92-2.45,3.06-3.92Z"/><path class="cls-1" d="M135.16,152.29c.46-2.44-.9-3.87-2.56-2.69-2.16,1.54-2.6,6-.64,6.31l.21,0c1.6-.11,2.71-2.2,3-3.64Z"/><path class="cls-1" d="M142.07,153.09c.62-2.21-.18-3.75-1.56-3-2,1.11-3.08,5.78-1.44,6.32l.16,0c1.32,0,2.46-1.95,2.84-3.36Z"/><path class="cls-1" d="M147.36,154.32c.75-2.14.33-3.74-.82-3.11-1.56.84-3.24,5.57-1.8,6.18,1,.14,2.16-1.75,2.62-3.07Z"/><path class="cls-1" d="M151.16,156.12c.78-1.9.77-3.51,0-3.24-1.15.39-3.32,5.2-2.31,6,.7.26,1.8-1.51,2.33-2.78Z"/><path class="cls-1" d="M153.36,158.48c.84-1.81,1.12-3.43.58-3.27-.78.24-3,4.79-2.54,5.76.36.32,1.29-1,2-2.49Z"/><path class="cls-1" d="M30.52,171.81c-2.48-2.53-5.23-2.72-5.16-.37.09,3,5,7.61,7.09,5.92,1.11-1.35-.46-4.06-1.93-5.55Z"/><path class="cls-1" d="M36.55,167.34c-1-1.15-3.27-2.81-5.08-1.73h0c-2.47,2.12,1.4,7.43,4.7,7.69A2.17,2.17,0,0,0,37.6,173c1.56-1.33.32-4.08-1.05-5.62Z"/><path class="cls-1" d="M44.06,162.93c-2.35-2.91-6.13-2.87-6.44.07-.32,3.1,3.68,7,6.67,5.58,1.92-1.3,1-4.09-.23-5.65Z"/><path class="cls-1" d="M52.81,158.65c-2.2-3.14-6.44-3-6.87.25-.4,3,3.21,6.64,6.36,5.38,2.21-1.24,1.63-4,.51-5.63Z"/><path class="cls-1" d="M62.59,154.6c-1.91-3.19-6.29-3.19-7.1,0-.76,3,2.53,6.7,5.91,5.55,2.42-1.15,2.15-3.95,1.19-5.56Z"/><path class="cls-1" d="M72.66,155.45a3.66,3.66,0,0,1-1.3.87c-3.52,1-6.44-2.79-5.38-5.72A3.62,3.62,0,0,1,71.52,149v2.61A6.94,6.94,0,0,0,72.66,155.45Z"/><path class="cls-1" d="M93,149.75c-3.53.66-5.65-3.25-4.11-6a4.3,4.3,0,0,1,.64-.85l0,0h0a3.52,3.52,0,0,1,.74-.56l0,0h0a3.72,3.72,0,0,1,5.33,2.34A4.1,4.1,0,0,1,93,149.75Z"/><path class="cls-1" d="M107.18,142.32a3.49,3.49,0,0,0-6.45-1.2c-1.71,2.6,0,6.56,3.41,6.09a4.19,4.19,0,0,0,3-4.89Z"/><path class="cls-1" d="M118.52,140.67a3.2,3.2,0,0,0-5.72-1.84c-2.16,2.43-.81,6.55,2.13,6.49l.34,0a4.23,4.23,0,0,0,3.25-4.62Z"/><path class="cls-1" d="M128.89,139.81c0-3-2.8-4.31-4.77-2.2s-1.38,6.5,1.64,6.49c2.2-.3,3.16-2.69,3.13-4.29Z"/><path class="cls-1" d="M137.67,139.52c.18-2.75-1.83-4.28-3.58-2.72-2,1.81-2,6.45.65,6.68,1.85-.12,2.83-2.39,2.93-4Z"/><path class="cls-1" d="M145.39,140.41c.33-2.55-1-4.21-2.47-3.12-1.9,1.39-2.41,6.28-.2,6.74,1.5,0,2.46-2.09,2.67-3.62Z"/><path class="cls-1" d="M151.31,141.79c.47-2.46-.39-4.21-1.61-3.28-1.56,1.18-2.36,5.91-.73,6.57,1.15.18,2.06-1.82,2.34-3.29Z"/><path class="cls-1" d="M155.56,143.82c.52-2.19.17-4-.69-3.48-1.18.7-2.39,5.59-1.26,6.45.78.3,1.61-1.55,1.95-3Z"/><path class="cls-1" d="M158,146.47c.58-2.09.6-3.9,0-3.53-.78.52-2.09,5.17-1.55,6.18.38.37,1.08-1.09,1.51-2.65Z"/><path class="cls-1" d="M22.57,161.15c-2.11-2.82-4.8-3.29-5.23-.91-.66,3.53,4,9.22,6.3,7.7a1.12,1.12,0,0,0,.21-.17c1.35-1.58.07-4.82-1.28-6.62Z"/><path class="cls-1" d="M29.14,156.32c-2.28-3.23-5.69-3.35-6.2-.23-.57,3.58,3.57,8.66,6.57,6.85,1.86-1.57.9-4.81-.37-6.62Z"/><path class="cls-1" d="M37.3,151.55c-2.23-3.41-6.26-3.38-6.95.06s3.1,8.15,6.5,6.5c2.27-1.52,1.63-4.75.45-6.56Z"/><path class="cls-1" d="M46.8,146.93c-2.14-3.62-6.73-3.45-7.55.29-.77,3.47,2.8,7.62,6.39,6.16,2.59-1.43,2.24-4.64,1.16-6.45Z"/><path class="cls-1" d="M57.4,142.54c-1.91-3.62-6.7-3.58-7.88.06-1.1,3.4,2.24,7.58,6.09,6.26,2.83-1.34,2.75-4.5,1.79-6.32Z"/><path class="cls-1" d="M66.52,144.63a4.79,4.79,0,0,1-5.69-6.35,4.16,4.16,0,0,1,5.58-2.21,16.57,16.57,0,0,0,2.41,2.4h0s0,0,0,0A4.47,4.47,0,0,1,66.52,144.63Z"/><path class="cls-1" d="M92.24,136.2a7.6,7.6,0,0,0-4.82-4.95l-1-.33-.3-.09,0-.76a4.28,4.28,0,0,1,7.1,1.71A4.55,4.55,0,0,1,92.24,136.2Z"/><path class="cls-1" d="M105.69,129.29a4.09,4.09,0,0,0-7.38-1.22,4.24,4.24,0,0,0,4.11,6.55,4.37,4.37,0,0,0,3.27-5.33Z"/><path class="cls-1" d="M118,127.52a3.82,3.82,0,0,0-6.88-1.61c-1.9,2.64-.19,6.89,3.51,6.59a4.24,4.24,0,0,0,3.37-5Z"/><path class="cls-1" d="M129.17,126.6c-.39-3.37-3.94-4.61-5.83-2-1.79,2.42-.5,6.65,2.74,6.62,2.47-.32,3.3-2.87,3.09-4.58Z"/><path class="cls-1" d="M138.68,126.32c-.18-3.11-2.82-4.65-4.56-2.66s-1.06,6.62,1.79,6.85c2.07-.12,2.87-2.53,2.77-4.19Z"/><path class="cls-1" d="M147,127.27c0-2.86-1.86-4.6-3.35-3.14-1.71,1.68-1.41,6.48,1,7,1.67,0,2.4-2.21,2.39-3.82Z"/><path class="cls-1" d="M153.41,128.77c.1-2.58-1.1-4.44-2.24-3.49-1.49,1.23-1.59,6.23.27,6.94,1.26.21,1.91-1.89,2-3.45Z"/><path class="cls-1" d="M158,131c.19-2.47-.54-4.4-1.36-3.62-1.06,1-1.37,5.82-.14,6.73.85.34,1.39-1.62,1.5-3.11Z"/><path class="cls-1" d="M160.65,133.85c.24-2.24,0-4.14-.45-3.77-.64.52-1.18,5.43-.55,6.54.44.46.85-1.34,1-2.77Z"/><path class="cls-1" d="M16.15,149.37c-1.83-3.32-4.41-3.93-5.13-1.2-1.06,4,2.92,10.7,5.39,9l.23-.19c1.56-1.8.65-5.56-.49-7.65Z"/><path class="cls-1" d="M23.08,144.31c-1.88-3.5-5.12-3.92-6.2-.8-1.47,4.24,2.31,10.14,5.48,8.54.09-.05.21-.14.31-.19,2.12-1.77,1.51-5.48.41-7.55Z"/><path class="cls-1" d="M31.68,139.3c-2-3.8-6.18-3.8-7.28,0-1.17,4.06,2.33,9.25,6.08,7.41,2.58-1.71,2.25-5.36,1.2-7.41Z"/><path class="cls-1" d="M41.67,134.46c-1.94-4-6.83-3.79-8,.3-1.16,3.89,2.23,8.53,6.19,6.91,2.93-1.61,2.85-5.19,1.85-7.21Z"/><path class="cls-1" d="M52.81,129.87C51,126,45.87,126,44.34,130c-1.45,3.75,1.82,8.36,6.08,6.9a5.22,5.22,0,0,0,2.39-7Z"/><path class="cls-1" d="M63.67,131.3h0a5.52,5.52,0,0,1-1.66,1,4.91,4.91,0,0,1-6-6.46,4.69,4.69,0,0,1,6.66-2.69c0,.56-.08,1.14-.08,1.72A18,18,0,0,0,63.67,131.3Z"/><path class="cls-1" d="M87.12,124.65a5,5,0,0,1-.84.09l.22-8.81.4-.38a4.59,4.59,0,0,1,3.55,3A4.68,4.68,0,0,1,87.12,124.65Z"/><path class="cls-1" d="M103.52,116a4.54,4.54,0,1,0-3.41,5.67,4.45,4.45,0,0,0,3.41-5.67Z"/><path class="cls-1" d="M116.39,114.16c-1-3.8-6-4.63-7.88-1.3a4.5,4.5,0,0,0,4.51,6.55,4.11,4.11,0,0,0,3.37-5.25Z"/><path class="cls-1" d="M128.14,113.2c-.8-3.54-4.73-4.79-6.58-2.1s.07,6.94,3.63,6.9c2.69-.35,3.34-3,2.95-4.8Z"/><path class="cls-1" d="M138.1,112.93c-.62-3.36-3.92-4.87-5.43-2.49s0,6.63,2.94,6.85c2.25-.13,2.81-2.62,2.49-4.36Z"/><path class="cls-1" d="M146.81,113.93c-.45-3.09-2.87-4.87-4.16-3.06s-.32,6.52,2.16,7c1.79.06,2.25-2.28,2-3.95Z"/><path class="cls-1" d="M153.52,115.51c-.33-2.83-2-4.75-3-3.48-1.19,1.49-.45,6.31,1.49,7,1.34.23,1.68-1.95,1.49-3.56Z"/><path class="cls-1" d="M158.32,117.83c-.22-2.54-1.24-4.55-1.91-3.76-.88,1-.4,6,1,7,.89.37,1.1-1.65,1-3.2Z"/><path class="cls-1" d="M161.11,120.85c-.15-2.31-.64-4.29-1-3.93-.46.51-.17,5.6.55,6.79.3.33.4-.37.44-1a16.51,16.51,0,0,0,0-1.84Z"/><path class="cls-1" d="M11.46,136.65c-1.28-3.49-3.52-4.43-4.63-1.94-1.77,4,.94,12.07,3.68,10.9a2.24,2.24,0,0,0,.51-.36c1.84-2.09,1.24-6.39.44-8.6Z"/><path class="cls-1" d="M18.56,131.49c-1.45-3.85-4.62-4.39-6-1-1.85,4.35.85,10.84,4.07,9.78a3.52,3.52,0,0,0,.67-.34c2.35-1.94,2.17-6.09,1.3-8.41Z"/><path class="cls-1" d="M27.35,126.4c-1.51-3.94-5.46-4.26-7.16-.59-2.09,4.53,1.06,10.47,4.76,8.94l.39-.19c2.84-1.87,2.89-5.9,2-8.16Z"/><path class="cls-1" d="M37.57,121.47c-1.6-4.12-6.22-4.25-8.1-.23-2.08,4.46,1.1,9.64,5.08,8.28l.45-.19c3.2-1.75,3.43-5.65,2.57-7.86Z"/><path class="cls-1" d="M48.94,116.8c-1.66-4.23-6.93-4.19-8.82.06S41.28,126,46,124.34a6,6,0,0,0,3-7.54Z"/><path class="cls-1" d="M61.2,112.49c-1.71-4.37-7.55-4.2-9.33.27-1.54,3.87,1.43,8.25,6.05,6.9a5.58,5.58,0,0,0,3.28-7.17Z"/><path class="cls-1" d="M71.52,105.94v1a36.91,36.91,0,0,0-5.85,7.21,5,5,0,0,1-1-5.62A5.21,5.21,0,0,1,71.52,105.94Z"/><path class="cls-1" d="M97.22,108.61a5.4,5.4,0,0,1-4-.92,18.84,18.84,0,0,0,2.42-8.26,5.14,5.14,0,0,1,5,3.29A4.41,4.41,0,0,1,97.22,108.61Z"/><path class="cls-1" d="M113.74,100.85c-1.37-3.84-6.77-4.67-8.49-1.31-1.52,3,1,7.08,5.26,6.73a4,4,0,0,0,3.23-5.42Z"/><path class="cls-1" d="M125.7,99.89c-1.28-3.78-5.88-4.91-7.36-1.81-1.29,2.7,1,6.77,4.7,6.72,3-.38,3.23-3.22,2.66-4.91Z"/><path class="cls-1" d="M135.84,99.62c-1.09-3.46-4.69-5-6-2.53s.74,6.74,3.94,7c2.36-.13,2.63-2.67,2.07-4.44Z"/><path class="cls-1" d="M144.71,100.64c-1-3.17-3.65-5-4.74-3.11s.61,6.62,3.24,7.11h0c1.87.07,2-2.3,1.49-4Z"/><path class="cls-1" d="M151.53,102.26c-.79-2.85-2.75-4.81-3.55-3.54-.95,1.5.59,6.39,2.64,7.14,1.39.25,1.37-2,.91-3.6Z"/><path class="cls-1" d="M156.42,104.63c-.68-2.61-2-4.63-2.47-3.83-.65,1,.69,6.07,2.14,7.07.91.39.74-1.65.33-3.24Z"/><path class="cls-1" d="M159.25,107.71c-.41-1.7-1.15-4.06-1.48-4-.36.44,1,5.75,1.72,6.94.08.09.09.1.15.1.25-.28-.28-2.54-.39-3Z"/><path class="cls-1" d="M8.77,123.51c-.65-3.33-2.39-4.42-3.71-2.33-2.32,3.64-1.3,12.45,1.37,11.94a1.86,1.86,0,0,0,.79-.45c1.89-2.12,2-6.63,1.55-9.16Z"/><path class="cls-1" d="M15.84,118.41C15,114.72,12.37,114,10.53,117c-2.54,4.1-1.25,11.21,1.94,10.72a2.84,2.84,0,0,0,1-.46c2.52-2.06,2.88-6.41,2.33-8.85Z"/><path class="cls-1" d="M24.57,113.38c-1-4-4.75-4.22-6.86-.48-2.52,4.48-.58,10.32,3.1,9.33a5.14,5.14,0,0,0,.84-.35c3-2,3.53-6.16,2.92-8.5Z"/><path class="cls-1" d="M34.7,108.51c-1.17-4-5.71-4-8-.07-2.43,4.27-.23,9.36,3.68,8.5a6.56,6.56,0,0,0,.94-.33,7.23,7.23,0,0,0,3.34-8.1Z"/><path class="cls-1" d="M46,103.9c-1.32-4-6.61-3.9-8.84.24s.62,8.8,4.73,7.61l.51-.17A6.49,6.49,0,0,0,46,103.9Z"/><path class="cls-1" d="M58.11,99.64c-1.48-4.11-7.41-3.82-9.47.46-1.82,3.8,1,8.17,5.74,6.77a5.85,5.85,0,0,0,3.73-7.23Z"/><path class="cls-1" d="M70.86,95.84c-1.65-4.22-8.08-3.84-9.82.58-1.39,3.51,1.54,7.29,6.11,6.18,3.86-1.34,4.49-4.76,3.71-6.76Z"/><path class="cls-1" d="M95.31,95.18A17.84,17.84,0,0,0,91.15,87a5.49,5.49,0,0,1,6,3A4,4,0,0,1,95.31,95.18Z"/><path class="cls-1" d="M110.1,88.17c-1.78-3.82-7.66-4.32-9-.77-1,2.54,1.59,6.39,6,6,3.46-.63,3.84-3.44,3-5.23Z"/><path class="cls-1" d="M121.91,87.23c-1.72-3.65-6.84-4.51-7.83-1.31-.79,2.53,2,6.07,5.54,6,2.94-.36,3.11-3,2.29-4.69Z"/><path class="cls-1" d="M131.93,87c-1.57-3.32-5.64-4.63-6.5-2.08-.76,2.25,1.79,6.08,4.91,6.29,2.42-.12,2.39-2.53,1.59-4.21Z"/><path class="cls-1" d="M140.69,88c-1.43-3-4.57-4.66-5.24-2.7s1.72,6,4.32,6.47c1.91.09,1.69-2.15.92-3.77Z"/><path class="cls-1" d="M147.44,89.6c-1.3-2.8-3.62-4.61-4.06-3.18s1.72,5.82,3.77,6.55c1.4.26,1-1.81.29-3.37Z"/><path class="cls-1" d="M152.26,92c-1.09-2.39-2.62-4.29-2.93-3.62-.42.9,1.73,5.62,3.26,6.63.93.43.23-1.59.08-2s-.27-.69-.41-1Z"/><path class="cls-1" d="M155.06,95a24.52,24.52,0,0,0-1.94-3.82l0,0A35.42,35.42,0,0,0,156,97.7l.1.11,0,0a19.51,19.51,0,0,0-1-2.77Z"/><path class="cls-1" d="M8.23,110.92c-.06-3.36-1.27-3.83-1.9-3.34-3.48,2.7-4.14,12.9-1.81,13a1.39,1.39,0,0,0,1-.49c2-2.14,2.77-6.69,2.72-9.22Z"/><path class="cls-1" d="M15.06,106c-.24-3.4-2.29-4.24-4.29-1.76-3.24,4-3.31,11.69-.11,11.12a3,3,0,0,0,1-.47c2.62-2.11,3.55-6.47,3.37-8.89Z"/><path class="cls-1" d="M23.48,101.13c-.47-3.65-3.55-4.08-6-.83-3.12,4.13-2.53,10.22,1,9.72a4.11,4.11,0,0,0,1.24-.45c3.13-2,4.12-6.15,3.82-8.44Z"/><path class="cls-1" d="M33.24,96.45c-.74-3.85-5-3.81-7.57.07-2.82,4.22-1.29,9.15,2.55,8.24a7.46,7.46,0,0,0,.94-.33,8,8,0,0,0,4.08-8Z"/><path class="cls-1" d="M44.08,92c-1-3.84-6-3.61-8.58.4s-.55,8.13,3.4,7.37a6,6,0,0,0,1-.3A6.86,6.86,0,0,0,44.08,92Z"/><path class="cls-1" d="M55.76,88c-1.34-4.09-7.5-3.39-9.55,1.07-1.65,3.59.89,7.24,5.45,5.89,3.89-1.55,4.74-5,4.1-7Z"/><path class="cls-1" d="M64.49,90.58a3.53,3.53,0,0,1-.39.15c-4.6,1.15-7.35-2.35-5.84-5.68A34.64,34.64,0,0,0,64.49,90.58Z"/><path class="cls-1" d="M90.05,84.07a7.33,7.33,0,0,1-1.86.05c-.28-.25-.57-.48-.85-.71l.19-7.33a5.71,5.71,0,0,1,5.73,2.64C94.17,80.41,93.77,83.19,90.05,84.07Z"/><path class="cls-1" d="M105.71,77c-2.13-3.58-8.38-3.75-9.15-.25-.5,2.28,2.19,5.45,6.44,5.06,3.67-.66,3.61-3.3,2.71-4.81Z"/><path class="cls-1" d="M117.05,76.07c-2.08-3.28-7.2-4-7.93-1.12-.59,2.29,2.45,5.46,6.06,5.38,2.94-.35,2.87-2.7,1.87-4.26Z"/><path class="cls-1" d="M126.66,75.83c-2-3-6.11-4.14-6.67-1.86-.5,2,2.46,5.44,5.59,5.63,2.41-.11,2.08-2.27,1.08-3.77Z"/><path class="cls-1" d="M135.07,76.82c-1.87-2.75-5.1-4.19-5.47-2.45s2.53,5.35,5.12,5.8c1.89.1,1.34-1.9.35-3.35Z"/><path class="cls-1" d="M141.54,79.13c-1.7-2.48-4.18-4.13-4.35-2.9s2.63,5.18,4.68,5.88c1.37.27.63-1.57-.33-3Z"/><path class="cls-1" d="M146.17,80.64c-1.45-2.14-3.18-3.89-3.3-3.33-.16.75,2.71,5,4.25,6,.16.08.49.24.29-.4a10.05,10.05,0,0,0-1.24-2.25Z"/><path class="cls-1" d="M9.86,97.49c.07-1.83-.5-1.91-.71-1.93-.76,1-1.3,1.56-1.68,1.64-2.81,4.58-4,11.68-2.36,11.38a1.72,1.72,0,0,0,.76-.48,15.36,15.36,0,0,0,2.62-4.68c.47-1.26.75-2.33.75-2.34l.62-3.59Z"/><path class="cls-1" d="M16,95.14c.58-4.82-1.5-3.82-1.52-3.81-.4.22-.66.62-1,.87A3.47,3.47,0,0,0,12,93.57,17,17,0,0,0,10,97.67c-1.06,3-.93,5.52.28,5.85a2,2,0,0,0,1.53-.47c3-2.37,4.14-7.08,4.24-7.91Z"/><path class="cls-1" d="M24,89.84c.06-3-2-3.76-4.44-1.54-3.82,3.51-4.94,10.29-1.69,10.21A3.32,3.32,0,0,0,19.37,98,11,11,0,0,0,24,89.84Z"/><path class="cls-1" d="M33.11,85.49c-.25-3.38-3.74-3.52-6.57-.26-3.3,3.8-3,8.78.52,8.33a5.23,5.23,0,0,0,1.35-.43,8.81,8.81,0,0,0,4.7-7.64Z"/><path class="cls-1" d="M43.23,81.37c-.62-3.53-5.27-3.23-8,.52-2.61,3.53-1.54,7.3,2,6.94a5.92,5.92,0,0,0,1.47-.38c3.72-1.69,4.93-5.16,4.59-7.08Z"/><path class="cls-1" d="M54.13,77.58c-1.06-3.68-6.85-3-9.11,1.16-1.9,3.44.44,6.48,4.24,5.5l.52-.15c3.85-1.52,4.86-4.72,4.35-6.51Z"/><path class="cls-1" d="M87.6,73.32l.14-5.64A4.39,4.39,0,0,1,89.1,69C89.92,70.26,89.85,72.23,87.6,73.32Z"/><path class="cls-1" d="M100.71,67.37c-2.37-3.11-8.38-3.18-8.92-.11-.36,2,2.46,4.78,6.6,4.38,3.2-.56,3.58-2.62,2.32-4.27Z"/><path class="cls-1" d="M111.27,66.55c-2.51-2.95-7.77-3.4-7.83-.66,0,1.81,2.84,4.49,6.45,4.39,2.86-.32,2.53-2.38,1.38-3.73Z"/><path class="cls-1" d="M120.2,66.31c-2.31-2.53-6.41-3.52-6.65-1.6-.21,1.74,3.1,4.71,6.14,4.88,2.33-.1,1.7-2,.51-3.28Z"/><path class="cls-1" d="M128.05,67.26c-2.23-2.34-5.5-3.61-5.55-2.15s3.13,4.59,5.81,5c1.75.1,1-1.49,0-2.59l-.27-.29Z"/><path class="cls-1" d="M134.08,69.48c-2-2-4.43-3.5-4.53-2.7-.12,1,3.39,4.55,5.47,5.23,1,.23.46-.78.15-1.23a10.14,10.14,0,0,0-1.09-1.3Z"/><path class="cls-1" d="M138.39,70.83c-1.38-1.43-3.19-3-3.57-3l0,0c0,.57,3.75,4.41,5.13,5.26.14.08.17.09.25.09.16-.18-.86-1.37-1.79-2.34Z"/><path class="cls-1" d="M11.9,90.57a15.91,15.91,0,0,1,1.48-3.82c.33-.62.52-1.8.25-2.07-1.62,2-1.88,2-2,2C8.74,90.92,6.25,97.24,7.47,97.2c.22,0,.58-.35.7-.46a23.78,23.78,0,0,0,3.73-6.17Z"/><path class="cls-1" d="M18.09,85.76A10.09,10.09,0,0,1,19,83.05a2.08,2.08,0,0,0,.17-.65c.13-1.41-.36-1.48-.63-1.52-1.37,1.37-2,1.58-2.16,1.6s-.32.28-.44.42A22.67,22.67,0,0,0,13.23,87c-1.62,3.19-1.9,5.6-.62,5.49a2.52,2.52,0,0,0,1-.47c2.36-1.74,4.38-5.88,4.44-6.3Z"/><path class="cls-1" d="M25.69,80.82c.08-.55.33-1.06.39-1.62A3.35,3.35,0,0,0,26,77.94a1.1,1.1,0,0,0-1.4-.78c-.45.19-.77.58-1.2.81a4.75,4.75,0,0,0-1.74,1.24,17.08,17.08,0,0,0-2.56,3.64c-1,1.77-1.67,4.47-.28,5a2.55,2.55,0,0,0,1.87-.4,13.46,13.46,0,0,0,5-6.6Z"/><path class="cls-1" d="M34.24,75.81c.21-2.78-2.19-3.18-5-.82-3.7,3.17-4.94,8.16-2.07,8.34a4.08,4.08,0,0,0,1.83-.43,10.05,10.05,0,0,0,5.19-7.09Z"/><path class="cls-1" d="M43.37,72.08c-.21-3.08-4.31-2.75-7.19.6s-2.3,6.65.92,6.27a6,6,0,0,0,1.38-.37c3.58-1.61,5-4.77,4.89-6.5Z"/><path class="cls-1" d="M53.2,68.67c-.74-3.15-6-2.4-8.36,1.19-2,3-.43,5.55,2.92,5a8.48,8.48,0,0,0,1-.26c3.69-1.43,4.83-4.3,4.45-5.88Z"/><path class="cls-1" d="M93.39,63.13a7.33,7.33,0,0,1-5.49-1.48v-.52l1.69-.87h0A30.54,30.54,0,0,1,94,58.62a5.19,5.19,0,0,1,1.18.88C96.38,60.67,96.6,62.57,93.39,63.13Z"/><path class="cls-1" d="M103.91,61.89c-3.4.11-6.45-2.1-6.63-3.6a1.15,1.15,0,0,1,.14-.73c.74-.24,1.49-.49,2.29-.77h0a8.6,8.6,0,0,1,5,2C106,59.88,106.61,61.59,103.91,61.89Z"/><path class="cls-1" d="M112.73,58.54c-2.64-2.08-6.55-2.87-6.43-1.31.1,1.32,3.43,3.85,6.53,4,2.07-.07,1.22-1.47.47-2.2-.16-.15-.39-.35-.57-.49Z"/><path class="cls-1" d="M119.83,59.42c-2.39-1.77-5.52-2.87-5.51-1.92s3.74,3.85,6.39,4.27c1.36.09.72-.82.37-1.22a8.53,8.53,0,0,0-1.25-1.13Z"/><path class="cls-1" d="M125.25,60.73c-2.87-2.1-2.84-1.33-4.62-2.27,1.42.75,4.16,3.69,6.18,4.32.2,0,.68.16.34-.34a9,9,0,0,0-1.9-1.71Z"/><path class="cls-1" d="M129.14,62.65a36.18,36.18,0,0,0-3.82-2.57,64.4,64.4,0,0,0,5.93,4.38.79.79,0,0,0,.2.09,17.11,17.11,0,0,0-2.31-1.9Z"/><path class="cls-1" d="M16.22,81a23.06,23.06,0,0,1,2.69-4.33,5.75,5.75,0,0,0,.85-1.57c-1.72,1.88-2,2.06-2.08,2.09l0-.09c-3,3.66-6.34,8.94-6.08,9.58.12,0,.19,0,.66-.4A35.39,35.39,0,0,0,16.22,81Z"/><path class="cls-1" d="M23.94,72.89c.32-.86.15-1,.07-1.07-1.72,1.59-2.21,1.76-2.34,1.77s-.28.17-.39.27a35.37,35.37,0,0,0-2.86,3.43c-2.45,3.39-2.93,5.21-2.13,5.2a2.23,2.23,0,0,0,.93-.44,21.13,21.13,0,0,0,3.71-4c.23-.31.55-.73.75-1.06.37-.64.53-1.38.92-2a13.31,13.31,0,0,0,1.34-2.07Z"/><path class="cls-1" d="M28.45,72.63a7.62,7.62,0,0,1,1.13-2.35,1.58,1.58,0,0,0,.21-.52c.21-1-.35-1.18-.52-1.13s-.14.11-.2.16a13.27,13.27,0,0,1-1.27.87c-.31.18-.71.14-1,.38a22.28,22.28,0,0,0-3,3.13c-2.23,2.9-2.58,4.66-2,5.07.32.21.88.09,1.66-.34a15.87,15.87,0,0,0,4.92-5.27Z"/><path class="cls-1" d="M36.17,68.5a12.07,12.07,0,0,0,.51-1.68,1.23,1.23,0,0,0-.42-1.14c-.48-.32-.64-.24-1.64.32-.43.24-.9.35-1.34.55-1.73.79-6.73,6.78-4.27,7.67a2.81,2.81,0,0,0,2-.35,12.12,12.12,0,0,0,5.17-5.37Z"/><path class="cls-1" d="M44.47,64.33c.2-2.33-2.5-2.35-5.34,0-3.07,2.51-4,5.75-1.78,6.08A4.27,4.27,0,0,0,39.42,70c3.27-1.46,4.92-4.2,5-5.69Z"/><path class="cls-1" d="M53,61.37c-.43-2.68-5.23-1.72-7.57,1.51-1.76,2.43-.63,4.36,2.24,3.82.28-.06.64-.17.9-.25,3.4-1.31,4.64-3.76,4.43-5.08Z"/><path class="cls-1" d="M59.37,57.31a25.49,25.49,0,0,0-3.74,6.1c-1.67-.27-2.41-1.46-1.9-2.83C54.51,58.5,57.24,57.22,59.37,57.31Z"/><path class="cls-1" d="M105.4,54.87l-.54,0c.5-.22,1-.46,1.47-.7C106.54,54.47,106.5,54.84,105.4,54.87Z"/><path class="cls-1" d="M112.13,55.16a17.21,17.21,0,0,1-4.54-1.67c.48-.26,1-.52,1.41-.8.54.22,1.08.47,1.6.73a6.83,6.83,0,0,1,2.06,1.37C113,55.23,112.38,55.18,112.13,55.16Z"/><path class="cls-1" d="M115.29,54.55a25.4,25.4,0,0,0-4.63-1.88s0,0,0,0a38.33,38.33,0,0,0,6.8,3.35c.25,0,.29.06.34,0a8.75,8.75,0,0,0-2.5-1.54Z"/><path class="cls-1" d="M26.83,68.89a19.12,19.12,0,0,1,3.07-3.45,4.94,4.94,0,0,0,.94-1.14A15.4,15.4,0,0,1,28.52,66l0-.06c-4.45,3.77-7.08,7-7,7.59.09.07.17.14.84-.33a32.11,32.11,0,0,0,4.45-4.31Z"/><path class="cls-1" d="M32.53,65.45a10.57,10.57,0,0,1,2.06-2.57c.48-.45.64-1,.48-1.12a8.29,8.29,0,0,1-2.33,1.4c-.13,0-.27.14-.38.21a36.38,36.38,0,0,0-3.28,2.85c-2,2-3.06,3.65-2.4,3.81.3.08.88-.24,1.12-.37a20.67,20.67,0,0,0,4.73-4.21Z"/><path class="cls-1" d="M40.36,60c.26-.84-.38-.73-.39-.73a11.27,11.27,0,0,0-1.52.84,7.34,7.34,0,0,0-1.11.49,22.07,22.07,0,0,0-3,2.43c-1.45,1.42-2.54,3.06-1.8,3.45.29.16.84,0,1.62-.31A14.5,14.5,0,0,0,38,63.34c.44-.44,1-1.05,1-1.11.23-.32.3-.73.52-1s.69-.67.83-1.14Z"/><path class="cls-1" d="M46.15,58.9c.1-.44.44-.79.42-1.26a.62.62,0,0,0-.5-.64,1.85,1.85,0,0,0-.72,0c-.38.13-.71.36-1.08.51a5.71,5.71,0,0,0-1.12.46c-3.21,1.94-5.22,4.85-3.64,5.27a3.2,3.2,0,0,0,1.88-.31,10.23,10.23,0,0,0,4.76-4Z"/><path class="cls-1" d="M53.43,55.83c0-1.91-3.72-1.11-6.16,1.33-1.63,1.64-1.5,3.06.27,3.06a5.53,5.53,0,0,0,1.64-.32c3-1.12,4.27-3.06,4.25-4.07Z"/><path class="cls-1" d="M60.73,53.68c-.88-1.86-6-.52-7,1.85-.59,1.38.76,2.39,3.62,1.64,3-1,3.76-2.65,3.36-3.49Z"/><path class="cls-1" d="M66.2,51.09A34.59,34.59,0,0,0,62,54.5a1.33,1.33,0,0,1-.69-1C61.15,52,64,50.91,66.2,51.09Z"/><path class="cls-1" d="M37.85,59.67a20.82,20.82,0,0,1,4.11-3c-.71.38-1.77,1-1.78,1l-.79.46-2.61,1.62c-2.44,1.59-4.21,3-4.13,3.36.12,0,.2,0,.78-.31a42.07,42.07,0,0,0,4.42-3.17Z"/><path class="cls-1" d="M43,57.11a8.28,8.28,0,0,1,1.93-1.59,2.23,2.23,0,0,0,.62-.57c-4.4,1.88-8.67,5.06-8,5.43.2.12.88-.19,1.1-.3a23.94,23.94,0,0,0,4.39-3Z"/><path class="cls-1" d="M48.57,54.71a3.2,3.2,0,0,1,.91-1c.36-.28.31-.59-.08-.46-3.15,1-7.6,4.07-6.43,4.46.17.06.55.05,1.41-.29a14.37,14.37,0,0,0,4.19-2.76Z"/><path class="cls-1" d="M54.41,52.46c.16-.58.16-.58.12-.64s-.15-.18-.63-.11a12,12,0,0,0-3.35,1.35c-1.93,1.1-2.42,2-1.76,2.24a3.34,3.34,0,0,0,1.82-.24,7.75,7.75,0,0,0,3.8-2.6Z"/><path class="cls-1" d="M60,50.57c-.6-1-5.38.61-5.63,1.91-.11.59.81.94,2.73.41,2.31-.73,3.18-1.84,2.9-2.32Z"/><path class="cls-1" d="M65.66,49.2c-1.28-.6-5.7.31-5.36,1.41.14.47,1.33.9,3.53.41s2.51-1.37,2-1.74l-.14-.08Z"/><path class="cls-1" d="M71.15,48.09c-.84.45-1.77,1-2.73,1.55-1.35,0-2.23-.41-2.38-.69C65.67,48.23,69.33,47.76,71.15,48.09Z"/><path class="cls-1" d="M71.46,201.61c-2.23-.41-3.67-.43-3.45,0,.44.74,6.41,1.71,7,1.15.18-1.11-4.51-1.26-3.58-1.11Z"/><path class="cls-1" d="M70.63,203.3c-2.11-.28-3.38-.28-3.22,0,.37.66,6.73,1.42,7.08.85-.14-.35-3.71-.82-3.86-.84Z"/><path class="cls-1" d="M70.69,204.76c-2.72-.24-2.89-.07-3,0,.05.52,6.35,1.11,7,.65v0a22.06,22.06,0,0,0-4-.6Z"/><path class="cls-1" d="M58.52,197.64c-2.38-.81-4.11-.9-3.7-.19.69,1.21,6.53,3,7.27,2.23.17-.6-2.59-1.7-3.57-2Z"/><path class="cls-1" d="M57.66,200.33c-2.14-.62-3.52-.76-3.36-.34.34.91,6.75,2.77,7.29,2.11l0,0c-.11-.5-2.9-1.41-4-1.72Z"/><path class="cls-1" d="M57.71,202.38c-1.26-.32-2.81-.65-3-.42.17.7,6.75,2.44,7.18,1.9v0c-.41-.47-4.06-1.4-4.22-1.44Z"/><path class="cls-1" d="M46.61,192.1c-2.39-1.22-4.27-1.43-3.93-.43.58,1.76,6.45,4.51,7.38,3.46.28-.77-2-2.27-3.45-3Z"/><path class="cls-1" d="M45.41,195.41c-2.09-1-3.56-1.27-3.41-.7.33,1.23,6.77,4.25,7.33,3.43,0,0,0,0,0-.07-.08-.65-2.47-2-4-2.66Z"/><path class="cls-1" d="M45.45,198c-1.93-.83-3.05-1.14-2.87-.78.5,1,7.16,3.9,7.2,3.17a.14.14,0,0,0,0-.06c-.52-.69-4.27-2.31-4.31-2.33Z"/><path class="cls-1" d="M35.64,184.83c-2.31-1.64-4.28-2-4.06-.71.41,2.28,6.18,6.07,7.27,4.77.38-1-1.64-3-3.21-4.06Z"/><path class="cls-1" d="M34.13,188.67c-2-1.33-3.48-1.8-3.34-1.08.29,1.55,6.56,5.78,7.14,4.83a.29.29,0,0,0,0-.09c-.07-.86-2.38-2.7-3.82-3.66Z"/><path class="cls-1" d="M34.14,191.73c-.9-.58-2.46-1.53-2.71-1.36-.06.73,6.44,5.13,7,4.75a.3.3,0,0,0,0-.12,24.85,24.85,0,0,0-4.29-3.27Z"/><path class="cls-1" d="M25.87,176c-2.2-2.09-4.18-2.58-4.08-1,.17,2.53,5.49,7.44,6.78,6.25l.1-.13c.52-1.19-1.33-3.7-2.8-5.11Z"/><path class="cls-1" d="M24.07,180.28c-1.89-1.73-3.27-2.39-3.16-1.5.24,1.87,6.11,7.38,6.68,6.27l0-.1c0-1-2.1-3.34-3.55-4.67Z"/><path class="cls-1" d="M24.05,183.73a11.89,11.89,0,0,0-2.42-1.88c-.16.76,6,6.25,6.56,6.29a.33.33,0,0,0,0-.17,36.65,36.65,0,0,0-4.12-4.24Z"/><path class="cls-1" d="M17.49,165.72c-1.84-2.37-3.67-3.13-3.9-1.62-.42,2.62,4.23,8.92,5.91,8a.85.85,0,0,0,.25-.25c.65-1.41-.93-4.45-2.26-6.16Z"/><path class="cls-1" d="M15.47,170.37c-1.54-2-2.76-2.87-2.84-2.12-.19,1.75,4.95,8.78,5.86,8a.36.36,0,0,0,.08-.21c0-1.21-1.82-4.05-3.1-5.68Z"/><path class="cls-1" d="M15.39,174.13c-1.86-2.39-2-2.38-2-2.38a7,7,0,0,0,.7,1.13c1.23,1.65,2.82,3.88,4.11,5.47a10.2,10.2,0,0,0,1.05,1.17.19.19,0,0,0,0-.07l-.05-.1c-.59-1-2.64-3.73-3.79-5.22Z"/><path class="cls-1" d="M10.76,154.21c-1.43-2.61-3-3.64-3.49-2.3-1,2.62,3,10.74,4.77,9.75a.87.87,0,0,0,.27-.27c.76-1.62-.45-5.17-1.55-7.18Z"/><path class="cls-1" d="M8.56,159.1c-1.15-2.13-2.13-3.3-2.33-2.78-.51,1.31,3.64,9.94,4.67,9.73.1,0,.13-.15.15-.27,0-1.38-1.44-4.74-2.49-6.68Z"/><path class="cls-1" d="M6.22,141.92c-1-2.72-2.18-4-2.81-3C2,141.21,4.56,150.78,6.46,150.43a.83.83,0,0,0,.44-.36c.87-1.78.12-5.84-.68-8.15Z"/><path class="cls-1" d="M3.58,146.61c-.32-1-1.12-3.29-1.57-3.43-.8.44,2.14,11,3.14,11.35.08-.05.09-.08.13-.27.06-1.53-1-5.39-1.7-7.65Z"/><path class="cls-1" d="M3.52,128.75c-.43-2.62-1.2-4-1.84-3.3-1.61,1.79-.73,12.68,1,12.4.17,0,.31-.21.41-.36.87-1.71.9-5.86.43-8.74Z"/><path class="cls-1" d="M.85,133.42a19.63,19.63,0,0,0-.71-3.58H.07a7.65,7.65,0,0,0,0,2.46c.23,2.18.47,5.09.79,7.25a9.62,9.62,0,0,0,.51,2.36h.08a2,2,0,0,0,.05-.24,61.76,61.76,0,0,0-.64-8.25Z"/><path class="cls-1" d="M3.12,115.91c0-2.42-.29-3.85-.8-3.47C.84,113.51-.29,124.72,1,125.2c.19.07.33-.13.49-.36.92-1.75,1.55-6,1.61-8.93Z"/><path class="cls-1" d="M4.79,104.07c.3-1.39.75-3.76.37-4-.7.29-4.39,11.67-3.45,12.79.13,0,.17,0,.39-.36a40.37,40.37,0,0,0,2.69-8.47Z"/><path class="cls-1" d="M8.54,92.45A30.5,30.5,0,0,0,10,88.72c-.29.48-.58,1-.86,1.44l-1,1.9c-1,2.21-2.32,5.16-3.2,7.42a7.1,7.1,0,0,0-.5,1.64l.07,0a1.91,1.91,0,0,0,.23-.32c.69-1.19,2.26-4.63,3.81-8.37Z"/><path class="cls-1" d="M89.53,142.88a4.11,4.11,0,0,0,.74-.56A3.52,3.52,0,0,0,89.53,142.88Z"/><path class="cls-1" d="M87.26,55.84c6.81-3.63,28.47-5.56,26-20C111,22.77,93.76,19.07,84,19.2l.13-4.89,0-.83.07-2.68.35-.19.37-.25c.88-.59,2.22-1.71,2.22-3C87.16,5.41,82.62,0,80.48,0c-2,0-6.69,5.23-6.69,7.43,0,2,2.2,3.12,2.65,3.34h0l.07,0v9.28c-4.87,1-7.71,2.46-11.66,4.36-1.51.72-5.55-.57-7.15-.48-4.12.24-6.48,5.1-8.77,8.48-1.28,1.91-1.88,3.67-.18,3.84a35.08,35.08,0,0,1,5.3.9c1,.33,5.23,3.33,12.35-3.11,2.31-2.09,6-3.62,10.11-4.56V51C67.14,55.4,58.86,61.65,58.6,73v.18A12.22,12.22,0,0,0,61,80.39c3.49,5,10.24,8.61,15.55,11.71v17c-4.35,4.12-9,9-9,15.79s4.22,10.42,9,12.34v14.38a2,2,0,0,0,4.06,0l.33-13.1a22.58,22.58,0,0,0,3.87.45c3.62.13,3.18-2.17.94-3a47.06,47.06,0,0,1-4.7-1.69l.54-20.58c4.5-4.07,9.1-8.78,9.1-15.08,0-5.73-3.85-9.54-8.39-12.74L83,58C84.55,57.23,86,56.5,87.26,55.84ZM57,31.08c-.95.43-2,.28-2.22-.25a2,2,0,0,1,1.09-2.19c.47-.21,2-.45,2.26.16S57.45,30.86,57,31.08ZM76.52,131.52a9.12,9.12,0,0,1-3.41-7.08c0-2.07,1.4-4,3.41-6.1Zm0-49.41c-4.53-2.9-8.43-5.74-8.6-9.82s3.85-7.76,8.6-10.69Zm27-46.49c.37,5.77-9.61,8.47-20.27,12.57l.52-19.7C93.48,27.89,103.16,30.2,103.51,35.62ZM84,99.19c0,1.56-.87,3.09-2.22,4.68L82,95.82C83.27,96.93,84,98,84,99.19Z"/></g></g></svg>