<svg xmlns="http://www.w3.org/2000/svg" viewBox="0 0 654.89 204"><defs><style>.cls-1,.cls-3{fill:#14948a;}.cls-2{fill:#fff;}.cls-3{fill-rule:evenodd;}</style></defs><title>资源 4</title><g id="图层_2" data-name="图层 2"><g id="图层_1-2" data-name="图层 1"><rect class="cls-1" width="654.89" height="204" rx="102"/><circle class="cls-2" cx="101.86" cy="102" r="82.95" transform="translate(-42.29 101.9) rotate(-45)"/><path class="cls-3" d="M44.4,161.82c5.44-3,8.56-5.9,15.68-6.79a28.58,28.58,0,0,1,22,6c7.6,5.76,19.48,17,40.48,13.35,14.95-2.57,28.78-20.72,16-33.52,4.31-14.23-9.54-25.35-20.82-16.76,0,0-10.18-4.58-18.34,1.56-7.71,5.81-4.71,13.23-4.71,13.23a13.24,13.24,0,0,0,2.68,4.39s-2.6,5.37.14,9.36a12.25,12.25,0,0,0,4.56,4c5.37,2.73,12.42,1.59,15-4.6,1.61-3.92-1.17-11.12-6.36-10.58,1.47,2.45,3.2,9.63-2.64,9.24-3.88-.26-5.59-5.52-5.59-6.71s1.34-10.68,8.75-12,11.92.86,14.87,3.8,6.05,11.7,1.76,18.4-17.56,11-26.72,6.31S74.67,144,63,147,45.28,155.7,41,158.3Q42.63,160.11,44.4,161.82Z"/><path class="cls-3" d="M94.93,135.84s-2.55,7-9.29,5-4.37-7.89-4.11-8.06a3.39,3.39,0,0,1,2.82-1.54c4.63,0,3.45,5,4.26,5.1.29,0,3.56-.31,3.34-4.56-.33-6.63-7.49-8.15-11.74-5.05a14.9,14.9,0,0,0-4.71-2.56c-4-1.25-8.9.31-10.44,5.18a9.46,9.46,0,0,1,8.1,3.91c5.73,8.39,6.73,15.1,18.37,13.32,4.57-.69,8.57-3.34,7.86-4.37Z"/><path class="cls-3" d="M67.65,39c5.43,2.61,6.06,3.95,12.38,4.48,7,.58,5.19-11.79,17-10.82.53-3.24,10.8-11.74,18.94.17,0,0,10.14.7,11.81,9.07.89,7-5.84,11.06-5.84,11.06,1.4,6.7-10.4,15.07-15,11.69-2.3,3.12-10.53,3.46-13.58-1.59,0,0-4.45-1-5.38-4.53-2.19-8.2,6.06-9,6-9.21-2-7.05,13.24-9.7,13.38-.4-1.87-.66-5-1.32-5.48,1.8-.53,3.59,3.61,4.54,6.06,3.66s5.84-3.24,6.62-6.36c1.33-5.33-4.38-10.2-10.75-10.22-5.08,0-8.29,2.57-11.84,5.52C79.87,53.4,73.33,46.58,67.65,39Z"/><path class="cls-1" d="M93.29,82.36A168.77,168.77,0,0,0,64.4,85c-3.08,0-3.87-1.3-2.32-3.9A7.54,7.54,0,0,1,69,77.17q20.83,0,24.28-1.3,3.48-2.58,0-6.47-26.57,0-43.94,5.2-4.62,0-2.32-5.2c1.56-4.31,4.25-6.47,8.12-6.47h93.64c5.4,1.72,7.72,3.46,7,5.17s-4.25,2.6-10.41,2.6H110.65v5.17H121q22,0,20.82,5.19c-.77,0-1.16.45-1.16,1.3h-30v6.47q24.28,0,34.69,2.6A3.92,3.92,0,0,1,146.5,94c-.79,0-1.16.41-1.16,1.29H132.61c4.64,1.72,3.85,4.73-2.32,9.07q30.09,0,44,2.57,1.14,5.19-7,13-5.78,3.9-11.54,1.3-20.83-7.75-49.73-7.76-41.64,1.28-67.08,9.06c-3.08.86-4.61-.44-4.61-3.9.76-6,3.45-9.92,8.09-11.66q12.73,1.32,33.53-1.27c-4.62-2.6-6.17-5.2-4.62-7.79-4.64,0-7.72.44-9.25,1.29-2.32,1.75-3.48.86-3.48-2.59q1.15-5.19,6.94-6.47a235.69,235.69,0,0,0,27.75-1.3q3.48-3.9,0-6.47Zm0,23.33c1.55-1.74,1.55-4.75,0-9.09-3.09-1.72-7.3-1.72-12.71,0-1.55,1.74-1.16,4.75,1.16,9.09Zm17.36-9.09a13.1,13.1,0,0,0,0,7.79H122.2c3.87-4.34,4.64-7.35,2.32-9.07C117.59,95.32,113,95.74,110.65,96.6Z"/><path class="cls-2" d="M218.43,137.85h11.32a20.11,20.11,0,0,1,6.56.84,9,9,0,0,1,5.72,5.72,21.31,21.31,0,0,1,1.08,6.84,22,22,0,0,1-1,6.8,8.64,8.64,0,0,1-3.44,4.84,9.39,9.39,0,0,1-3.34,1.3,32.59,32.59,0,0,1-5.54.34H218.43Zm5.68,4.76v17.16h5.64c2.48,0,4.2-.54,5.16-1.64a7.87,7.87,0,0,0,1.42-2.92,14.37,14.37,0,0,0,.54-4,14.09,14.09,0,0,0-.64-4.32,6.86,6.86,0,0,0-1.68-2.92,7.13,7.13,0,0,0-4.8-1.36Z"/><path class="cls-2" d="M252.47,164.53l11-26.68H270l11,26.68h-6.64l-2.6-6.16H261.71l-2.6,6.16Zm14.32-20.24-3.8,9.32h7.6Z"/><path class="cls-2" d="M291.83,164.53v-4.76H304a8.73,8.73,0,0,0,3.88-.56,2.76,2.76,0,0,0,1.4-2.52,3,3,0,0,0-1.64-2.84,6.41,6.41,0,0,0-3-.52h-5c-3,0-5.19-.54-6.52-1.64a7,7,0,0,1-1.94-2.6,8.06,8.06,0,0,1-.7-3.36,8.65,8.65,0,0,1,1.64-5.12,6.88,6.88,0,0,1,5.12-2.64c.8-.08,2-.12,3.56-.12h13.24v4.76h-12a22,22,0,0,0-3.56.24c-1.2.3-1.8,1.2-1.8,2.72a2.49,2.49,0,0,0,1.52,2.56,8.37,8.37,0,0,0,3.36.48H306a16,16,0,0,1,4.88.56,6.23,6.23,0,0,1,3.92,3.36,10.19,10.19,0,0,1,.84,4.12,8.55,8.55,0,0,1-1.12,4.36,6.44,6.44,0,0,1-4.68,3.28,32.26,32.26,0,0,1-4.6.24Z"/><path class="cls-2" d="M349.38,137.85v26.68h-5.63v-11H333.42v11h-5.67V137.85h5.67v10.88h10.33V137.85Z"/><path class="cls-2" d="M360.22,164.53l11-26.68h6.52l11,26.68h-6.64l-2.6-6.16H369.46l-2.6,6.16Zm14.32-20.24-3.8,9.32h7.6Z"/><path class="cls-2" d="M405.14,145v19.56H399.7V137.85H407l10.6,19.88V137.85H423v26.68h-7Z"/><path class="cls-2" d="M470.34,142.61h-8.48v-4.76h23v4.76H476v21.92h-5.68Z"/><path class="cls-2" d="M515.78,137.85v4.76h-7.4a16.14,16.14,0,0,0-4.2.4,4.32,4.32,0,0,0-2.2,1.56,5,5,0,0,0-.82,1.6,18.31,18.31,0,0,0-.38,2.72h15v4.76h-15q.33,3.45,2,4.78c1.15.9,3.1,1.34,5.84,1.34h7.12v4.76h-7.4a34.22,34.22,0,0,1-5.28-.36,9.08,9.08,0,0,1-5.72-3.16q-3-3.67-3-10,0-7,4.28-10.84a8.69,8.69,0,0,1,3.14-1.84,15.69,15.69,0,0,1,4.46-.52Z"/><path class="cls-2" d="M548.54,159.77v4.76h-9.32a21.76,21.76,0,0,1-4-.28,9.24,9.24,0,0,1-7-5.48,18.48,18.48,0,0,1-1.36-7.52,16.43,16.43,0,0,1,2.08-8.72A9.07,9.07,0,0,1,533,139a16.49,16.49,0,0,1,6.54-1.12h9v4.76h-8.4q-3.79,0-5.56,2c-1,1.12-1.48,3.15-1.48,6.08q0,5.93,2.28,7.76a7.94,7.94,0,0,0,5,1.28Z"/><path class="cls-2" d="M582.14,137.85v26.68H576.5v-11H566.18v11H560.5V137.85h5.68v10.88H576.5V137.85Z"/><path class="cls-2" d="M251.83,67.28H217V55.64h39.46V37.34H270v18.3h35.52V67.28H268.62l-4.95,7.34h12.24l30.26,43.61h-16.4L261.54,77.67,234,118.35h-16.9Z"/><path class="cls-2" d="M385.4,40.62H399V50.78H359.9v3.06h37.34V63H359.9v3.27H399v9.15H359.9v6.78h12.55l2-5h15l-2,5H399v10H310.42v-10l8,.12-2-5.09h15l2,5h12.44V75.41H310.42V66.26h35.41V63H312.14V53.84h33.69V50.78H310.42V40.62H324l-1.83-3.51h14.07L338,40.62h33.39l1.83-3.51h14ZM326.2,94.73h71v11.53a13.56,13.56,0,0,1-.86,4.85,12.71,12.71,0,0,1-2.38,4,10.9,10.9,0,0,1-3.54,2.65,9.89,9.89,0,0,1-4.35,1h-74v-24H326.2Zm0,10v4.06H380a3.16,3.16,0,0,0,2.22-.84,3,3,0,0,0,.91-2.32v-.9Z"/><path class="cls-2" d="M426.79,48.64v8.13h12.54v9.72H426.79V118H416.16V66.49H403.51V56.77h12.65V49l-11.64.45V39.15l35.22-1.24V48.19ZM403.61,118l2-48.13h8.29l-2,48.13Zm34.21-48.13L439.74,118h-8.3l-2-48.13ZM483.55,88h8.5V98.12h-8.5v19.77H469.79V98.12H442.07V88h27.72V37.68h13.76ZM466.76,63.33h-7.19l7.19,19.43H453.3l-8.91-24.29h7.19L444.39,39h13.36Z"/><path class="cls-2" d="M522.41,54.85v9.72h14l-14,20v22.14a13.17,13.17,0,0,1-.86,4.8,12.69,12.69,0,0,1-2.38,3.9,11,11,0,0,1-3.54,2.65,10,10,0,0,1-4.35,1H500.76l3.94-9.71h1.62a2.88,2.88,0,0,0,2.23-1,3.63,3.63,0,0,0,.91-2.48V99.14H496.4L509.46,80.5V54.85H498.73V43.67h10.73V36.78h12.95v6.89h11.33V54.85ZM583,75.41a36.42,36.42,0,0,1-5.16,11.3,77.94,77.94,0,0,1-10,12.43A79.09,79.09,0,0,0,576.6,105a32.44,32.44,0,0,0,8.85,3.62V119a39.75,39.75,0,0,1-13.1-4.12,69,69,0,0,1-12.7-8.3,68.37,68.37,0,0,1-12.75,8.3A40.28,40.28,0,0,1,533.74,119V108.63A32.49,32.49,0,0,0,542.6,105a79.09,79.09,0,0,0,8.75-5.87,81.41,81.41,0,0,1-8.75-10.56,45.7,45.7,0,0,1-5.42-10.12h11.54a47.37,47.37,0,0,0,4.35,6.05,96.22,96.22,0,0,0,6.58,7.17,86.6,86.6,0,0,0,8.5-9.77c2.23-3,3.51-5.21,3.84-6.5H536.17V65h16.7v-8.7h-16.7V45.93h16.7v-8.7h12.35v8.7H583V56.32h-17.8V65H583Z"/></g></g></svg>