<svg xmlns="http://www.w3.org/2000/svg" viewBox="0 0 654.89 204"><defs><style>.cls-1,.cls-3{fill:#14948a;}.cls-2,.cls-4{fill:#fff;}.cls-3{fill-rule:evenodd;}.cls-4{font-size:112.98px;font-family:PangMenZhengDao;}</style></defs><title>资源 4</title><g id="图层_2" data-name="图层 2"><g id="图层_1-2" data-name="图层 1"><rect class="cls-1" width="654.89" height="204" rx="102"/><circle class="cls-2" cx="101.86" cy="102" r="82.95" transform="translate(-42.29 101.9) rotate(-45)"/><path class="cls-3" d="M44.4,161.82c5.44-3,8.56-5.9,15.68-6.79a28.58,28.58,0,0,1,22,6c7.6,5.76,19.48,17,40.48,13.35,14.95-2.57,28.78-20.72,16-33.52,4.31-14.23-9.54-25.35-20.82-16.76,0,0-10.18-4.58-18.34,1.56-7.71,5.81-4.71,13.23-4.71,13.23a13.24,13.24,0,0,0,2.68,4.39s-2.6,5.37.14,9.36a12.25,12.25,0,0,0,4.56,4c5.37,2.73,12.42,1.59,15-4.6,1.61-3.92-1.17-11.12-6.36-10.58,1.47,2.45,3.2,9.63-2.64,9.24-3.88-.26-5.59-5.52-5.59-6.71s1.34-10.68,8.75-12,11.92.86,14.87,3.8,6.05,11.7,1.76,18.4-17.56,11-26.72,6.31S74.67,144,63,147,45.28,155.7,41,158.3Q42.63,160.11,44.4,161.82Z"/><path class="cls-3" d="M94.93,135.84s-2.55,7-9.29,5-4.37-7.89-4.11-8.06a3.39,3.39,0,0,1,2.82-1.54c4.63,0,3.45,5,4.26,5.1.29,0,3.56-.31,3.34-4.56-.33-6.63-7.49-8.15-11.74-5.05a14.9,14.9,0,0,0-4.71-2.56c-4-1.25-8.9.31-10.44,5.18a9.46,9.46,0,0,1,8.1,3.91c5.73,8.39,6.73,15.1,18.37,13.32,4.57-.69,8.57-3.34,7.86-4.37Z"/><path class="cls-3" d="M67.65,39c5.43,2.61,6.06,3.95,12.38,4.48,7,.58,5.19-11.79,17-10.82.53-3.24,10.8-11.74,18.94.17,0,0,10.14.7,11.81,9.07.89,7-5.84,11.06-5.84,11.06,1.4,6.7-10.4,15.07-15,11.69-2.3,3.12-10.53,3.46-13.58-1.59,0,0-4.45-1-5.38-4.53-2.19-8.2,6.06-9,6-9.21-2-7.05,13.24-9.7,13.38-.4-1.87-.66-5-1.32-5.48,1.8-.53,3.59,3.61,4.54,6.06,3.66s5.84-3.24,6.62-6.36c1.33-5.33-4.38-10.2-10.75-10.22-5.08,0-8.29,2.57-11.84,5.52C79.87,53.4,73.33,46.58,67.65,39Z"/><path class="cls-1" d="M93.29,82.36A168.77,168.77,0,0,0,64.4,85c-3.08,0-3.87-1.3-2.32-3.9A7.54,7.54,0,0,1,69,77.17q20.83,0,24.28-1.3,3.48-2.58,0-6.47-26.57,0-43.94,5.2-4.62,0-2.32-5.2c1.56-4.31,4.25-6.47,8.12-6.47h93.64c5.4,1.72,7.72,3.46,7,5.17s-4.25,2.6-10.41,2.6H110.65v5.17H121q22,0,20.82,5.19c-.77,0-1.16.45-1.16,1.3h-30v6.47q24.28,0,34.69,2.6A3.92,3.92,0,0,1,146.5,94c-.79,0-1.16.41-1.16,1.29H132.61c4.64,1.72,3.85,4.73-2.32,9.07q30.09,0,44,2.57,1.14,5.19-7,13-5.78,3.9-11.54,1.3-20.83-7.75-49.73-7.76-41.64,1.28-67.08,9.06c-3.08.86-4.61-.44-4.61-3.9.76-6,3.45-9.92,8.09-11.66q12.73,1.32,33.53-1.27c-4.62-2.6-6.17-5.2-4.62-7.79-4.64,0-7.72.44-9.25,1.29-2.32,1.75-3.48.86-3.48-2.59q1.15-5.19,6.94-6.47a235.69,235.69,0,0,0,27.75-1.3q3.48-3.9,0-6.47Zm0,23.33c1.55-1.74,1.55-4.75,0-9.09-3.09-1.72-7.3-1.72-12.71,0-1.55,1.74-1.16,4.75,1.16,9.09Zm17.36-9.09a13.1,13.1,0,0,0,0,7.79H122.2c3.87-4.34,4.64-7.35,2.32-9.07C117.59,95.32,113,95.74,110.65,96.6Z"/><path class="cls-2" d="M226,136.38h6.88c8.95,0,13.35,5.56,13.35,14.48s-4.4,14.67-13.31,14.67H226Zm6.63,27.11c7.68,0,11.08-5.07,11.08-12.63s-3.4-12.48-11.08-12.48h-4.23v25.11Z"/><path class="cls-2" d="M274.78,155.74H263.43l-3.32,9.79h-2.4l10.19-29.15h2.48l10.2,29.15H278Zm-.64-1.92-1.76-5.28c-1.2-3.4-2.16-6.48-3.2-10H269c-1,3.52-2,6.6-3.15,10l-1.8,5.28Z"/><path class="cls-2" d="M291.71,161.7l1.48-1.69a11.19,11.19,0,0,0,8.43,3.88c4.32,0,7-2.27,7-5.6,0-3.51-2.28-4.63-5.16-5.91l-4.36-1.92c-2.59-1.16-5.91-3-5.91-7.28s3.68-7.32,8.63-7.32a11.14,11.14,0,0,1,8.24,3.52l-1.36,1.56a9.36,9.36,0,0,0-6.88-2.92c-3.72,0-6.19,2-6.19,5,0,3.32,2.83,4.56,4.95,5.48l4.36,1.92c3.32,1.48,6.12,3.32,6.12,7.76s-3.72,7.91-9.44,7.91A13,13,0,0,1,291.71,161.7Z"/><path class="cls-2" d="M325.91,136.38h2.39V149h15.16V136.38h2.36v29.15h-2.36V151.1H328.3v14.43h-2.39Z"/><path class="cls-2" d="M376.26,155.74H364.9l-3.31,9.79h-2.4l10.19-29.15h2.48l10.2,29.15H379.5Zm-.64-1.92-1.76-5.28c-1.2-3.4-2.16-6.48-3.2-10h-.16c-1,3.52-2,6.6-3.16,10l-1.8,5.28Z"/><path class="cls-2" d="M395.38,136.38h2.48l11.92,20,3.24,5.87h.2c-.16-2.87-.32-5.79-.32-8.63V136.38h2.28v29.15H412.7l-11.88-20.07-3.28-5.84h-.2c.12,2.8.32,5.52.32,8.44v17.47h-2.28Z"/><path class="cls-2" d="M456.34,138.42h-9.16v-2H468v2h-9.2v27.11h-2.44Z"/><path class="cls-2" d="M482.3,136.38h16.12v2H484.7v10.64h11.56v2H484.7v12.35h14.16v2.08H482.3Z"/><path class="cls-2" d="M512.18,150.94c0-9.32,5.16-15.08,12.56-15.08a10.09,10.09,0,0,1,7.68,3.52l-1.36,1.56a8.2,8.2,0,0,0-6.32-2.92c-6.16,0-10,5-10,12.84s3.8,13,9.92,13c3,0,5.16-1.24,7.24-3.52l1.36,1.52a10.93,10.93,0,0,1-8.72,4.16C517.3,166.05,512.18,160.25,512.18,150.94Z"/><path class="cls-2" d="M547.9,136.38h2.4V149h15.16V136.38h2.36v29.15h-2.36V151.1H550.3v14.43h-2.4Z"/><text class="cls-4" transform="translate(215.09 118.57) scale(0.9 1)">大善科技</text></g></g></svg>