<svg xmlns="http://www.w3.org/2000/svg" viewBox="0 0 74.29 63.07"><defs><style>.cls-1{fill:#330d84;}.cls-2{fill:#ffbe1b;}.cls-3{fill:#5d8ef9;}.cls-4{fill:#fff;}</style></defs><title>modu2-ch-3</title><g id="图层_2" data-name="图层 2"><g id="Layer_1" data-name="Layer 1"><path class="cls-1" d="M12.07,4.05l.33.08-.33.08a5.26,5.26,0,0,0-3.9,3.73l-.08.31L8,7.94A5.25,5.25,0,0,0,4.12,4.21l-.33-.08.33-.08A5.26,5.26,0,0,0,8,.32L8.09,0l.08.31a5.28,5.28,0,0,0,3.9,3.73Z"/><path class="cls-2" d="M74,46.19l.27.07-.27.06a4.43,4.43,0,0,0-3.29,3.15l-.07.27-.07-.27a4.44,4.44,0,0,0-3.3-3.15L67,46.26l.27-.07A4.44,4.44,0,0,0,70.59,43l.07-.27.07.27A4.43,4.43,0,0,0,74,46.19Z"/><path class="cls-3" d="M26.22,50.94l.28.07-.28.07a4.44,4.44,0,0,0-3.3,3.16l-.07.26-.06-.26a4.43,4.43,0,0,0-3.31-3.16L19.21,51l.27-.07a4.45,4.45,0,0,0,3.31-3.16l.06-.27.07.27a4.45,4.45,0,0,0,3.3,3.16Z"/><path class="cls-3" d="M36.61,57l.47.11-.47.12A7.57,7.57,0,0,0,31,62.62l-.12.45-.11-.45a7.56,7.56,0,0,0-5.62-5.37l-.47-.12.47-.11a7.56,7.56,0,0,0,5.62-5.37l.11-.46.12.46A7.57,7.57,0,0,0,36.61,57Z"/><path class="cls-1" d="M4.34,10.25l.17,0-.17.05a2.75,2.75,0,0,0-2,1.95l0,.16,0-.16a2.73,2.73,0,0,0-2-1.95L0,10.29l.17,0a2.73,2.73,0,0,0,2-1.95l0-.17,0,.17a2.75,2.75,0,0,0,2,1.95Z"/><path class="cls-3" d="M16.51,12.61H6.83a3.46,3.46,0,0,0-3.47,3.46v23.4a4.49,4.49,0,0,1,1.42-.23,4.56,4.56,0,0,1,4.56,4.55c0,.05,0,.1,0,.15h7.18A3.47,3.47,0,0,0,20,40.47V16.07A3.47,3.47,0,0,0,16.51,12.61Z"/><rect class="cls-4" x="7.04" y="18.59" width="9.25" height="2.47"/><rect class="cls-4" x="7.04" y="24.25" width="9.25" height="2.47"/><rect class="cls-4" x="7.04" y="29.82" width="9.25" height="2.47"/><rect class="cls-4" x="7.04" y="35.49" width="9.25" height="2.47"/><path class="cls-4" d="M12.8,15.39a1.14,1.14,0,1,1-1.13-1.13A1.14,1.14,0,0,1,12.8,15.39Z"/><path class="cls-3" d="M43.29,17.53A4.56,4.56,0,0,1,38.73,13c0-.12,0-.24,0-.36H31a3.47,3.47,0,0,0-3.47,3.46v24.4A3.47,3.47,0,0,0,31,43.94h9.68a3.47,3.47,0,0,0,3.47-3.47v-23A4.43,4.43,0,0,1,43.29,17.53Z"/><rect class="cls-4" x="31.26" y="18.59" width="9.25" height="2.47"/><rect class="cls-4" x="31.26" y="24.25" width="9.25" height="2.47"/><rect class="cls-4" x="31.26" y="29.82" width="9.25" height="2.47"/><rect class="cls-4" x="31.26" y="35.49" width="9.25" height="2.47"/><path class="cls-4" d="M37,15.39a1.14,1.14,0,1,1-1.14-1.13A1.14,1.14,0,0,1,37,15.39Z"/><path class="cls-4" d="M37,41.15A1.14,1.14,0,1,1,35.88,40,1.14,1.14,0,0,1,37,41.15Z"/><path class="cls-3" d="M67.71,17.53A4.56,4.56,0,0,1,63.15,13c0-.12,0-.24,0-.36H55.26a3.46,3.46,0,0,0-3.47,3.46v24.4a3.47,3.47,0,0,0,3.47,3.47h9.68a3.47,3.47,0,0,0,3.47-3.47v-23A4,4,0,0,1,67.71,17.53Z"/><rect class="cls-4" x="55.47" y="18.59" width="9.25" height="2.47"/><rect class="cls-4" x="55.47" y="24.25" width="9.25" height="2.47"/><rect class="cls-4" x="55.47" y="29.82" width="9.25" height="2.47"/><rect class="cls-4" x="55.47" y="35.49" width="9.25" height="2.47"/><path class="cls-4" d="M61.23,41.15A1.14,1.14,0,1,1,60.1,40,1.14,1.14,0,0,1,61.23,41.15Z"/><path class="cls-1" d="M36,12a1,1,0,0,1-1-.67c-.13-.36-.28-.71-.44-1.05A1,1,0,0,1,35,8.87a1,1,0,0,1,1.38.48,13.33,13.33,0,0,1,.52,1.23,1,1,0,0,1-.6,1.32A.92.92,0,0,1,36,12Z"/><path class="cls-1" d="M12.25,12a.92.92,0,0,1-.36-.07,1,1,0,0,1-.61-1.32c.16-.42.33-.83.53-1.23a1,1,0,1,1,1.85.9c-.16.34-.32.69-.45,1.05A1,1,0,0,1,12.25,12Z"/><path class="cls-1" d="M34.05,6A13.15,13.15,0,0,0,32.2,4.32,1,1,0,1,0,31,6a12.27,12.27,0,0,1,1.57,1.4,1,1,0,0,0,.75.32A1,1,0,0,0,34.05,6Z"/><path class="cls-1" d="M16,4.32A13.73,13.73,0,0,0,14.15,6a1,1,0,0,0,.75,1.73,1,1,0,0,0,.75-.32A11.48,11.48,0,0,1,17.22,6,1,1,0,0,0,16,4.32Z"/><path class="cls-1" d="M28.56,2.41a14.28,14.28,0,0,0-2.4-.6A1,1,0,0,0,25,2.68a1,1,0,0,0,.86,1.17,12.92,12.92,0,0,1,2,.5,1,1,0,0,0,.33.06,1,1,0,0,0,1-.69A1,1,0,0,0,28.56,2.41Z"/><path class="cls-1" d="M23.54,1.54,21,.13a1,1,0,0,0-1.4.4A1,1,0,0,0,20,1.93l.43.24-.78.23a1,1,0,0,0,.34,2,1.06,1.06,0,0,0,.34-.06l.57-.18-.17.31a1,1,0,0,0,.4,1.4,1,1,0,0,0,.5.13,1,1,0,0,0,.9-.53L23.94,3A1.09,1.09,0,0,0,24,2.16,1.12,1.12,0,0,0,23.54,1.54Z"/><path class="cls-1" d="M59.1,48a1,1,0,0,1-.45-.1,1,1,0,0,1-.48-1.38,10.53,10.53,0,0,0,.45-1,1,1,0,0,1,1.32-.61,1,1,0,0,1,.61,1.32A11.12,11.12,0,0,1,60,47.4,1,1,0,0,1,59.1,48Z"/><path class="cls-1" d="M36.37,48a1,1,0,0,1-.93-.58,13.33,13.33,0,0,1-.52-1.23,1,1,0,1,1,1.93-.71c.13.35.28.7.44,1a1,1,0,0,1-.47,1.38A1,1,0,0,1,36.37,48Z"/><path class="cls-1" d="M40.86,50.78a11.72,11.72,0,0,1-1.58-1.4,1,1,0,0,0-1.5,1.42,14.37,14.37,0,0,0,1.85,1.64,1.09,1.09,0,0,0,.62.2,1.06,1.06,0,0,0,.83-.42A1,1,0,0,0,40.86,50.78Z"/><path class="cls-1" d="M51.52,52.4a10.86,10.86,0,0,1-2,.5A1,1,0,0,0,49.64,55h.15a13.25,13.25,0,0,0,2.41-.59,1,1,0,0,0-.68-2Z"/><path class="cls-1" d="M57.64,49.33a1,1,0,0,0-1.46.05,10.41,10.41,0,0,1-1.57,1.39,1,1,0,0,0-.21,1.44,1,1,0,0,0,1.44.22,14.37,14.37,0,0,0,1.85-1.64A1,1,0,0,0,57.64,49.33Z"/><path class="cls-1" d="M46.15,51.27a1,1,0,0,0-1.4-.4,1,1,0,0,0-.4,1.4l.18.31A5.58,5.58,0,0,1,44,52.4a1,1,0,0,0-.67,2c.25.09.51.17.77.24l-.42.23a1,1,0,0,0,.5,1.93,1,1,0,0,0,.5-.13l2.54-1.41a1,1,0,0,0,.49-.62,1.06,1.06,0,0,0-.09-.78Z"/><path class="cls-2" d="M72.26,13a4.56,4.56,0,1,1-4.55-4.55A4.56,4.56,0,0,1,72.26,13Z"/><path class="cls-1" d="M67,15.44a.75.75,0,0,1-.53-.22L64.86,13.7a.76.76,0,1,1,1.06-1.09l1,1,2.41-2.86a.75.75,0,0,1,1.07-.1.76.76,0,0,1,.1,1.08l-2.94,3.49a.75.75,0,0,1-.54.27Z"/><path class="cls-2" d="M47.84,13a4.56,4.56,0,1,1-4.55-4.55A4.56,4.56,0,0,1,47.84,13Z"/><path class="cls-1" d="M42.54,15.44a.75.75,0,0,1-.53-.22L40.44,13.7a.76.76,0,1,1,1.06-1.09l1,1,2.41-2.86A.75.75,0,0,1,46,10.6a.76.76,0,0,1,.1,1.08l-2.94,3.49a.75.75,0,0,1-.54.27Z"/><path class="cls-2" d="M9.34,43.79a4.56,4.56,0,1,1-4.56-4.55A4.56,4.56,0,0,1,9.34,43.79Z"/><path class="cls-1" d="M4,46.26A.79.79,0,0,1,3.5,46L1.93,44.52a.77.77,0,0,1,0-1.08.76.76,0,0,1,1.08,0l1,1,2.41-2.87a.76.76,0,0,1,1.07-.09.77.77,0,0,1,.09,1.08L4.62,46a.78.78,0,0,1-.55.28Z"/></g></g></svg>