<svg xmlns="http://www.w3.org/2000/svg" viewBox="0 0 55.8 71.89"><defs><style>.cls-1{fill:#330d84;}.cls-2{fill:#fff;}.cls-3{fill:#6857e5;}</style></defs><title>modu2-ch-2</title><g id="图层_2" data-name="图层 2"><g id="Layer_1" data-name="Layer 1"><path class="cls-1" d="M50.6,56.33H5.2A5.2,5.2,0,0,1,0,51.13V18.49a5.2,5.2,0,0,1,5.2-5.2H50.6a5.2,5.2,0,0,1,5.2,5.2V51.13a5.2,5.2,0,0,1-5.2,5.2Z"/><path class="cls-2" d="M38.64,17.77a1.55,1.55,0,1,1-1.55-1.56A1.56,1.56,0,0,1,38.64,17.77Z"/><path class="cls-2" d="M44.94,17.77a1.56,1.56,0,1,1-1.55-1.56A1.56,1.56,0,0,1,44.94,17.77Z"/><path class="cls-2" d="M51.23,17.77a1.55,1.55,0,1,1-1.55-1.56A1.55,1.55,0,0,1,51.23,17.77Z"/><path class="cls-3" d="M50.6,56.33H5.2A5.2,5.2,0,0,1,0,51.13V22.53H55.8v28.6a5.2,5.2,0,0,1-5.2,5.2Z"/><path class="cls-1" d="M27.51,4.71l.36.09-.36.09a5.94,5.94,0,0,0-4.34,4.34l-.09.36L23,9.23a6,6,0,0,0-4.34-4.34l-.37-.09.37-.09A6,6,0,0,0,23,.37L23.08,0l.09.37a6,6,0,0,0,4.34,4.34Z"/><path class="cls-1" d="M10.5,7.88l.24.06L10.5,8a3.9,3.9,0,0,0-2.84,2.84l-.06.24-.06-.24A3.9,3.9,0,0,0,4.7,8l-.24-.06.24-.06A3.92,3.92,0,0,0,7.54,5L7.6,4.8,7.66,5A3.92,3.92,0,0,0,10.5,7.88Z"/><path class="cls-1" d="M45.17,62.91l.27.07-.27.07a4.47,4.47,0,0,0-3.27,3.26l-.07.27-.07-.27a4.46,4.46,0,0,0-3.26-3.26L38.22,63l.28-.07a4.49,4.49,0,0,0,3.26-3.27l.07-.27.07.27a4.5,4.5,0,0,0,3.27,3.27Z"/><path class="cls-1" d="M33.71,65.49l.47.12-.47.12A7.81,7.81,0,0,0,28,71.41l-.12.48-.12-.48a7.81,7.81,0,0,0-5.69-5.68l-.47-.12.47-.12a7.82,7.82,0,0,0,5.69-5.69l.12-.48.12.48a7.82,7.82,0,0,0,5.69,5.69Z"/><path class="cls-2" d="M11.09,30.49V29.27l4.33-2v1.31l-2.86,1.32,2.86,1.35v1.33Z"/><path class="cls-2" d="M20.06,26.22h1.27L17.58,34.4H16.32Z"/><path class="cls-2" d="M26.56,29.27v1.22l-4.34,2.05V31.21l2.86-1.35-2.86-1.32V27.23Z"/><path class="cls-2" d="M26.9,39.65H10.74a1,1,0,1,1,0-2.06H26.9a1,1,0,1,1,0,2.06Z"/><path class="cls-2" d="M26.9,44H10.74a1,1,0,1,1,0-2.06H26.9a1,1,0,1,1,0,2.06Z"/><path class="cls-2" d="M26.9,48.28H10.74a1,1,0,0,1,0-2.07H26.9a1,1,0,1,1,0,2.07Z"/><polygon class="cls-2" points="46.34 31.95 39.08 31.95 35.77 25.97 43.04 25.97 46.34 31.95"/><polygon class="cls-2" points="35.77 37.91 39.08 31.95 35.77 25.97 32.38 31.95 35.77 37.91"/><polygon class="cls-2" points="32.05 41.51 39.32 41.51 42.62 47.49 35.35 47.49 32.05 41.51"/><polygon class="cls-2" points="42.62 35.55 39.32 41.51 42.62 47.49 46.01 41.51 42.62 35.55"/></g></g></svg>