<svg xmlns="http://www.w3.org/2000/svg" viewBox="0 0 65.14 67.03"><defs><style>.cls-1{fill:#ffbe1b;}.cls-2{fill:#330d84;}.cls-3{fill:#5d8ef9;}.cls-4{fill:#ffe37b;}.cls-5{fill:#5932ae;}.cls-6{fill:#8ac9f9;}.cls-7{font-size:5.98px;fill:#fff;font-family:SourceHanSansCN-Heavy-GBpc-EUC-H, Source Han Sans CN;}.cls-8{letter-spacing:-0.09em;}</style></defs><title>modu2-ch-1_1</title><g id="图层_2" data-name="图层 2"><g id="Layer_1" data-name="Layer 1"><path class="cls-1" d="M8.53,47.84l.34.09L8.53,48a5.54,5.54,0,0,0-4,4l-.08.33L4.35,52a5.53,5.53,0,0,0-4-4L0,47.93l.34-.09a5.5,5.5,0,0,0,4-4l.09-.34.08.34a5.51,5.51,0,0,0,4,4Z"/><path class="cls-2" d="M13.69,7.14l.3.08-.3.07a4.89,4.89,0,0,0-3.56,3.56l-.08.3-.07-.3A4.91,4.91,0,0,0,6.42,7.29l-.3-.07.3-.08A4.91,4.91,0,0,0,10,3.58l.07-.3.08.3a4.89,4.89,0,0,0,3.56,3.56Z"/><path class="cls-3" d="M64.73,24.9l.41.1-.41.11A6.75,6.75,0,0,0,59.82,30l-.1.41L59.61,30a6.73,6.73,0,0,0-4.9-4.9L54.29,25l.42-.1A6.75,6.75,0,0,0,59.61,20l.11-.41.1.41a6.76,6.76,0,0,0,4.91,4.91Z"/><path class="cls-3" d="M56.29,15.14l.24.06-.24.07a4,4,0,0,0-2.9,2.89l-.06.25-.06-.25a4,4,0,0,0-2.9-2.89l-.24-.07.24-.06a4,4,0,0,0,2.9-2.9l.06-.24.06.24a4,4,0,0,0,2.9,2.9Z"/><path class="cls-1" d="M47.33,17.74a.93.93,0,0,0-.66-.21c-.38,2.74-.64,3.8-.64,3.8l0-.09c0,.87.06,1.65.08,2.29a.82.82,0,0,0,.53-.06c.58-.28,1.1-2.55,1.3-3.29A2.27,2.27,0,0,0,47.33,17.74Z"/><path class="cls-1" d="M22.93,23s-.58-2.26-.78-3.75a17.12,17.12,0,0,0-.61-1.72.92.92,0,0,0-.54.21,2.27,2.27,0,0,0-.58,2.44c.2.74.73,3,1.3,3.29a1.3,1.3,0,0,0,1.21-.25V23s0-.16.05-.31C23,22.88,22.93,23,22.93,23Z"/><path class="cls-4" d="M45.45,16.4a27.77,27.77,0,0,0,0-3.76c-.15-1-.65-2.51-1.81-2.61,0,0-5.13,5.76-16.14,5a13.63,13.63,0,0,1-2.86-.48,3.31,3.31,0,0,0-1.4,2.69,33.25,33.25,0,0,1-.32,5.7v1.32c0,2.92,1.8,4.81,4.47,6.85a30.1,30.1,0,0,0,5,3,8.62,8.62,0,0,0,4.51,0,21,21,0,0,0,4.41-2.53c2.48-1.94,4.78-4.14,4.78-6.6,0-.63,0-2-.1-3.72A19,19,0,0,1,45.45,16.4Z"/><path class="cls-1" d="M40.29,34c-.1-.47-.18-1.08-.23-1.53a25.83,25.83,0,0,1-3.15,1.65,8.62,8.62,0,0,1-4.51,0A33,33,0,0,1,29,32.23c0,.43-.13,1.13-.23,1.66l5.78,3.8Z"/><path class="cls-2" d="M46,5a5.11,5.11,0,0,0-4.61-2.12A7.47,7.47,0,0,0,34.56,0c-5.28.3-5.34,3.07-9.38,4.29s-5.67-2-7.29-.88-.67,5.26,2.62,8.72c-.28,2.84,1.55,6.44,1.64,7.1.2,1.49.78,3.75.78,3.75a34.44,34.44,0,0,0,.32-5.73,3.31,3.31,0,0,1,1.4-2.69,13.63,13.63,0,0,0,2.86.48c11,.73,16.14-5,16.14-5,1.16.1,1.66,1.66,1.81,2.61a27.77,27.77,0,0,1,0,3.76A18.34,18.34,0,0,0,46,21.33s.3-1.2.71-4.34C47,15.2,49.35,9.1,46,5Z"/><path class="cls-3" d="M50.55,38.43l-6.32-1.9L41,35.11a3.48,3.48,0,0,1,.09.8s-3,5.62-3.11,5.29a6.34,6.34,0,0,0-3.46-3.48,6.48,6.48,0,0,0-3.42,3.45C31,41.5,28,35.86,28,35.86a3.22,3.22,0,0,1,.09-.84l-3.18,1.49-6.58,1.94a8.25,8.25,0,0,0-5.91,7.92V50h44V46.33A8.26,8.26,0,0,0,50.55,38.43Z"/><path class="cls-2" d="M29.4,50,27,35.52l-2.12,1-6.58,1.94a8.25,8.25,0,0,0-5.91,7.92V50Z"/><path class="cls-5" d="M25.9,43.8c0,.48-2.28,2-2.29,2.63A21.68,21.68,0,0,0,25.3,50h4.1L27,35.52,26,36c-1.23,1.52-3.21,4.05-3.22,4.6C22.79,41.38,25.91,43.32,25.9,43.8Z"/><path class="cls-2" d="M56.42,50V46.37a8.39,8.39,0,0,0-5.91-8l-6.59-2-2.12-1L39.41,50Z"/><path class="cls-5" d="M43.52,50a23.74,23.74,0,0,0,1.69-3.53c0-.67-2.28-2.15-2.29-2.63S46,41.38,46,40.57c0-.55-2-3.18-3.23-4.7l-1-.46L39.41,50Z"/><path class="cls-2" d="M36.66,50l-1-7.19a3.45,3.45,0,0,1-2.11,0L32.5,50Z"/><path class="cls-5" d="M34.53,37.72a7.08,7.08,0,0,0-2.64,2,16.9,16.9,0,0,0,1.64,3,3.31,3.31,0,0,0,2.24,0,19.94,19.94,0,0,0,1.44-3A7.16,7.16,0,0,0,34.53,37.72Z"/><path class="cls-6" d="M28.74,33.88l5.82,3.82a6.57,6.57,0,0,0-3.45,3.47C31,41.5,28,35.86,28,35.86a3,3,0,0,1,.22-1.21A2,2,0,0,1,28.74,33.88Z"/><path class="cls-6" d="M40.33,33.94,34.5,37.71A6.34,6.34,0,0,1,38,41.2c.11.33,3.11-5.29,3.11-5.29a3.15,3.15,0,0,0-.23-1.21A2,2,0,0,0,40.33,33.94Z"/><path class="cls-1" d="M56.81,66.58H12a3.13,3.13,0,0,1-3.13-3.13V53.09A3.13,3.13,0,0,1,12,50H56.81a3.13,3.13,0,0,1,3.13,3.13V63.45a3.13,3.13,0,0,1-3.13,3.13Z"/><text class="cls-7" transform="translate(15.06 60.78)">DaShan <tspan class="cls-8" x="24.68" y="0">T</tspan><tspan x="27.98" y="0">ech</tspan></text></g></g></svg>