<svg xmlns="http://www.w3.org/2000/svg" viewBox="0 0 74.06 74.18"><defs><style>.cls-1,.cls-10,.cls-11,.cls-7,.cls-8,.cls-9{fill:none;stroke:#330d84;stroke-width:2.06px;}.cls-1{stroke-miterlimit:10;}.cls-2{fill:#5d8ef9;}.cls-3{fill:#8ac9f9;}.cls-4{fill:#fff;}.cls-5{fill:#ffbe1b;}.cls-6{fill:#ffe37b;}.cls-10,.cls-11,.cls-7,.cls-8,.cls-9{stroke-linecap:round;stroke-linejoin:round;}.cls-8{stroke-dasharray:2.47 4.12;}.cls-9{stroke-dasharray:2.47 4.12;}.cls-10{stroke-dasharray:2.47 4.12;}.cls-11{stroke-dasharray:2.47 4.12;}.cls-12{fill:#330d84;}</style></defs><title>资源 1</title><g id="图层_2" data-name="图层 2"><g id="Layer_1" data-name="Layer 1"><line class="cls-1" x1="37.03" y1="10.67" x2="37.03" y2="63.5"/><line class="cls-1" x1="10.62" y1="37.09" x2="63.44" y2="37.09"/><circle class="cls-2" cx="37.03" cy="37.09" r="15.52" transform="translate(-11.3 16.81) rotate(-22.28)"/><path class="cls-3" d="M48.68,37.09A11.65,11.65,0,1,1,37,25.44,11.66,11.66,0,0,1,48.68,37.09Z"/><polygon class="cls-4" points="37.03 40.07 32.25 36.55 37.03 29.26 41.81 36.55 37.03 40.07"/><polygon class="cls-4" points="37.03 44.92 32.25 37.5 37.03 41.27 41.81 37.5 37.03 44.92"/><circle class="cls-5" cx="37.03" cy="8.2" r="8.2" transform="translate(22.99 43.43) rotate(-80.76)"/><path class="cls-6" d="M43.19,8.2A6.16,6.16,0,1,1,37,2,6.16,6.16,0,0,1,43.19,8.2Z"/><polygon class="cls-4" points="37.03 9.78 34.5 7.91 37.03 4.06 39.55 7.91 37.03 9.78"/><polygon class="cls-4" points="37.03 12.34 34.5 8.42 37.03 10.41 39.55 8.42 37.03 12.34"/><circle class="cls-5" cx="37.03" cy="65.97" r="8.2"/><path class="cls-6" d="M43.19,66A6.16,6.16,0,1,1,37,59.82,6.16,6.16,0,0,1,43.19,66Z"/><polygon class="cls-4" points="37.03 67.55 34.5 65.69 37.03 61.84 39.55 65.69 37.03 67.55"/><polygon class="cls-4" points="37.03 70.11 34.5 66.19 37.03 68.18 39.55 66.19 37.03 70.11"/><path class="cls-7" d="M27.72,9.77c-.39.13-.78.27-1.16.42"/><path class="cls-8" d="M22.84,12A29,29,0,0,0,11,24.72"/><path class="cls-7" d="M10.13,26.62c-.14.38-.29.77-.42,1.16"/><path class="cls-7" d="M64.35,27.78c-.14-.39-.28-.78-.43-1.16"/><path class="cls-9" d="M62.16,22.9A29,29,0,0,0,49.39,11"/><path class="cls-7" d="M47.5,10.19c-.39-.15-.77-.29-1.17-.42"/><path class="cls-7" d="M9.71,46.39c.13.4.28.78.42,1.17"/><path class="cls-10" d="M11.9,51.27A28.89,28.89,0,0,0,24.66,63.16"/><path class="cls-7" d="M26.56,64l1.16.43"/><path class="cls-7" d="M46.33,64.41,47.5,64"/><path class="cls-11" d="M51.21,62.22a29,29,0,0,0,11.9-12.77"/><path class="cls-7" d="M63.92,47.56c.15-.39.29-.77.43-1.17"/><circle class="cls-5" cx="8.2" cy="37.09" r="8.2" transform="translate(-29.72 39.23) rotate(-80.76)"/><path class="cls-6" d="M14.36,37.09A6.16,6.16,0,1,1,8.2,30.93,6.15,6.15,0,0,1,14.36,37.09Z"/><polygon class="cls-4" points="8.2 38.66 5.68 36.8 8.2 32.95 10.72 36.8 8.2 38.66"/><polygon class="cls-4" points="8.2 41.23 5.68 37.31 8.2 39.3 10.72 37.31 8.2 41.23"/><circle class="cls-5" cx="65.86" cy="37.09" r="8.2" transform="translate(-6.94 57.43) rotate(-45)"/><path class="cls-6" d="M72,37.09a6.16,6.16,0,1,1-6.15-6.16A6.15,6.15,0,0,1,72,37.09Z"/><polygon class="cls-4" points="65.86 38.66 63.33 36.8 65.86 32.95 68.38 36.8 65.86 38.66"/><polygon class="cls-4" points="65.86 41.23 63.33 37.31 65.86 39.3 68.38 37.31 65.86 41.23"/><path class="cls-12" d="M61.92,9.8l.34.08-.34.09a5.51,5.51,0,0,0-4,4l-.09.34L57.73,14a5.54,5.54,0,0,0-4-4l-.34-.09.34-.08a5.57,5.57,0,0,0,4-4l.08-.34.09.34a5.54,5.54,0,0,0,4,4"/><path class="cls-12" d="M68.57,16.15l.21.05-.21.06A3.51,3.51,0,0,0,66,18.81L66,19l-.06-.22a3.48,3.48,0,0,0-2.55-2.55l-.22-.06.22-.05a3.51,3.51,0,0,0,2.55-2.56l.06-.21.05.21a3.54,3.54,0,0,0,2.56,2.56"/><path class="cls-5" d="M25,69.14l.32.08L25,69.3A5.05,5.05,0,0,0,21.29,73l-.08.31L21.13,73a5.05,5.05,0,0,0-3.69-3.68l-.31-.08.31-.08a5,5,0,0,0,3.69-3.69l.08-.31.08.31A5.05,5.05,0,0,0,25,69.14"/><path class="cls-2" d="M25.05,26.19l.24,0-.24.06A3.77,3.77,0,0,0,22.33,29l-.06.23L22.21,29a3.75,3.75,0,0,0-2.72-2.73l-.23-.06.23,0a3.75,3.75,0,0,0,2.72-2.73l.06-.23.06.23a3.77,3.77,0,0,0,2.72,2.73"/><path class="cls-2" d="M30.21,21.61l.15,0-.15,0a2.43,2.43,0,0,0-1.75,1.75l0,.15,0-.15a2.43,2.43,0,0,0-1.75-1.75l-.15,0,.15,0a2.43,2.43,0,0,0,1.75-1.75l0-.15,0,.15a2.43,2.43,0,0,0,1.75,1.75"/></g></g></svg>