<svg xmlns="http://www.w3.org/2000/svg" viewBox="0 0 134.01 134.01"><defs><style>.cls-1{fill:#f7f7f7;}.cls-2{fill:#c4c4c4;}</style></defs><title>fl-1</title><g id="图层_2" data-name="图层 2"><g id="图层_1-2" data-name="图层 1"><rect class="cls-1" width="134.01" height="134.01" rx="12"/><path class="cls-2" d="M40.16,89.47,33.6,96A3.1,3.1,0,0,0,38,100.41l6.56-6.56a3.1,3.1,0,0,0-4.38-4.38ZM38.28,42.7a3.13,3.13,0,0,0,4.42-4.42l-6.63-6.63a3.13,3.13,0,0,0-4.42,4.42ZM29.5,63.88H20.13a3.13,3.13,0,1,0,0,6.25H29.5a3.13,3.13,0,1,0,0-6.25ZM67,32.63a3.12,3.12,0,0,0,3.13-3.13V20.13a3.13,3.13,0,1,0-6.25,0V29.5A3.13,3.13,0,0,0,67,32.63Zm30.07,8.68,6.57-6.56a3.1,3.1,0,0,0-4.38-4.38l-6.57,6.56a3.11,3.11,0,0,0,0,4.38,3.08,3.08,0,0,0,4.38,0Zm16.81,22.57H104.5a3.13,3.13,0,0,0,0,6.25h9.38a3.13,3.13,0,0,0,0-6.25ZM95.73,91.31a3.13,3.13,0,0,0-4.42,4.42l6.63,6.63a3.13,3.13,0,1,0,4.42-4.42ZM67,38.87A28.15,28.15,0,1,0,95.15,67,28.15,28.15,0,0,0,67,38.87Zm0,62.51a3.11,3.11,0,0,0-3.12,3.12v9.38a3.13,3.13,0,0,0,6.25,0V104.5A3.13,3.13,0,0,0,67,101.38Z"/></g></g></svg>