<svg xmlns="http://www.w3.org/2000/svg" viewBox="0 0 134.01 134.01"><defs><style>.cls-1{fill:#f7f7f7;}.cls-2{fill:#c4c4c4;}</style></defs><title>fl-2</title><g id="图层_2" data-name="图层 2"><g id="图层_1-2" data-name="图层 1"><rect class="cls-1" width="134.01" height="134.01" rx="12"/><path class="cls-2" d="M108.71,31.55l-4.14-.07a59.43,59.43,0,0,1-18.91-4.07,83,83,0,0,1-16.18-8.6L67,17l-2.48,1.81a84.28,84.28,0,0,1-16.18,8.6,59.4,59.4,0,0,1-18.9,4.07l-4.14.07v42C25.29,94.69,52.42,117,67,117s41.72-22.31,41.72-43.42c0,0,0-42,0-42Zm-40.78,36L84.48,51A3.59,3.59,0,0,1,89.55,56l-27,27a3.61,3.61,0,0,1-2.54,1,3.57,3.57,0,0,1-2.53-1l-13-13A3.59,3.59,0,1,1,49.54,65L60,75.48l8-8"/></g></g></svg>