<svg xmlns="http://www.w3.org/2000/svg" viewBox="0 0 134.01 134.01"><defs><style>.cls-1{fill:#f7f7f7;}.cls-2{fill:#c4c4c4;}</style></defs><title>fl-3</title><g id="图层_2" data-name="图层 2"><g id="图层_1-2" data-name="图层 1"><rect class="cls-1" width="134.01" height="134.01" rx="12"/><path class="cls-2" d="M95.24,50h-.18V40H20v65a10,10,0,0,0,10,10h55a10,10,0,0,0,10-10V99.22l.18,0a24.61,24.61,0,1,0,0-49.22Zm0,39.22a.55.55,0,0,1-.18,0V60l.18,0a14.63,14.63,0,1,1,0,29.25ZM40,15H50V30H40Zm25,0H75V30H65Z"/></g></g></svg>