<svg xmlns="http://www.w3.org/2000/svg" viewBox="0 0 134.01 134.01"><defs><style>.cls-1{fill:#f7f7f7;}.cls-2{fill:#c4c4c4;}</style></defs><title>fl-4</title><g id="图层_2" data-name="图层 2"><g id="图层_1-2" data-name="图层 1"><rect class="cls-1" width="134.01" height="134.01" rx="12"/><path class="cls-2" d="M67,17a50,50,0,1,0,50,50A50,50,0,0,0,67,17Zm-24,38.14a7,7,0,0,1,13.91,0h0a7,7,0,1,1-13.91,0ZM67,96.78A21.29,21.29,0,0,1,45.71,75.49H88.3A21.29,21.29,0,0,1,67,96.78ZM84,62.09a7,7,0,1,1,7-7,6.95,6.95,0,0,1-7,7Z"/></g></g></svg>