<svg xmlns="http://www.w3.org/2000/svg" xmlns:xlink="http://www.w3.org/1999/xlink" viewBox="0 0 134.01 134.01"><defs><style>.cls-1{fill:none;}.cls-2{fill:#f7f7f7;}.cls-3{clip-path:url(#clip-path);}.cls-4{fill:#c4c4c4;}</style><clipPath id="clip-path"><rect class="cls-1" x="27.03" y="15" width="79.94" height="100"/></clipPath></defs><title>fl-5</title><g id="图层_2" data-name="图层 2"><g id="图层_1-2" data-name="图层 1"><rect class="cls-2" width="134.01" height="134.01" rx="12"/><g class="cls-3"><path class="cls-4" d="M67,65.25A25.12,25.12,0,0,1,67,15,25.1,25.1,0,0,1,84.74,57.88,24.85,24.85,0,0,1,67,65.25Zm0-42.4A17.28,17.28,0,1,0,84.28,40.13,17.3,17.3,0,0,0,67,22.85Zm36.07,92A3.91,3.91,0,0,1,99.15,111V90.77A15.65,15.65,0,0,0,85.28,75.24L70.09,93.66a4,4,0,0,1-3,1.43h0a3.91,3.91,0,0,1-3-1.41L48.72,75.23A15.66,15.66,0,0,0,34.84,90.76V111A3.91,3.91,0,1,1,27,111V90.77A23.44,23.44,0,0,1,50.47,67.31a3.89,3.89,0,0,1,3,1.41L67.05,85.05,80.49,68.74a3.92,3.92,0,0,1,3-1.43A23.47,23.47,0,0,1,107,90.77V111a3.91,3.91,0,0,1-3.92,3.92Z"/></g><path class="cls-4" d="M67,53.87a13.71,13.71,0,0,1-13.7-13.7,3.91,3.91,0,0,1,7.82,0,5.88,5.88,0,0,0,11.76,0,3.92,3.92,0,0,1,7.83,0A13.72,13.72,0,0,1,67,53.87ZM91.91,97.48H82.13a3.92,3.92,0,0,1,0-7.83h9.78a3.92,3.92,0,1,1,0,7.83Z"/></g></g></svg>