<svg xmlns="http://www.w3.org/2000/svg" xmlns:xlink="http://www.w3.org/1999/xlink" viewBox="0 0 134.01 134.01"><defs><style>.cls-1{fill:none;}.cls-2{fill:#f7f7f7;}.cls-3{clip-path:url(#clip-path);}.cls-4{fill:#c4c4c4;}</style><clipPath id="clip-path"><rect class="cls-1" x="19.01" y="17" width="99.98" height="100"/></clipPath></defs><title>fl-6</title><g id="图层_2" data-name="图层 2"><g id="图层_1-2" data-name="图层 1"><rect class="cls-2" width="134.01" height="134.01" rx="12"/><g class="cls-3"><path class="cls-4" d="M79,117H34a14.73,14.73,0,0,1-15-15V32A14.73,14.73,0,0,1,34,17H89a14.74,14.74,0,0,1,15,15V47a5,5,0,0,1-10,0V32a4.73,4.73,0,0,0-5-5H34a4.72,4.72,0,0,0-5,5v70a4.72,4.72,0,0,0,5,5H79a5,5,0,0,1,0,10Z"/><path class="cls-4" d="M64,72H44a5,5,0,0,1,0-10H64a5,5,0,0,1,0,10Zm0,20H44a5,5,0,0,1,0-10H64a5,5,0,0,1,0,10Zm5-40H44a4.72,4.72,0,0,1-5-5,4.72,4.72,0,0,1,5-5H69a4.73,4.73,0,0,1,5,5,4.73,4.73,0,0,1-5,5ZM99,77a4.52,4.52,0,0,1-3.5-1.5l-15-15a4.95,4.95,0,0,1,7-7l15,15a4.83,4.83,0,0,1,0,7A4.5,4.5,0,0,1,99,77Z"/><path class="cls-4" d="M99,77a4.52,4.52,0,0,1-3.5-1.5,4.83,4.83,0,0,1,0-7l15-15a4.95,4.95,0,1,1,7,7l-15,15A4.5,4.5,0,0,1,99,77Z"/></g><path class="cls-4" d="M114,82H84a5,5,0,0,1,0-10h30a5,5,0,0,1,0,10Zm0,18H84a5,5,0,0,1,0-10h30a5,5,0,0,1,0,10Z"/><path class="cls-4" d="M99,117a4.72,4.72,0,0,1-5-5V72a5,5,0,0,1,10,0v40a4.73,4.73,0,0,1-5,5Z"/></g></g></svg>