<svg xmlns="http://www.w3.org/2000/svg" viewBox="0 0 134.01 134.01"><defs><style>.cls-1{fill:#f7f7f7;}.cls-2{fill:#c4c4c4;}</style></defs><title>fl-7</title><g id="图层_2" data-name="图层 2"><g id="图层_1-2" data-name="图层 1"><rect class="cls-1" width="134.01" height="134.01" rx="12"/><path class="cls-2" d="M115.89,84.36c-.92-1-4.25-1.58-8.08-1.62.09-4.95,1.15-14.83-.82-16.55-1.13-1-18.83-2.32-35.87-1.37l.5-7.27c5.18-.09,9.67-.58,10.72-1.62,2.59-2.6,3-19.49,0-23s-26-2.6-29.46,1.73-3,19.49,0,21.22c1.2.68,5.64,1.22,10.73,1.48L64,65.24c-18.45,1.17-36.31,2.85-37,4.05-1,1.81-.09,9.56.49,13.66-4.19.41-8,1.33-9.14,2.74-2.65,3.31-2.31,14.9,0,16.22s20.53,2,22.51,0,2.32-14.9,0-17.55c-1-1.09-4.53-1.62-8.58-1.63-.37-3-.88-8.62.43-10,.86-.87,15.89-1.93,31.54-2.53L64.93,83c-3.86.44-7.26,1.33-8.32,2.65-2.64,3.32-2.32,14.9,0,16.22s20.53,2,22.51,0,2.33-14.9,0-17.55c-1-1.16-4.93-1.68-9.24-1.63L70.75,70c14.83-.44,30.27-.47,31,.67,1.14,1.76,1.7,8.16,1.3,12.37-4.15.4-8.58,1.23-9.71,2.62-2.65,3.32-2.32,14.9,0,16.22s20.52,2,22.51,0,2.34-14.9,0-17.55Z"/></g></g></svg>