<svg xmlns="http://www.w3.org/2000/svg" viewBox="0 0 134.01 134.01"><defs><style>.cls-1{fill:#f7f7f7;}.cls-2{fill:#c4c4c4;}</style></defs><title>fl-8</title><g id="图层_2" data-name="图层 2"><g id="图层_1-2" data-name="图层 1"><rect class="cls-1" width="134.01" height="134.01" rx="12"/><path class="cls-2" d="M45.24,28.56a5.86,5.86,0,0,1,1.06,3.89h.82c0-3.71,2.06-5.36,4.59-5.36v-.82c-2.35.06-4.47-1.59-4.47-5.29v-.83h-.88V21c0,3.7-2.06,5.35-4.59,5.35v.82a4.41,4.41,0,0,1,3.47,1.41ZM39.6,56h1.17c0-4.18,1.41-8.24,7.53-8.35V46.56a7.13,7.13,0,0,1-7.53-8.23V37.15H39.6v1.18c0,5.29-3,8.23-7.18,8.23v1.23c6.47,0,7.18,3,7.18,8.24Zm74.46-6.47A28.18,28.18,0,0,0,66.59,29l39.82,39.82a28.06,28.06,0,0,0,7.65-19.23ZM27.54,91.5a11.75,11.75,0,0,0-2.82,13.41v.76L20,110.85l3.41,3.41,4.89-4.88a11.76,11.76,0,0,0,13.88,0l1.35-1L74.41,81.32,55.24,62.15,27.54,91.49Zm79.28-14V76.32h-1.29V77.5c0,5.29-2.94,8.23-6.59,8.23h-.59V87h.59c3.65,0,6.59,2.94,6.59,8.23h1.17c0-5.29,2.94-8.23,6.59-8.23h.77v-1.3h-.59c-3.71,0-6.65-2.94-6.65-8.23Zm-44.17-44A28,28,0,0,0,58.77,57L78.24,76.61a28,28,0,0,0,23.52-3.88L62.65,33.51Z"/></g></g></svg>